{"glyphs":{"0":{"ha":572,"x_min":90,"x_max":482,"o":"m 285 -17 q 148 40 206 -17 q 90 219 90 97 l 90 594 q 117 729 90 676 q 190 807 144 782 q 288 832 235 832 q 425 774 368 832 q 482 594 482 715 l 482 219 q 424 40 482 97 q 285 -17 367 -17 m 286 6 q 411 64 363 6 q 460 224 460 122 l 460 592 q 410 752 460 694 q 286 810 361 810 q 162 752 211 810 q 113 592 113 694 l 113 224 q 162 64 113 122 q 286 6 211 6 z "},"1":{"ha":279,"x_min":33,"x_max":174,"o":"m 151 0 l 151 688 l 33 688 l 33 710 l 99 710 q 140 726 128 710 q 153 767 153 742 l 153 821 l 174 821 l 174 0 l 151 0 z "},"2":{"ha":535,"x_min":86,"x_max":469,"o":"m 92 0 l 92 146 q 117 247 92 208 q 184 314 143 286 q 271 369 225 342 q 390 467 342 413 q 439 611 439 522 l 439 631 q 399 760 439 718 q 272 803 358 803 q 154 765 200 803 q 108 642 108 726 l 108 568 l 86 568 l 86 636 q 135 780 86 733 q 272 826 185 826 q 415 775 369 826 q 461 625 461 724 q 415 465 461 529 q 286 353 369 401 q 201 299 239 326 q 140 237 163 272 q 117 146 117 201 l 117 22 l 469 22 l 469 0 l 92 0 z "},"3":{"ha":542,"x_min":82,"x_max":474,"o":"m 278 -11 q 133 41 185 -11 q 82 190 82 93 l 82 254 l 104 254 l 104 190 q 149 55 104 97 q 278 10 193 13 q 451 190 451 14 l 451 226 q 408 366 451 314 q 278 418 364 418 l 189 418 l 189 440 l 278 440 q 397 490 353 440 q 442 611 442 539 l 442 638 q 403 760 442 715 q 278 804 365 804 q 151 760 190 804 q 113 638 113 715 l 113 596 l 90 596 l 90 639 q 138 776 90 725 q 278 826 185 826 q 418 776 371 826 q 465 639 465 725 l 465 614 q 426 492 465 542 q 319 429 386 442 q 409 392 375 422 q 458 318 443 361 q 474 226 474 275 l 474 190 q 421 40 474 90 q 278 -11 368 -11 z "},"4":{"ha":506,"x_min":49,"x_max":457,"o":"m 363 0 l 363 165 l 49 165 l 49 186 l 367 821 l 385 821 l 385 188 l 457 188 l 457 165 l 385 165 l 385 0 l 363 0 m 74 188 l 363 188 l 363 763 l 74 188 z "},"5":{"ha":597,"x_min":113,"x_max":515,"o":"m 308 -11 q 246 -6 279 -11 q 182 21 213 0 q 132 86 151 42 q 113 210 113 131 l 113 233 l 135 233 l 135 214 q 139 147 135 183 q 160 78 143 111 q 212 26 176 46 q 310 6 247 6 q 443 60 393 6 q 493 222 493 114 l 493 336 q 478 431 493 389 q 426 497 464 472 q 314 522 388 522 q 190 485 233 522 q 144 411 147 449 l 124 411 l 124 821 l 481 821 l 481 799 l 144 799 l 144 469 q 214 525 169 506 q 314 544 258 544 q 419 526 374 544 q 490 463 464 508 q 515 335 515 418 l 515 226 q 485 76 515 126 q 406 7 454 25 q 308 -11 358 -11 z "},"6":{"ha":594,"x_min":93,"x_max":507,"o":"m 299 -12 q 236 -8 271 -12 q 169 17 201 -3 q 115 81 136 36 q 93 207 93 126 l 93 625 q 150 770 93 717 q 296 824 207 824 q 435 777 386 824 q 483 633 483 731 l 483 624 l 461 624 l 461 639 q 417 762 461 722 q 296 801 374 801 q 165 753 213 801 q 117 631 117 704 l 117 400 q 197 467 150 440 q 314 493 243 493 q 415 475 371 493 q 483 412 458 457 q 507 285 507 367 l 507 219 q 489 98 507 144 q 441 28 471 51 q 374 -4 411 4 q 299 -12 336 -12 m 299 10 q 435 60 385 10 q 485 219 485 111 l 485 264 q 472 367 485 319 q 422 442 458 414 q 314 471 385 471 q 213 447 258 471 q 142 390 168 424 q 115 325 115 357 l 115 211 q 121 145 115 181 q 144 79 126 110 q 199 29 163 49 q 299 10 236 10 z "},"7":{"ha":382,"x_min":17,"x_max":340,"o":"m 82 0 l 317 799 l 17 799 l 17 821 l 340 821 l 340 800 l 106 0 l 82 0 z "},"8":{"ha":561,"x_min":85,"x_max":476,"o":"m 281 -11 q 136 41 188 -11 q 85 190 85 93 l 85 226 q 99 318 85 275 q 148 392 114 361 q 239 429 182 422 q 133 492 172 442 q 93 614 93 542 l 93 639 q 140 776 93 725 q 281 826 188 826 q 421 776 374 826 q 468 639 468 725 l 468 614 q 428 492 468 542 q 322 429 389 442 q 414 392 381 422 q 462 318 447 361 q 476 226 476 275 l 476 190 q 424 40 476 90 q 281 -11 371 -11 m 281 442 q 364 465 326 442 q 424 526 401 488 q 446 611 446 564 l 446 638 q 406 758 446 711 q 281 804 367 804 q 156 758 196 804 q 115 638 115 711 l 115 611 q 138 526 115 564 q 198 465 160 488 q 281 442 236 442 m 281 11 q 410 60 367 14 q 454 190 454 107 l 454 226 q 408 365 454 313 q 281 417 361 417 q 154 365 201 417 q 107 226 107 313 l 107 190 q 153 59 107 104 q 281 11 199 14 z "},"9":{"ha":594,"x_min":88,"x_max":501,"o":"m 299 -12 q 160 34 208 -12 q 111 178 111 81 l 111 188 l 133 188 l 133 172 q 177 49 133 89 q 299 10 221 10 q 430 58 382 10 q 478 181 478 107 l 478 411 q 398 345 444 372 q 281 318 351 318 q 142 363 196 318 q 88 526 88 408 l 88 592 q 106 713 88 667 q 153 783 124 760 q 221 815 183 807 q 296 824 258 824 q 358 818 324 824 q 426 792 393 813 q 480 728 458 772 q 501 604 501 683 l 501 186 q 444 41 501 94 q 299 -12 388 -12 m 281 340 q 378 361 338 340 q 445 409 419 382 q 479 454 471 436 l 479 600 q 474 667 479 632 q 450 732 468 701 q 395 782 432 763 q 296 801 358 801 q 158 751 206 801 q 110 592 110 700 l 110 547 q 123 444 110 492 q 174 369 136 397 q 281 340 211 340 z "},"\r":{"ha":0,"x_min":0,"x_max":0,"o":""}," ":{"ha":215,"x_min":0,"x_max":0,"o":""}," ":{"ha":215,"x_min":0,"x_max":0,"o":""},"A":{"ha":507,"x_min":35,"x_max":472,"o":"m 35 0 l 244 821 l 263 821 l 472 0 l 449 0 l 393 222 l 113 222 l 58 0 l 35 0 m 118 244 l 388 244 l 260 739 l 254 763 l 249 739 l 118 244 z "},"А":{"ha":507,"x_min":35,"x_max":472,"o":"m 35 0 l 244 821 l 263 821 l 472 0 l 449 0 l 393 222 l 113 222 l 58 0 l 35 0 m 118 244 l 388 244 l 260 739 l 254 763 l 249 739 l 118 244 z "},"Æ":{"ha":696,"x_min":3,"x_max":671,"o":"m 3 0 l 314 821 l 588 821 l 588 799 l 340 799 l 390 443 l 600 443 l 600 421 l 393 421 l 449 22 l 671 22 l 671 0 l 429 0 l 399 222 l 113 222 l 28 0 l 3 0 m 121 244 l 394 244 l 321 775 l 121 244 z "},"Ǽ":{"ha":696,"x_min":3,"x_max":671,"o":"m 3 0 l 314 821 l 588 821 l 588 799 l 340 799 l 390 443 l 600 443 l 600 421 l 393 421 l 449 22 l 671 22 l 671 0 l 429 0 l 399 222 l 113 222 l 28 0 l 3 0 m 121 244 l 394 244 l 321 775 l 121 244 m 360 879 l 475 983 l 507 983 l 381 879 l 360 879 z "},"Á":{"ha":507,"x_min":35,"x_max":472,"o":"m 35 0 l 244 821 l 263 821 l 472 0 l 449 0 l 393 222 l 113 222 l 58 0 l 35 0 m 118 244 l 388 244 l 260 739 l 254 763 l 249 739 l 118 244 m 224 879 l 339 983 l 371 983 l 244 879 l 224 879 z "},"Ă":{"ha":507,"x_min":35,"x_max":472,"o":"m 35 0 l 244 821 l 263 821 l 472 0 l 449 0 l 393 222 l 113 222 l 58 0 l 35 0 m 118 244 l 388 244 l 260 739 l 254 763 l 249 739 l 118 244 m 247 867 q 164 901 188 867 q 140 974 140 935 l 163 974 q 189 908 164 928 q 249 889 214 889 q 317 910 285 889 q 350 974 350 931 l 372 974 q 340 901 372 935 q 247 867 308 867 z "},"Ắ":{"ha":507,"x_min":35,"x_max":472,"o":"m 35 0 l 244 821 l 263 821 l 472 0 l 449 0 l 393 222 l 113 222 l 58 0 l 35 0 m 118 244 l 388 244 l 260 739 l 254 763 l 249 739 l 118 244 m 251 867 q 168 901 192 867 q 144 974 144 935 l 167 974 q 193 908 168 928 q 253 889 218 889 q 322 910 289 889 q 354 974 354 931 l 376 974 q 344 901 376 935 q 251 867 313 867 m 228 992 l 343 1096 l 375 1096 l 249 992 l 228 992 z "},"Ặ":{"ha":507,"x_min":35,"x_max":472,"o":"m 35 0 l 244 821 l 263 821 l 472 0 l 449 0 l 393 222 l 113 222 l 58 0 l 35 0 m 118 244 l 388 244 l 260 739 l 254 763 l 249 739 l 118 244 m 254 -111 q 235 -92 235 -111 q 254 -72 235 -72 q 274 -92 274 -72 q 254 -111 274 -111 m 247 867 q 164 901 188 867 q 140 974 140 935 l 163 974 q 189 908 164 928 q 249 889 214 889 q 317 910 285 889 q 350 974 350 931 l 372 974 q 340 901 372 935 q 247 867 308 867 z "},"Ằ":{"ha":507,"x_min":35,"x_max":472,"o":"m 35 0 l 244 821 l 263 821 l 472 0 l 449 0 l 393 222 l 113 222 l 58 0 l 35 0 m 118 244 l 388 244 l 260 739 l 254 763 l 249 739 l 118 244 m 251 867 q 168 901 192 867 q 144 974 144 935 l 167 974 q 193 908 168 928 q 253 889 218 889 q 322 910 289 889 q 354 974 354 931 l 376 974 q 344 901 376 935 q 251 867 313 867 m 285 992 l 158 1096 l 190 1096 l 306 992 l 285 992 z "},"Ẳ":{"ha":507,"x_min":35,"x_max":472,"o":"m 35 0 l 244 821 l 263 821 l 472 0 l 449 0 l 393 222 l 113 222 l 58 0 l 35 0 m 118 244 l 388 244 l 260 739 l 254 763 l 249 739 l 118 244 m 251 867 q 168 901 192 867 q 144 974 144 935 l 167 974 q 193 908 168 928 q 253 889 218 889 q 322 910 289 889 q 354 974 354 931 l 376 974 q 344 901 376 935 q 251 867 313 867 m 243 974 l 243 982 q 259 1018 243 1007 q 291 1040 275 1029 q 307 1069 307 1050 l 307 1074 q 299 1094 307 1085 q 267 1104 292 1104 q 217 1074 225 1104 l 199 1081 q 267 1124 208 1124 q 328 1075 328 1124 l 328 1069 q 312 1031 328 1044 q 280 1009 296 1018 q 264 985 264 1000 l 264 974 l 243 974 z "},"Ẵ":{"ha":507,"x_min":35,"x_max":472,"o":"m 35 0 l 244 821 l 263 821 l 472 0 l 449 0 l 393 222 l 113 222 l 58 0 l 35 0 m 118 244 l 388 244 l 260 739 l 254 763 l 249 739 l 118 244 m 251 867 q 168 901 192 867 q 144 974 144 935 l 167 974 q 193 908 168 928 q 253 889 218 889 q 322 910 289 889 q 354 974 354 931 l 376 974 q 344 901 376 935 q 251 867 313 867 m 313 988 q 271 998 289 988 q 237 1019 253 1008 q 201 1029 221 1029 q 177 1023 189 1029 q 163 993 165 1017 l 142 993 q 160 1033 144 1017 q 201 1050 175 1050 q 242 1040 225 1050 q 274 1019 258 1029 q 313 1008 290 1008 q 339 1015 326 1008 q 354 1046 351 1022 l 375 1046 q 355 1003 371 1019 q 313 988 339 988 z "},"Ǎ":{"ha":507,"x_min":35,"x_max":472,"o":"m 35 0 l 244 821 l 263 821 l 472 0 l 449 0 l 393 222 l 113 222 l 58 0 l 35 0 m 118 244 l 388 244 l 260 739 l 254 763 l 249 739 l 118 244 m 242 849 l 126 968 l 151 968 l 251 868 l 347 968 l 375 968 l 263 849 l 242 849 z "},"Â":{"ha":507,"x_min":35,"x_max":472,"o":"m 35 0 l 244 821 l 263 821 l 472 0 l 449 0 l 393 222 l 113 222 l 58 0 l 35 0 m 118 244 l 388 244 l 260 739 l 254 763 l 249 739 l 118 244 m 129 867 l 244 986 l 265 986 l 378 867 l 350 867 l 254 967 l 154 867 l 129 867 z "},"Ấ":{"ha":507,"x_min":35,"x_max":510,"o":"m 35 0 l 244 821 l 263 821 l 472 0 l 449 0 l 393 222 l 113 222 l 58 0 l 35 0 m 118 244 l 388 244 l 260 739 l 254 763 l 249 739 l 118 244 m 136 867 l 251 986 l 272 986 l 385 867 l 357 867 l 261 967 l 161 867 l 136 867 m 363 975 l 478 1079 l 510 1079 l 383 975 l 363 975 z "},"Ậ":{"ha":507,"x_min":35,"x_max":472,"o":"m 35 0 l 244 821 l 263 821 l 472 0 l 449 0 l 393 222 l 113 222 l 58 0 l 35 0 m 118 244 l 388 244 l 260 739 l 254 763 l 249 739 l 118 244 m 254 -111 q 235 -92 235 -111 q 254 -72 235 -72 q 274 -92 274 -72 q 254 -111 274 -111 m 129 867 l 244 986 l 265 986 l 378 867 l 350 867 l 254 967 l 154 867 l 129 867 z "},"Ầ":{"ha":507,"x_min":35,"x_max":472,"o":"m 35 0 l 244 821 l 263 821 l 472 0 l 449 0 l 393 222 l 113 222 l 58 0 l 35 0 m 118 244 l 388 244 l 260 739 l 254 763 l 249 739 l 118 244 m 136 867 l 251 986 l 272 986 l 385 867 l 357 867 l 261 967 l 161 867 l 136 867 m 381 981 l 254 1085 l 286 1085 l 401 981 l 381 981 z "},"Ẩ":{"ha":507,"x_min":35,"x_max":472,"o":"m 35 0 l 244 821 l 263 821 l 472 0 l 449 0 l 393 222 l 113 222 l 58 0 l 35 0 m 118 244 l 388 244 l 260 739 l 254 763 l 249 739 l 118 244 m 136 867 l 251 986 l 272 986 l 385 867 l 357 867 l 261 967 l 161 867 l 136 867 m 378 949 l 378 957 q 394 993 378 982 q 426 1015 410 1004 q 442 1044 442 1025 l 442 1049 q 434 1069 442 1060 q 401 1079 426 1079 q 351 1049 360 1079 l 333 1056 q 401 1099 343 1099 q 463 1050 463 1099 l 463 1044 q 447 1006 463 1019 q 415 984 431 993 q 399 960 399 975 l 399 949 l 378 949 z "},"Ẫ":{"ha":507,"x_min":35,"x_max":472,"o":"m 35 0 l 244 821 l 263 821 l 472 0 l 449 0 l 393 222 l 113 222 l 58 0 l 35 0 m 118 244 l 388 244 l 260 739 l 254 763 l 249 739 l 118 244 m 136 867 l 251 986 l 272 986 l 385 867 l 357 867 l 261 967 l 161 867 l 136 867 m 324 1017 q 282 1027 300 1017 q 248 1048 264 1038 q 213 1058 232 1058 q 188 1052 200 1058 q 174 1022 176 1046 l 153 1022 q 171 1063 156 1046 q 213 1079 186 1079 q 253 1069 236 1079 q 285 1048 269 1058 q 324 1038 301 1038 q 350 1044 338 1038 q 365 1075 363 1051 l 386 1075 q 366 1033 382 1049 q 324 1017 350 1017 z "},"Ȁ":{"ha":507,"x_min":35,"x_max":472,"o":"m 35 0 l 244 821 l 263 821 l 472 0 l 449 0 l 393 222 l 113 222 l 58 0 l 35 0 m 118 244 l 388 244 l 260 739 l 254 763 l 249 739 l 118 244 m 296 890 l 197 1010 l 225 1010 l 317 890 l 296 890 m 243 889 l 144 1008 l 172 1008 l 264 889 l 243 889 z "},"Ä":{"ha":507,"x_min":35,"x_max":472,"o":"m 35 0 l 244 821 l 263 821 l 472 0 l 449 0 l 393 222 l 113 222 l 58 0 l 35 0 m 118 244 l 388 244 l 260 739 l 254 763 l 249 739 l 118 244 m 307 893 q 288 913 288 893 q 307 932 288 932 q 326 913 326 932 q 307 893 326 893 m 200 893 q 181 913 181 893 q 200 932 181 932 q 219 913 219 932 q 200 893 219 893 z "},"Ạ":{"ha":507,"x_min":35,"x_max":472,"o":"m 35 0 l 244 821 l 263 821 l 472 0 l 449 0 l 393 222 l 113 222 l 58 0 l 35 0 m 118 244 l 388 244 l 260 739 l 254 763 l 249 739 l 118 244 m 254 -111 q 235 -92 235 -111 q 254 -72 235 -72 q 274 -92 274 -72 q 254 -111 274 -111 z "},"À":{"ha":507,"x_min":35,"x_max":472,"o":"m 35 0 l 244 821 l 263 821 l 472 0 l 449 0 l 393 222 l 113 222 l 58 0 l 35 0 m 118 244 l 388 244 l 260 739 l 254 763 l 249 739 l 118 244 m 281 879 l 154 983 l 186 983 l 301 879 l 281 879 z "},"Ả":{"ha":507,"x_min":35,"x_max":472,"o":"m 35 0 l 244 821 l 263 821 l 472 0 l 449 0 l 393 222 l 113 222 l 58 0 l 35 0 m 118 244 l 388 244 l 260 739 l 254 763 l 249 739 l 118 244 m 239 861 l 239 869 q 255 906 239 894 q 287 927 271 917 q 303 957 303 938 l 303 961 q 295 982 303 972 q 263 992 288 992 q 213 961 221 992 l 194 968 q 263 1011 204 1011 q 324 963 324 1011 l 324 957 q 308 919 324 932 q 276 897 292 906 q 260 872 260 888 l 260 861 l 239 861 z "},"Ȃ":{"ha":507,"x_min":35,"x_max":472,"o":"m 35 0 l 244 821 l 263 821 l 472 0 l 449 0 l 393 222 l 113 222 l 58 0 l 35 0 m 118 244 l 388 244 l 260 739 l 254 763 l 249 739 l 118 244 m 131 893 q 163 967 131 933 q 256 1000 194 1000 q 340 966 317 1000 q 363 893 363 932 l 340 893 q 315 958 339 939 q 254 978 290 978 q 185 957 218 978 q 153 893 153 936 l 131 893 z "},"Ā":{"ha":507,"x_min":35,"x_max":472,"o":"m 35 0 l 244 821 l 263 821 l 472 0 l 449 0 l 393 222 l 113 222 l 58 0 l 35 0 m 118 244 l 388 244 l 260 739 l 254 763 l 249 739 l 118 244 m 138 906 l 138 928 l 368 928 l 368 906 l 138 906 z "},"Ą":{"ha":507,"x_min":35,"x_max":514,"o":"m 35 0 l 244 821 l 263 821 l 472 0 l 449 0 l 393 222 l 113 222 l 58 0 l 35 0 m 118 244 l 388 244 l 260 739 l 254 763 l 249 739 l 118 244 m 458 -179 q 398 -159 421 -179 q 375 -104 375 -139 q 400 -40 375 -68 q 450 0 425 -12 l 472 0 q 422 -46 446 -17 q 397 -104 397 -75 q 415 -143 397 -128 q 458 -158 432 -158 q 506 -147 483 -158 l 514 -164 q 487 -176 501 -172 q 458 -179 472 -179 z "},"Å":{"ha":507,"x_min":35,"x_max":472,"o":"m 35 0 l 244 821 l 263 821 l 472 0 l 449 0 l 393 222 l 113 222 l 58 0 l 35 0 m 118 244 l 388 244 l 260 739 l 254 763 l 249 739 l 118 244 m 254 860 q 200 881 222 860 q 178 933 178 903 q 200 985 178 964 q 253 1007 222 1007 q 306 985 285 1007 q 328 933 328 964 q 307 881 328 903 q 254 860 286 860 m 253 882 q 290 897 275 882 q 306 933 306 911 q 290 971 306 957 q 253 985 275 985 q 215 971 231 985 q 200 933 200 957 q 215 897 200 911 q 253 882 231 882 z "},"Ǻ":{"ha":507,"x_min":35,"x_max":472,"o":"m 35 0 l 244 821 l 263 821 l 472 0 l 449 0 l 393 222 l 113 222 l 58 0 l 35 0 m 118 244 l 388 244 l 260 739 l 254 763 l 249 739 l 118 244 m 254 886 q 200 908 222 886 q 178 960 178 929 q 200 1012 178 990 q 253 1033 222 1033 q 299 1018 279 1033 l 381 1125 l 408 1125 l 311 1007 q 328 960 328 986 q 307 908 328 929 q 254 886 286 886 m 253 908 q 290 923 275 908 q 306 960 306 938 q 290 997 306 983 q 253 1011 275 1011 q 215 997 231 1011 q 200 960 200 983 q 215 923 200 938 q 253 908 231 908 z "},"Ã":{"ha":507,"x_min":35,"x_max":472,"o":"m 35 0 l 244 821 l 263 821 l 472 0 l 449 0 l 393 222 l 113 222 l 58 0 l 35 0 m 118 244 l 388 244 l 260 739 l 254 763 l 249 739 l 118 244 m 308 875 q 267 885 285 875 q 233 906 249 896 q 197 917 217 917 q 173 910 185 917 q 158 881 161 904 l 138 881 q 156 921 140 904 q 197 938 171 938 q 238 927 221 938 q 270 906 254 917 q 308 896 286 896 q 335 903 322 896 q 350 933 347 910 l 371 933 q 351 891 367 907 q 308 875 335 875 z "},"B":{"ha":575,"x_min":106,"x_max":490,"o":"m 106 0 l 106 821 l 332 821 q 440 791 396 821 q 483 686 483 761 l 483 582 q 450 483 483 524 q 358 433 417 443 q 456 393 421 433 q 490 290 490 353 l 490 167 q 469 59 490 94 q 409 12 447 24 q 319 0 371 0 l 106 0 m 128 443 l 303 443 q 421 481 381 443 q 461 583 461 518 l 461 689 q 424 771 461 743 q 332 799 388 799 l 128 799 l 128 443 m 128 22 l 315 22 q 398 33 364 22 q 450 76 432 43 q 468 174 468 108 l 468 297 q 422 396 468 371 q 310 421 376 421 l 128 421 l 128 22 z "},"Б":{"ha":525,"x_min":106,"x_max":440,"o":"m 106 0 l 106 821 l 440 821 l 440 799 l 128 799 l 128 604 l 272 604 q 365 588 331 604 q 414 545 399 572 q 433 486 429 518 q 438 422 438 454 l 438 182 q 429 97 438 139 q 386 28 421 56 q 272 0 351 0 l 106 0 m 128 22 l 272 22 q 370 48 340 22 q 408 114 400 74 q 415 194 415 154 l 415 410 q 408 491 415 451 q 370 556 400 531 q 272 582 340 582 l 128 582 l 128 22 z "},"C":{"ha":561,"x_min":93,"x_max":472,"o":"m 281 -17 q 185 -5 228 -17 q 118 46 143 7 q 93 164 93 85 l 93 651 q 118 770 93 732 q 187 820 143 808 q 283 832 231 832 q 380 819 338 832 q 447 769 422 807 q 472 651 472 731 l 472 529 l 450 529 l 450 657 q 428 756 450 724 q 369 799 407 789 q 282 810 332 810 q 193 798 231 810 q 135 752 156 786 q 115 649 115 718 l 115 161 q 138 61 115 94 q 199 17 161 28 q 282 6 238 6 q 369 17 331 6 q 428 61 407 28 q 450 161 450 94 l 450 263 l 472 263 l 472 164 q 447 45 472 83 q 379 -5 422 7 q 281 -17 336 -17 z "},"Ć":{"ha":561,"x_min":93,"x_max":472,"o":"m 281 -17 q 185 -5 228 -17 q 118 46 143 7 q 93 164 93 85 l 93 651 q 118 770 93 732 q 187 820 143 808 q 283 832 231 832 q 380 819 338 832 q 447 769 422 807 q 472 651 472 731 l 472 529 l 450 529 l 450 657 q 428 756 450 724 q 369 799 407 789 q 282 810 332 810 q 193 798 231 810 q 135 752 156 786 q 115 649 115 718 l 115 161 q 138 61 115 94 q 199 17 161 28 q 282 6 238 6 q 369 17 331 6 q 428 61 407 28 q 450 161 450 94 l 450 263 l 472 263 l 472 164 q 447 45 472 83 q 379 -5 422 7 q 281 -17 336 -17 m 254 879 l 369 983 l 401 983 l 275 879 l 254 879 z "},"Č":{"ha":561,"x_min":93,"x_max":472,"o":"m 281 -17 q 185 -5 228 -17 q 118 46 143 7 q 93 164 93 85 l 93 651 q 118 770 93 732 q 187 820 143 808 q 283 832 231 832 q 380 819 338 832 q 447 769 422 807 q 472 651 472 731 l 472 529 l 450 529 l 450 657 q 428 756 450 724 q 369 799 407 789 q 282 810 332 810 q 193 798 231 810 q 135 752 156 786 q 115 649 115 718 l 115 161 q 138 61 115 94 q 199 17 161 28 q 282 6 238 6 q 369 17 331 6 q 428 61 407 28 q 450 161 450 94 l 450 263 l 472 263 l 472 164 q 447 45 472 83 q 379 -5 422 7 q 281 -17 336 -17 m 272 849 l 157 968 l 182 968 l 282 868 l 378 968 l 406 968 l 293 849 l 272 849 z "},"Ç":{"ha":561,"x_min":93,"x_max":472,"o":"m 281 -17 q 185 -5 228 -17 q 118 46 143 7 q 93 164 93 85 l 93 651 q 118 770 93 732 q 187 820 143 808 q 283 832 231 832 q 380 819 338 832 q 447 769 422 807 q 472 651 472 731 l 472 529 l 450 529 l 450 657 q 428 756 450 724 q 369 799 407 789 q 282 810 332 810 q 193 798 231 810 q 135 752 156 786 q 115 649 115 718 l 115 161 q 138 61 115 94 q 199 17 161 28 q 282 6 238 6 q 369 17 331 6 q 428 61 407 28 q 450 161 450 94 l 450 263 l 472 263 l 472 164 q 447 45 472 83 q 379 -5 422 7 q 281 -17 336 -17 m 283 -199 q 249 -193 263 -199 q 224 -182 235 -187 l 235 -162 q 283 -178 253 -178 q 343 -132 343 -178 q 296 -92 343 -92 q 242 -106 260 -92 l 231 -92 l 278 -12 l 296 -12 l 265 -72 q 279 -70 268 -71 q 297 -69 290 -69 q 349 -87 332 -69 q 365 -129 365 -106 q 344 -176 365 -154 q 283 -199 324 -199 z "},"Ĉ":{"ha":561,"x_min":93,"x_max":472,"o":"m 281 -17 q 185 -5 228 -17 q 118 46 143 7 q 93 164 93 85 l 93 651 q 118 770 93 732 q 187 820 143 808 q 283 832 231 832 q 380 819 338 832 q 447 769 422 807 q 472 651 472 731 l 472 529 l 450 529 l 450 657 q 428 756 450 724 q 369 799 407 789 q 282 810 332 810 q 193 798 231 810 q 135 752 156 786 q 115 649 115 718 l 115 161 q 138 61 115 94 q 199 17 161 28 q 282 6 238 6 q 369 17 331 6 q 428 61 407 28 q 450 161 450 94 l 450 263 l 472 263 l 472 164 q 447 45 472 83 q 379 -5 422 7 q 281 -17 336 -17 m 160 867 l 275 986 l 296 986 l 408 867 l 381 867 l 285 967 l 185 867 l 160 867 z "},"Ċ":{"ha":561,"x_min":93,"x_max":472,"o":"m 281 -17 q 185 -5 228 -17 q 118 46 143 7 q 93 164 93 85 l 93 651 q 118 770 93 732 q 187 820 143 808 q 283 832 231 832 q 380 819 338 832 q 447 769 422 807 q 472 651 472 731 l 472 529 l 450 529 l 450 657 q 428 756 450 724 q 369 799 407 789 q 282 810 332 810 q 193 798 231 810 q 135 752 156 786 q 115 649 115 718 l 115 161 q 138 61 115 94 q 199 17 161 28 q 282 6 238 6 q 369 17 331 6 q 428 61 407 28 q 450 161 450 94 l 450 263 l 472 263 l 472 164 q 447 45 472 83 q 379 -5 422 7 q 281 -17 336 -17 m 283 889 q 264 908 264 889 q 283 928 264 928 q 303 908 303 928 q 283 889 303 889 z "},"Ч":{"ha":550,"x_min":106,"x_max":444,"o":"m 422 0 l 422 263 q 372 206 407 231 q 271 182 336 182 q 178 198 213 182 q 129 241 144 214 q 110 300 114 268 q 106 364 106 332 l 106 821 l 128 821 l 128 376 q 135 296 128 336 q 172 230 142 256 q 271 204 201 204 q 382 242 347 204 q 422 340 417 281 l 422 821 l 444 821 l 444 0 l 422 0 z "},"D":{"ha":589,"x_min":106,"x_max":496,"o":"m 106 0 l 106 821 l 322 821 q 411 806 372 821 q 473 753 450 792 q 496 640 496 714 l 496 181 q 474 69 496 108 q 414 15 453 29 q 322 0 375 0 l 106 0 m 128 22 l 322 22 q 433 55 393 22 q 474 188 474 88 l 474 632 q 434 763 474 726 q 322 800 394 800 l 128 800 l 128 22 z "},"Ǆ":{"ha":964,"x_min":106,"x_max":931,"o":"m 106 0 l 106 821 l 322 821 q 411 806 372 821 q 473 753 450 792 q 496 640 496 714 l 496 181 q 474 69 496 108 q 414 15 453 29 q 322 0 375 0 l 106 0 m 128 22 l 322 22 q 433 55 393 22 q 474 188 474 88 l 474 632 q 434 763 474 726 q 322 800 394 800 l 128 800 l 128 22 m 621 0 l 621 14 l 900 801 l 642 799 l 642 821 l 922 821 l 922 801 l 647 22 l 931 22 l 931 0 l 621 0 m 769 849 l 654 968 l 679 968 l 779 868 l 875 968 l 903 968 l 790 849 l 769 849 z "},"Ď":{"ha":589,"x_min":106,"x_max":496,"o":"m 106 0 l 106 821 l 322 821 q 411 806 372 821 q 473 753 450 792 q 496 640 496 714 l 496 181 q 474 69 496 108 q 414 15 453 29 q 322 0 375 0 l 106 0 m 128 22 l 322 22 q 433 55 393 22 q 474 188 474 88 l 474 632 q 434 763 474 726 q 322 800 394 800 l 128 800 l 128 22 m 258 849 l 143 968 l 168 968 l 268 868 l 364 968 l 392 968 l 279 849 l 258 849 z "},"Đ":{"ha":589,"x_min":47,"x_max":496,"o":"m 106 0 l 106 821 l 322 821 q 411 806 372 821 q 473 753 450 792 q 496 640 496 714 l 496 181 q 474 69 496 108 q 414 15 453 29 q 322 0 375 0 l 106 0 m 128 22 l 322 22 q 433 55 393 22 q 474 188 474 88 l 474 632 q 434 763 474 726 q 322 800 394 800 l 128 800 l 128 22 m 47 401 l 47 422 l 285 422 l 285 401 l 47 401 z "},"Д":{"ha":615,"x_min":22,"x_max":597,"o":"m 22 -137 l 22 15 l 92 15 q 142 46 126 18 q 161 128 157 74 l 211 821 l 492 821 l 492 15 l 597 15 l 597 -137 l 575 -137 l 575 -7 l 44 -7 l 44 -137 l 22 -137 m 144 15 l 469 15 l 469 799 l 232 799 l 183 128 q 181 98 183 119 q 169 53 178 76 q 144 15 161 31 z "},"Ђ":{"ha":601,"x_min":15,"x_max":508,"o":"m 169 0 l 169 799 l 15 799 l 15 821 l 347 821 l 347 799 l 192 799 l 192 526 q 242 583 207 558 q 343 607 278 607 q 435 591 401 607 q 485 548 469 575 q 504 489 500 521 q 508 425 508 457 l 508 203 q 495 88 508 133 q 442 22 482 43 q 319 0 401 0 l 319 22 q 426 41 390 22 q 474 99 461 60 q 486 197 486 138 l 486 413 q 479 494 486 454 q 442 559 472 533 q 343 585 413 585 q 232 547 267 585 q 192 449 197 508 l 192 0 l 169 0 z "},"ǅ":{"ha":932,"x_min":106,"x_max":901,"o":"m 106 0 l 106 821 l 322 821 q 411 806 372 821 q 473 753 450 792 q 496 640 496 714 l 496 181 q 474 69 496 108 q 414 15 453 29 q 322 0 375 0 l 106 0 m 128 22 l 322 22 q 433 55 393 22 q 474 188 474 88 l 474 632 q 434 763 474 726 q 322 800 394 800 l 128 800 l 128 22 m 617 0 l 617 10 l 872 665 l 633 665 l 633 688 l 901 688 l 901 671 l 646 22 l 901 22 l 901 0 l 617 0 m 765 749 l 650 868 l 675 868 l 775 768 l 871 868 l 899 868 l 786 749 l 765 749 z "},"Ѕ":{"ha":481,"x_min":56,"x_max":425,"o":"m 232 -12 q 139 9 179 -12 q 77 83 99 31 q 56 226 56 136 l 56 243 l 78 243 l 78 226 q 98 96 78 143 q 153 29 118 49 q 232 10 188 10 q 354 52 306 10 q 403 203 403 94 q 378 313 403 275 q 313 372 354 351 q 224 411 272 393 q 137 455 174 431 q 80 518 100 479 q 60 622 60 557 q 101 771 60 715 q 238 826 142 826 q 369 781 321 826 q 418 651 418 735 l 418 596 l 396 596 l 396 646 q 354 763 396 721 q 238 804 313 804 q 117 752 151 804 q 82 622 82 700 q 103 522 82 558 q 160 467 125 486 q 236 431 196 447 q 344 379 303 404 q 406 315 386 354 q 425 203 425 275 q 399 76 425 124 q 330 8 374 29 q 232 -12 286 -12 z "},"Џ":{"ha":551,"x_min":106,"x_max":446,"o":"m 265 -137 l 265 0 l 106 0 l 106 821 l 125 821 l 125 22 l 426 22 l 426 821 l 446 821 l 446 0 l 286 0 l 286 -137 l 265 -137 z "},"E":{"ha":481,"x_min":106,"x_max":446,"o":"m 106 0 l 106 821 l 446 821 l 446 799 l 128 799 l 128 443 l 375 443 l 375 421 l 128 421 l 128 22 l 446 22 l 446 0 l 106 0 z "},"Є":{"ha":567,"x_min":93,"x_max":478,"o":"m 286 -17 q 187 -5 231 -17 q 118 46 143 7 q 93 164 93 85 l 93 651 q 119 770 93 732 q 189 820 144 808 q 289 832 233 832 q 385 819 343 832 q 453 769 428 807 q 478 651 478 731 l 478 529 l 456 529 l 456 657 q 434 760 456 728 q 375 802 413 793 q 288 811 338 811 q 197 801 236 811 q 137 756 158 790 q 115 649 115 722 l 115 428 l 354 428 l 354 406 l 115 406 l 115 161 q 138 56 115 89 q 201 13 161 22 q 288 3 240 3 q 372 13 333 3 q 433 56 410 22 q 456 161 456 89 l 456 263 l 478 263 l 478 164 q 453 45 478 83 q 385 -5 428 7 q 286 -17 342 -17 z "},"É":{"ha":481,"x_min":106,"x_max":446,"o":"m 106 0 l 106 821 l 446 821 l 446 799 l 128 799 l 128 443 l 375 443 l 375 421 l 128 421 l 128 22 l 446 22 l 446 0 l 106 0 m 246 879 l 361 983 l 393 983 l 267 879 l 246 879 z "},"Ĕ":{"ha":481,"x_min":106,"x_max":446,"o":"m 106 0 l 106 821 l 446 821 l 446 799 l 128 799 l 128 443 l 375 443 l 375 421 l 128 421 l 128 22 l 446 22 l 446 0 l 106 0 m 269 867 q 186 901 210 867 q 163 974 163 935 l 185 974 q 211 908 186 928 q 271 889 236 889 q 340 910 307 889 q 372 974 372 931 l 394 974 q 363 901 394 935 q 269 867 331 867 z "},"Ě":{"ha":481,"x_min":106,"x_max":446,"o":"m 106 0 l 106 821 l 446 821 l 446 799 l 128 799 l 128 443 l 375 443 l 375 421 l 128 421 l 128 22 l 446 22 l 446 0 l 106 0 m 264 849 l 149 968 l 174 968 l 274 868 l 369 968 l 397 968 l 285 849 l 264 849 z "},"Ê":{"ha":481,"x_min":106,"x_max":446,"o":"m 106 0 l 106 821 l 446 821 l 446 799 l 128 799 l 128 443 l 375 443 l 375 421 l 128 421 l 128 22 l 446 22 l 446 0 l 106 0 m 151 867 l 267 986 l 288 986 l 400 867 l 372 867 l 276 967 l 176 867 l 151 867 z "},"Ế":{"ha":481,"x_min":106,"x_max":532,"o":"m 106 0 l 106 821 l 446 821 l 446 799 l 128 799 l 128 443 l 375 443 l 375 421 l 128 421 l 128 22 l 446 22 l 446 0 l 106 0 m 158 867 l 274 986 l 294 986 l 407 867 l 379 867 l 283 967 l 183 867 l 158 867 m 385 975 l 500 1079 l 532 1079 l 406 975 l 385 975 z "},"Ệ":{"ha":481,"x_min":106,"x_max":446,"o":"m 106 0 l 106 821 l 446 821 l 446 799 l 128 799 l 128 443 l 375 443 l 375 421 l 128 421 l 128 22 l 446 22 l 446 0 l 106 0 m 275 -111 q 256 -92 256 -111 q 275 -72 256 -72 q 294 -92 294 -72 q 275 -111 294 -111 m 151 867 l 267 986 l 288 986 l 400 867 l 372 867 l 276 967 l 176 867 l 151 867 z "},"Ề":{"ha":481,"x_min":106,"x_max":446,"o":"m 106 0 l 106 821 l 446 821 l 446 799 l 128 799 l 128 443 l 375 443 l 375 421 l 128 421 l 128 22 l 446 22 l 446 0 l 106 0 m 158 867 l 274 986 l 294 986 l 407 867 l 379 867 l 283 967 l 183 867 l 158 867 m 403 981 l 276 1085 l 308 1085 l 424 981 l 403 981 z "},"Ể":{"ha":481,"x_min":106,"x_max":485,"o":"m 106 0 l 106 821 l 446 821 l 446 799 l 128 799 l 128 443 l 375 443 l 375 421 l 128 421 l 128 22 l 446 22 l 446 0 l 106 0 m 158 867 l 274 986 l 294 986 l 407 867 l 379 867 l 283 967 l 183 867 l 158 867 m 400 949 l 400 957 q 416 993 400 982 q 448 1015 432 1004 q 464 1044 464 1025 l 464 1049 q 456 1069 464 1060 q 424 1079 449 1079 q 374 1049 382 1079 l 356 1056 q 424 1099 365 1099 q 485 1050 485 1099 l 485 1044 q 469 1006 485 1019 q 437 984 453 993 q 421 960 421 975 l 421 949 l 400 949 z "},"Ễ":{"ha":481,"x_min":106,"x_max":446,"o":"m 106 0 l 106 821 l 446 821 l 446 799 l 128 799 l 128 443 l 375 443 l 375 421 l 128 421 l 128 22 l 446 22 l 446 0 l 106 0 m 158 867 l 274 986 l 294 986 l 407 867 l 379 867 l 283 967 l 183 867 l 158 867 m 346 1017 q 304 1027 322 1017 q 270 1048 286 1038 q 235 1058 254 1058 q 210 1052 222 1058 q 196 1022 199 1046 l 175 1022 q 193 1063 178 1046 q 235 1079 208 1079 q 275 1069 258 1079 q 308 1048 292 1058 q 346 1038 324 1038 q 372 1044 360 1038 q 388 1075 385 1051 l 408 1075 q 388 1033 404 1049 q 346 1017 372 1017 z "},"Ȅ":{"ha":481,"x_min":106,"x_max":446,"o":"m 106 0 l 106 821 l 446 821 l 446 799 l 128 799 l 128 443 l 375 443 l 375 421 l 128 421 l 128 22 l 446 22 l 446 0 l 106 0 m 318 890 l 219 1010 l 247 1010 l 339 890 l 318 890 m 265 889 l 167 1008 l 194 1008 l 286 889 l 265 889 z "},"Ë":{"ha":481,"x_min":106,"x_max":446,"o":"m 106 0 l 106 821 l 446 821 l 446 799 l 128 799 l 128 443 l 375 443 l 375 421 l 128 421 l 128 22 l 446 22 l 446 0 l 106 0 m 329 893 q 310 913 310 893 q 329 932 310 932 q 349 913 349 932 q 329 893 349 893 m 222 893 q 203 913 203 893 q 222 932 203 932 q 242 913 242 932 q 222 893 242 893 z "},"Ė":{"ha":481,"x_min":106,"x_max":446,"o":"m 106 0 l 106 821 l 446 821 l 446 799 l 128 799 l 128 443 l 375 443 l 375 421 l 128 421 l 128 22 l 446 22 l 446 0 l 106 0 m 275 889 q 256 908 256 889 q 275 928 256 928 q 294 908 294 928 q 275 889 294 889 z "},"Ẹ":{"ha":481,"x_min":106,"x_max":446,"o":"m 106 0 l 106 821 l 446 821 l 446 799 l 128 799 l 128 443 l 375 443 l 375 421 l 128 421 l 128 22 l 446 22 l 446 0 l 106 0 m 275 -111 q 256 -92 256 -111 q 275 -72 256 -72 q 294 -92 294 -72 q 275 -111 294 -111 z "},"Ф":{"ha":615,"x_min":93,"x_max":522,"o":"m 297 0 l 297 82 l 281 82 q 185 94 228 82 q 118 145 143 107 q 93 263 93 183 l 93 560 q 118 678 93 640 q 186 728 143 717 q 282 740 229 740 l 297 740 l 297 821 l 319 821 l 319 740 l 333 740 q 430 728 388 740 q 497 677 472 715 q 522 560 522 639 l 522 263 q 498 144 522 182 q 431 94 474 106 q 332 82 388 82 l 319 82 l 319 0 l 297 0 m 279 103 l 297 103 l 297 719 l 282 719 q 199 710 238 719 q 138 669 161 701 q 115 564 115 636 l 115 258 q 137 154 115 188 q 195 112 158 121 q 279 103 232 103 m 319 103 l 332 103 q 419 112 381 103 q 478 153 457 121 q 500 258 500 186 l 500 564 q 476 669 500 636 q 415 710 453 701 q 333 719 378 719 l 319 719 l 319 103 z "},"È":{"ha":481,"x_min":106,"x_max":446,"o":"m 106 0 l 106 821 l 446 821 l 446 799 l 128 799 l 128 443 l 375 443 l 375 421 l 128 421 l 128 22 l 446 22 l 446 0 l 106 0 m 303 879 l 176 983 l 208 983 l 324 879 l 303 879 z "},"Ẻ":{"ha":481,"x_min":106,"x_max":446,"o":"m 106 0 l 106 821 l 446 821 l 446 799 l 128 799 l 128 443 l 375 443 l 375 421 l 128 421 l 128 22 l 446 22 l 446 0 l 106 0 m 261 861 l 261 869 q 277 906 261 894 q 309 927 293 917 q 325 957 325 938 l 325 961 q 317 982 325 972 q 285 992 310 992 q 235 961 243 992 l 217 968 q 285 1011 226 1011 q 346 963 346 1011 l 346 957 q 330 919 346 932 q 298 897 314 906 q 282 872 282 888 l 282 861 l 261 861 z "},"Ȇ":{"ha":481,"x_min":106,"x_max":446,"o":"m 106 0 l 106 821 l 446 821 l 446 799 l 128 799 l 128 443 l 375 443 l 375 421 l 128 421 l 128 22 l 446 22 l 446 0 l 106 0 m 153 893 q 185 967 153 933 q 278 1000 217 1000 q 362 966 339 1000 q 385 893 385 932 l 363 893 q 337 958 361 939 q 276 978 313 978 q 208 957 240 978 q 175 893 175 936 l 153 893 z "},"Л":{"ha":576,"x_min":76,"x_max":471,"o":"m 76 0 l 76 22 q 139 128 131 22 l 188 821 l 471 821 l 471 1 l 449 1 l 449 799 l 210 799 l 161 128 q 158 99 161 119 q 147 56 156 79 q 122 17 139 33 q 76 0 106 0 z "},"М":{"ha":731,"x_min":106,"x_max":625,"o":"m 106 0 l 106 821 l 129 821 l 365 44 l 603 821 l 625 821 l 625 0 l 603 0 l 603 746 l 375 0 l 356 0 l 128 746 l 128 0 l 106 0 z "},"Ē":{"ha":481,"x_min":106,"x_max":446,"o":"m 106 0 l 106 821 l 446 821 l 446 799 l 128 799 l 128 443 l 375 443 l 375 421 l 128 421 l 128 22 l 446 22 l 446 0 l 106 0 m 160 906 l 160 928 l 390 928 l 390 906 l 160 906 z "},"Н":{"ha":601,"x_min":106,"x_max":496,"o":"m 106 0 l 106 821 l 128 821 l 128 442 l 474 442 l 474 821 l 496 821 l 496 0 l 474 0 l 474 419 l 128 419 l 128 0 l 106 0 z "},"Ŋ":{"ha":601,"x_min":106,"x_max":496,"o":"m 394 -161 q 347 -159 368 -161 q 326 -157 325 -157 l 326 -135 q 359 -138 342 -136 q 396 -140 376 -140 q 457 -111 440 -140 q 474 -44 474 -82 l 474 -12 l 128 785 l 128 0 l 106 0 l 106 821 l 136 821 l 475 40 l 475 821 l 496 821 l 496 -46 q 471 -131 496 -101 q 394 -161 446 -161 z "},"Ę":{"ha":481,"x_min":106,"x_max":461,"o":"m 106 0 l 106 821 l 446 821 l 446 799 l 128 799 l 128 443 l 375 443 l 375 421 l 128 421 l 128 22 l 446 22 l 446 0 l 106 0 m 406 -179 q 345 -159 368 -179 q 322 -104 322 -139 q 347 -40 322 -68 q 397 0 372 -12 l 419 0 q 369 -46 393 -17 q 344 -104 344 -75 q 362 -143 344 -128 q 406 -158 379 -158 q 453 -147 431 -158 l 461 -164 q 434 -176 449 -172 q 406 -179 419 -179 z "},"Р":{"ha":538,"x_min":106,"x_max":489,"o":"m 106 0 l 106 821 l 317 821 q 444 792 400 821 q 489 686 489 764 l 489 581 q 472 463 489 508 q 411 397 456 418 q 282 376 367 376 l 128 376 l 128 0 l 106 0 m 128 399 l 282 399 q 398 416 358 399 q 452 473 438 433 q 467 579 467 513 l 467 654 q 435 768 467 738 q 315 799 404 799 l 128 799 l 128 399 z "},"Э":{"ha":567,"x_min":89,"x_max":474,"o":"m 281 -17 q 182 -5 225 -17 q 114 45 139 7 q 89 164 89 83 l 89 263 l 111 263 l 111 161 q 134 56 111 89 q 195 13 157 22 q 279 3 233 3 q 367 13 328 3 q 428 56 406 22 q 451 161 451 89 l 451 406 l 213 406 l 213 428 l 451 428 l 451 649 q 430 756 451 722 q 370 801 408 790 q 279 811 332 811 q 192 802 231 811 q 133 760 154 793 q 111 657 111 728 l 111 529 l 89 529 l 89 651 q 114 769 89 731 q 182 819 139 807 q 278 832 225 832 q 378 820 335 832 q 448 770 422 808 q 474 651 474 732 l 474 164 q 449 46 474 85 q 380 -5 424 7 q 281 -17 336 -17 z "},"С":{"ha":561,"x_min":93,"x_max":472,"o":"m 281 -17 q 185 -5 228 -17 q 118 46 143 7 q 93 164 93 85 l 93 651 q 118 770 93 732 q 187 820 143 808 q 283 832 231 832 q 380 819 338 832 q 447 769 422 807 q 472 651 472 731 l 472 529 l 450 529 l 450 657 q 428 756 450 724 q 369 799 407 789 q 282 810 332 810 q 193 798 231 810 q 135 752 156 786 q 115 649 115 718 l 115 161 q 138 61 115 94 q 199 17 161 28 q 282 6 238 6 q 369 17 331 6 q 428 61 407 28 q 450 161 450 94 l 450 263 l 472 263 l 472 164 q 447 45 472 83 q 379 -5 422 7 q 281 -17 336 -17 z "},"Ð":{"ha":589,"x_min":47,"x_max":496,"o":"m 106 0 l 106 821 l 322 821 q 411 806 372 821 q 473 753 450 792 q 496 640 496 714 l 496 181 q 474 69 496 108 q 414 15 453 29 q 322 0 375 0 l 106 0 m 128 22 l 322 22 q 433 55 393 22 q 474 188 474 88 l 474 632 q 434 763 474 726 q 322 800 394 800 l 128 800 l 128 22 m 47 401 l 47 422 l 285 422 l 285 401 l 47 401 z "},"Ẽ":{"ha":481,"x_min":106,"x_max":446,"o":"m 106 0 l 106 821 l 446 821 l 446 799 l 128 799 l 128 443 l 375 443 l 375 421 l 128 421 l 128 22 l 446 22 l 446 0 l 106 0 m 331 875 q 289 885 307 875 q 255 906 271 896 q 219 917 239 917 q 195 910 207 917 q 181 881 183 904 l 160 881 q 178 921 163 904 q 219 938 193 938 q 260 927 243 938 q 292 906 276 917 q 331 896 308 896 q 357 903 344 896 q 372 933 369 910 l 393 933 q 373 891 389 907 q 331 875 357 875 z "},"F":{"ha":471,"x_min":106,"x_max":446,"o":"m 106 0 l 106 821 l 446 821 l 446 799 l 128 799 l 128 443 l 375 443 l 375 421 l 128 421 l 128 0 l 106 0 z "},"G":{"ha":569,"x_min":93,"x_max":478,"o":"m 286 -17 q 190 -5 233 -17 q 119 46 146 7 q 93 164 93 85 l 93 651 q 119 770 93 732 q 191 820 146 808 q 290 832 236 832 q 388 819 346 832 q 453 769 429 807 q 478 651 478 731 l 478 557 l 456 557 l 456 650 q 436 752 456 718 q 379 798 417 786 q 288 810 342 810 q 196 798 235 810 q 136 752 157 786 q 115 650 115 718 l 115 174 q 138 64 115 100 q 201 17 161 28 q 288 6 240 6 q 407 50 358 6 q 456 174 456 94 l 456 356 l 307 356 l 307 376 l 478 376 l 478 0 l 456 0 l 456 88 q 397 17 444 50 q 286 -17 350 -17 z "},"Ğ":{"ha":569,"x_min":93,"x_max":478,"o":"m 286 -17 q 190 -5 233 -17 q 119 46 146 7 q 93 164 93 85 l 93 651 q 119 770 93 732 q 191 820 146 808 q 290 832 236 832 q 388 819 346 832 q 453 769 429 807 q 478 651 478 731 l 478 557 l 456 557 l 456 650 q 436 752 456 718 q 379 798 417 786 q 288 810 342 810 q 196 798 235 810 q 136 752 157 786 q 115 650 115 718 l 115 174 q 138 64 115 100 q 201 17 161 28 q 288 6 240 6 q 407 50 358 6 q 456 174 456 94 l 456 356 l 307 356 l 307 376 l 478 376 l 478 0 l 456 0 l 456 88 q 397 17 444 50 q 286 -17 350 -17 m 279 867 q 196 901 219 867 q 172 974 172 935 l 194 974 q 221 908 196 928 q 281 889 246 889 q 349 910 317 889 q 382 974 382 931 l 404 974 q 372 901 404 935 q 279 867 340 867 z "},"Ǧ":{"ha":569,"x_min":93,"x_max":478,"o":"m 286 -17 q 190 -5 233 -17 q 119 46 146 7 q 93 164 93 85 l 93 651 q 119 770 93 732 q 191 820 146 808 q 290 832 236 832 q 388 819 346 832 q 453 769 429 807 q 478 651 478 731 l 478 557 l 456 557 l 456 650 q 436 752 456 718 q 379 798 417 786 q 288 810 342 810 q 196 798 235 810 q 136 752 157 786 q 115 650 115 718 l 115 174 q 138 64 115 100 q 201 17 161 28 q 288 6 240 6 q 407 50 358 6 q 456 174 456 94 l 456 356 l 307 356 l 307 376 l 478 376 l 478 0 l 456 0 l 456 88 q 397 17 444 50 q 286 -17 350 -17 m 274 849 l 158 968 l 183 968 l 283 868 l 379 968 l 407 968 l 294 849 l 274 849 z "},"Ĝ":{"ha":569,"x_min":93,"x_max":478,"o":"m 286 -17 q 190 -5 233 -17 q 119 46 146 7 q 93 164 93 85 l 93 651 q 119 770 93 732 q 191 820 146 808 q 290 832 236 832 q 388 819 346 832 q 453 769 429 807 q 478 651 478 731 l 478 557 l 456 557 l 456 650 q 436 752 456 718 q 379 798 417 786 q 288 810 342 810 q 196 798 235 810 q 136 752 157 786 q 115 650 115 718 l 115 174 q 138 64 115 100 q 201 17 161 28 q 288 6 240 6 q 407 50 358 6 q 456 174 456 94 l 456 356 l 307 356 l 307 376 l 478 376 l 478 0 l 456 0 l 456 88 q 397 17 444 50 q 286 -17 350 -17 m 161 867 l 276 986 l 297 986 l 410 867 l 382 867 l 286 967 l 186 867 l 161 867 z "},"Ģ":{"ha":569,"x_min":93,"x_max":478,"o":"m 286 -17 q 190 -5 233 -17 q 119 46 146 7 q 93 164 93 85 l 93 651 q 119 770 93 732 q 191 820 146 808 q 290 832 236 832 q 388 819 346 832 q 453 769 429 807 q 478 651 478 731 l 478 557 l 456 557 l 456 650 q 436 752 456 718 q 379 798 417 786 q 288 810 342 810 q 196 798 235 810 q 136 752 157 786 q 115 650 115 718 l 115 174 q 138 64 115 100 q 201 17 161 28 q 288 6 240 6 q 407 50 358 6 q 456 174 456 94 l 456 356 l 307 356 l 307 376 l 478 376 l 478 0 l 456 0 l 456 88 q 397 17 444 50 q 286 -17 350 -17 m 251 -181 q 270 -148 258 -169 q 282 -112 282 -126 q 273 -97 282 -101 q 264 -76 264 -93 q 269 -63 264 -69 q 285 -57 275 -57 q 304 -65 299 -57 q 310 -83 310 -72 q 296 -133 310 -106 q 267 -181 282 -161 l 251 -181 z "},"Ġ":{"ha":569,"x_min":93,"x_max":478,"o":"m 286 -17 q 190 -5 233 -17 q 119 46 146 7 q 93 164 93 85 l 93 651 q 119 770 93 732 q 191 820 146 808 q 290 832 236 832 q 388 819 346 832 q 453 769 429 807 q 478 651 478 731 l 478 557 l 456 557 l 456 650 q 436 752 456 718 q 379 798 417 786 q 288 810 342 810 q 196 798 235 810 q 136 752 157 786 q 115 650 115 718 l 115 174 q 138 64 115 100 q 201 17 161 28 q 288 6 240 6 q 407 50 358 6 q 456 174 456 94 l 456 356 l 307 356 l 307 376 l 478 376 l 478 0 l 456 0 l 456 88 q 397 17 444 50 q 286 -17 350 -17 m 285 889 q 265 908 265 889 q 285 928 265 928 q 304 908 304 928 q 285 889 304 889 z "},"Г":{"ha":456,"x_min":106,"x_max":440,"o":"m 106 0 l 106 821 l 440 821 l 440 799 l 128 799 l 128 0 l 106 0 z "},"ẞ":{"ha":539,"x_min":106,"x_max":454,"o":"m 106 -82 l 106 732 q 116 784 106 764 q 163 814 126 804 q 272 824 199 824 q 395 795 350 824 q 440 692 440 767 l 440 635 q 410 518 440 560 q 336 472 381 476 q 419 432 385 467 q 454 339 454 397 l 454 165 q 433 58 454 93 q 377 11 413 22 q 296 0 342 0 l 189 0 l 189 21 l 296 21 q 368 32 338 21 q 415 75 399 43 q 432 171 432 107 l 432 328 q 410 410 432 381 q 353 450 389 439 q 276 461 318 461 l 217 461 l 217 483 l 292 483 q 418 635 418 483 l 418 682 q 383 774 418 746 q 272 801 347 801 q 167 791 197 801 q 133 763 138 781 q 128 721 128 744 l 128 -82 l 106 -82 z "},"Ѓ":{"ha":456,"x_min":106,"x_max":440,"o":"m 106 0 l 106 821 l 440 821 l 440 799 l 128 799 l 128 0 l 106 0 m 244 879 l 360 983 l 392 983 l 265 879 l 244 879 z "},"H":{"ha":601,"x_min":106,"x_max":496,"o":"m 106 0 l 106 821 l 128 821 l 128 442 l 474 442 l 474 821 l 496 821 l 496 0 l 474 0 l 474 419 l 128 419 l 128 0 l 106 0 z "},"Х":{"ha":417,"x_min":36,"x_max":381,"o":"m 36 0 l 176 414 l 51 821 l 74 821 l 196 425 l 219 425 l 357 821 l 381 821 l 239 414 l 378 0 l 353 0 l 219 403 l 197 403 l 60 0 l 36 0 z "},"Ъ":{"ha":528,"x_min":19,"x_max":446,"o":"m 108 0 l 108 799 l 19 799 l 19 821 l 129 821 l 129 604 l 281 604 q 373 588 339 604 q 422 545 407 572 q 442 486 438 518 q 446 422 446 454 l 446 182 q 438 97 446 139 q 394 28 429 56 q 281 0 360 0 l 108 0 m 129 21 l 275 21 q 378 45 347 21 q 417 108 410 69 q 425 186 425 146 l 425 418 q 417 497 425 460 q 378 559 410 535 q 275 583 347 583 l 129 583 l 129 21 z "},"Ħ":{"ha":601,"x_min":36,"x_max":565,"o":"m 106 0 l 106 626 l 36 626 l 36 647 l 106 647 l 106 821 l 128 821 l 128 647 l 474 647 l 474 821 l 496 821 l 496 647 l 565 647 l 565 626 l 496 626 l 496 0 l 474 0 l 474 419 l 128 419 l 128 0 l 106 0 m 128 442 l 474 442 l 474 626 l 128 626 l 128 442 z "},"Ĥ":{"ha":601,"x_min":106,"x_max":496,"o":"m 106 0 l 106 821 l 128 821 l 128 442 l 474 442 l 474 821 l 496 821 l 496 0 l 474 0 l 474 419 l 128 419 l 128 0 l 106 0 m 178 867 l 293 986 l 314 986 l 426 867 l 399 867 l 303 967 l 203 867 l 178 867 z "},"I":{"ha":233,"x_min":106,"x_max":128,"o":"m 106 0 l 106 821 l 128 821 l 128 0 l 106 0 z "},"І":{"ha":233,"x_min":106,"x_max":128,"o":"m 106 0 l 106 821 l 128 821 l 128 0 l 106 0 z "},"Я":{"ha":569,"x_min":53,"x_max":464,"o":"m 464 0 l 442 0 l 442 399 l 288 399 q 207 365 236 399 q 161 278 178 332 l 76 0 l 53 0 l 149 311 q 181 373 160 344 q 225 404 203 401 q 160 426 192 408 q 107 478 128 443 q 86 571 86 514 l 86 686 q 130 791 86 761 q 233 821 174 821 l 464 821 l 464 0 m 442 421 l 442 799 l 228 799 q 144 770 181 799 q 108 682 108 742 l 108 568 q 156 454 108 488 q 274 421 203 421 l 442 421 z "},"Í":{"ha":233,"x_min":89,"x_max":236,"o":"m 106 0 l 106 821 l 128 821 l 128 0 l 106 0 m 89 879 l 204 983 l 236 983 l 110 879 l 89 879 z "},"Ĭ":{"ha":233,"x_min":6,"x_max":238,"o":"m 106 0 l 106 821 l 128 821 l 128 0 l 106 0 m 113 867 q 29 901 53 867 q 6 974 6 935 l 28 974 q 54 908 29 928 q 114 889 79 889 q 183 910 150 889 q 215 974 215 931 l 238 974 q 206 901 238 935 q 113 867 174 867 z "},"Ǐ":{"ha":233,"x_min":-8,"x_max":240,"o":"m 106 0 l 106 821 l 128 821 l 128 0 l 106 0 m 107 849 l -8 968 l 17 968 l 117 868 l 213 968 l 240 968 l 128 849 l 107 849 z "},"Î":{"ha":233,"x_min":-6,"x_max":243,"o":"m 106 0 l 106 821 l 128 821 l 128 0 l 106 0 m -6 867 l 110 986 l 131 986 l 243 867 l 215 867 l 119 967 l 19 867 l -6 867 z "},"Ȉ":{"ha":233,"x_min":10,"x_max":182,"o":"m 106 0 l 106 821 l 128 821 l 128 0 l 106 0 m 161 890 l 63 1010 l 90 1010 l 182 890 l 161 890 m 108 889 l 10 1008 l 38 1008 l 129 889 l 108 889 z "},"Ï":{"ha":233,"x_min":46,"x_max":192,"o":"m 106 0 l 106 821 l 128 821 l 128 0 l 106 0 m 172 893 q 153 913 153 893 q 172 932 153 932 q 192 913 192 932 q 172 893 192 893 m 65 893 q 46 913 46 893 q 65 932 46 932 q 85 913 85 932 q 65 893 85 893 z "},"İ":{"ha":233,"x_min":99,"x_max":138,"o":"m 106 0 l 106 821 l 128 821 l 128 0 l 106 0 m 118 889 q 99 908 99 889 q 118 928 99 928 q 138 908 138 928 q 118 889 138 889 z "},"Ị":{"ha":233,"x_min":99,"x_max":138,"o":"m 106 0 l 106 821 l 128 821 l 128 0 l 106 0 m 118 -111 q 99 -92 99 -111 q 118 -72 99 -72 q 138 -92 138 -72 q 118 -111 138 -111 z "},"Е":{"ha":481,"x_min":106,"x_max":446,"o":"m 106 0 l 106 821 l 446 821 l 446 799 l 128 799 l 128 443 l 375 443 l 375 421 l 128 421 l 128 22 l 446 22 l 446 0 l 106 0 z "},"Ѐ":{"ha":481,"x_min":106,"x_max":446,"o":"m 106 0 l 106 821 l 446 821 l 446 799 l 128 799 l 128 443 l 375 443 l 375 421 l 128 421 l 128 22 l 446 22 l 446 0 l 106 0 m 306 879 l 179 983 l 211 983 l 326 879 l 306 879 z "},"Ì":{"ha":233,"x_min":19,"x_max":167,"o":"m 106 0 l 106 821 l 128 821 l 128 0 l 106 0 m 146 879 l 19 983 l 51 983 l 167 879 l 146 879 z "},"Ỉ":{"ha":233,"x_min":60,"x_max":189,"o":"m 106 0 l 106 821 l 128 821 l 128 0 l 106 0 m 104 861 l 104 869 q 120 906 104 894 q 152 927 136 917 q 168 957 168 938 l 168 961 q 160 982 168 972 q 128 992 153 992 q 78 961 86 992 l 60 968 q 128 1011 69 1011 q 189 963 189 1011 l 189 957 q 173 919 189 932 q 141 897 157 906 q 125 872 125 888 l 125 861 l 104 861 z "},"И":{"ha":603,"x_min":106,"x_max":497,"o":"m 497 0 l 475 0 l 475 785 l 135 0 l 106 0 l 106 821 l 128 821 l 128 40 l 467 821 l 497 821 l 497 0 z "},"Ѝ":{"ha":603,"x_min":106,"x_max":497,"o":"m 497 0 l 475 0 l 475 785 l 135 0 l 106 0 l 106 821 l 128 821 l 128 40 l 467 821 l 497 821 l 497 0 m 326 879 l 200 983 l 232 983 l 347 879 l 326 879 z "},"Ȋ":{"ha":233,"x_min":-4,"x_max":228,"o":"m 106 0 l 106 821 l 128 821 l 128 0 l 106 0 m -4 893 q 28 967 -4 933 q 121 1000 60 1000 q 205 966 182 1000 q 228 893 228 932 l 206 893 q 180 958 204 939 q 119 978 156 978 q 51 957 83 978 q 18 893 18 936 l -4 893 z "},"Й":{"ha":603,"x_min":106,"x_max":497,"o":"m 497 0 l 475 0 l 475 785 l 135 0 l 106 0 l 106 821 l 128 821 l 128 40 l 467 821 l 497 821 l 497 0 m 296 892 q 213 926 236 892 q 189 999 189 960 l 211 999 q 238 933 213 953 q 297 914 263 914 q 366 935 333 914 q 399 999 399 956 l 421 999 q 389 926 421 960 q 296 892 357 892 z "},"Ī":{"ha":233,"x_min":3,"x_max":233,"o":"m 106 0 l 106 821 l 128 821 l 128 0 l 106 0 m 3 906 l 3 928 l 233 928 l 233 906 l 3 906 z "},"Ё":{"ha":481,"x_min":106,"x_max":446,"o":"m 106 0 l 106 821 l 446 821 l 446 799 l 128 799 l 128 443 l 375 443 l 375 421 l 128 421 l 128 22 l 446 22 l 446 0 l 106 0 m 332 893 q 313 913 313 893 q 332 932 313 932 q 351 913 351 932 q 332 893 351 893 m 225 893 q 206 913 206 893 q 225 932 206 932 q 244 913 244 932 q 225 893 244 893 z "},"Į":{"ha":233,"x_min":29,"x_max":168,"o":"m 106 0 l 106 821 l 128 821 l 128 0 l 106 0 m 113 -179 q 52 -159 75 -179 q 29 -104 29 -139 q 54 -40 29 -68 q 104 0 79 -12 l 126 0 q 76 -46 100 -17 q 51 -104 51 -75 q 69 -143 51 -128 q 113 -158 86 -158 q 160 -147 138 -158 l 168 -164 q 141 -176 156 -172 q 113 -179 126 -179 z "},"Ĩ":{"ha":233,"x_min":3,"x_max":236,"o":"m 106 0 l 106 821 l 128 821 l 128 0 l 106 0 m 174 875 q 132 885 150 875 q 98 906 114 896 q 63 917 82 917 q 38 910 50 917 q 24 881 26 904 l 3 881 q 21 921 6 904 q 63 938 36 938 q 103 927 86 938 q 135 906 119 917 q 174 896 151 896 q 200 903 188 896 q 215 933 213 910 l 236 933 q 216 891 232 907 q 174 875 200 875 z "},"Ю":{"ha":929,"x_min":106,"x_max":836,"o":"m 106 0 l 106 821 l 128 821 l 128 442 l 446 442 l 446 651 q 472 770 446 732 q 544 820 499 808 q 642 832 589 832 q 740 819 696 832 q 810 769 783 807 q 836 651 836 731 l 836 164 q 810 45 836 83 q 739 -5 783 7 q 639 -17 694 -17 q 542 -5 586 -17 q 472 46 499 7 q 446 164 446 85 l 446 419 l 128 419 l 128 0 l 106 0 m 640 6 q 728 16 689 6 q 791 61 768 26 q 814 168 814 96 l 814 647 q 790 754 814 719 q 727 799 767 789 q 640 810 688 810 q 553 799 593 810 q 491 754 514 789 q 468 647 468 719 l 468 168 q 491 61 468 96 q 553 16 514 26 q 640 6 593 6 z "},"J":{"ha":274,"x_min":0,"x_max":168,"o":"m 0 0 l 0 22 l 32 22 q 81 24 60 22 q 115 36 101 26 q 138 72 131 47 q 146 128 146 97 l 146 821 l 168 821 l 168 163 q 163 69 168 100 q 131 21 157 39 q 28 0 103 0 l 0 0 z "},"Ĵ":{"ha":274,"x_min":0,"x_max":279,"o":"m 0 0 l 0 22 l 32 22 q 81 24 60 22 q 115 36 101 26 q 138 72 131 47 q 146 128 146 97 l 146 821 l 168 821 l 168 163 q 163 69 168 100 q 131 21 157 39 q 28 0 103 0 l 0 0 m 31 867 l 146 986 l 167 986 l 279 867 l 251 867 l 156 967 l 56 867 l 31 867 z "},"Ј":{"ha":274,"x_min":0,"x_max":168,"o":"m 0 0 l 0 22 l 32 22 q 81 24 60 22 q 115 36 101 26 q 138 72 131 47 q 146 128 146 97 l 146 821 l 168 821 l 168 163 q 163 69 168 100 q 131 21 157 39 q 28 0 103 0 l 0 0 z "},"K":{"ha":467,"x_min":106,"x_max":449,"o":"m 422 0 l 167 425 l 417 821 l 443 821 l 192 425 l 449 0 l 422 0 m 106 0 l 106 821 l 128 821 l 128 0 l 106 0 z "},"К":{"ha":461,"x_min":106,"x_max":443,"o":"m 106 0 l 106 821 l 128 821 l 128 433 l 168 433 l 411 821 l 436 821 l 188 425 l 443 0 l 417 0 l 171 411 l 128 411 l 128 0 l 106 0 z "},"Ķ":{"ha":467,"x_min":106,"x_max":449,"o":"m 422 0 l 167 425 l 417 821 l 443 821 l 192 425 l 449 0 l 422 0 m 106 0 l 106 821 l 128 821 l 128 0 l 106 0 m 225 -181 q 244 -148 232 -169 q 256 -112 256 -126 q 247 -97 256 -101 q 238 -76 238 -93 q 243 -63 238 -69 q 258 -57 249 -57 q 278 -65 272 -57 q 283 -83 283 -72 q 269 -133 283 -106 q 240 -181 256 -161 l 225 -181 z "},"Ќ":{"ha":461,"x_min":106,"x_max":443,"o":"m 106 0 l 106 821 l 128 821 l 128 433 l 168 433 l 411 821 l 436 821 l 188 425 l 443 0 l 417 0 l 171 411 l 128 411 l 128 0 l 106 0 m 240 879 l 356 983 l 388 983 l 261 879 l 240 879 z "},"L":{"ha":408,"x_min":106,"x_max":403,"o":"m 106 0 l 106 821 l 128 821 l 128 22 l 403 22 l 403 0 l 106 0 z "},"Ǉ":{"ha":710,"x_min":106,"x_max":604,"o":"m 106 0 l 106 821 l 128 821 l 128 22 l 403 22 l 403 0 l 106 0 m 436 0 l 436 22 l 468 22 q 517 24 496 22 q 551 36 538 26 q 574 72 567 47 q 582 128 582 97 l 582 821 l 604 821 l 604 163 q 599 69 604 100 q 567 21 593 39 q 464 0 539 0 l 436 0 z "},"Ĺ":{"ha":408,"x_min":85,"x_max":403,"o":"m 106 0 l 106 821 l 128 821 l 128 22 l 403 22 l 403 0 l 106 0 m 85 879 l 200 983 l 232 983 l 106 879 l 85 879 z "},"Ľ":{"ha":408,"x_min":106,"x_max":403,"o":"m 106 0 l 106 821 l 128 821 l 128 22 l 403 22 l 403 0 l 106 0 m 304 686 l 324 840 l 344 840 l 318 686 l 304 686 z "},"Ļ":{"ha":408,"x_min":106,"x_max":403,"o":"m 106 0 l 106 821 l 128 821 l 128 22 l 403 22 l 403 0 l 106 0 m 218 -181 q 237 -148 225 -169 q 249 -112 249 -126 q 240 -97 249 -101 q 231 -76 231 -93 q 236 -63 231 -69 q 251 -57 242 -57 q 271 -65 265 -57 q 276 -83 276 -72 q 263 -133 276 -106 q 233 -181 249 -161 l 218 -181 z "},"Ŀ":{"ha":408,"x_min":106,"x_max":403,"o":"m 106 0 l 106 821 l 128 821 l 128 22 l 403 22 l 403 0 l 106 0 m 321 400 q 299 422 299 400 q 321 444 299 444 q 343 422 343 444 q 321 400 343 400 z "},"ǈ":{"ha":622,"x_min":106,"x_max":536,"o":"m 106 0 l 106 821 l 128 821 l 128 22 l 403 22 l 403 0 l 106 0 m 426 -161 q 378 -159 400 -161 q 358 -157 357 -157 l 358 -135 q 391 -138 374 -136 q 428 -140 408 -140 q 489 -111 472 -140 q 506 -44 506 -82 l 506 688 l 528 688 l 528 -46 q 503 -131 528 -101 q 426 -161 478 -161 m 517 786 q 497 806 497 786 q 517 825 497 825 q 536 806 536 825 q 517 786 536 786 z "},"Љ":{"ha":868,"x_min":76,"x_max":786,"o":"m 76 0 l 76 22 q 139 128 131 22 l 188 821 l 471 821 l 471 604 l 621 604 q 713 588 679 604 q 763 545 747 572 q 782 486 778 518 q 786 422 786 454 l 786 182 q 778 97 786 139 q 735 28 769 56 q 621 0 700 0 l 449 0 l 449 799 l 210 799 l 161 128 q 158 99 161 119 q 147 56 156 79 q 122 17 139 33 q 76 0 106 0 m 471 21 l 615 21 q 719 45 688 21 q 758 108 750 69 q 765 186 765 146 l 765 418 q 758 497 765 460 q 719 559 750 535 q 615 583 688 583 l 471 583 l 471 21 z "},"Ł":{"ha":408,"x_min":17,"x_max":403,"o":"m 106 0 l 106 451 l 17 410 l 17 435 l 106 475 l 106 821 l 128 821 l 128 486 l 243 539 l 243 515 l 128 461 l 128 22 l 403 22 l 403 0 l 106 0 z "},"M":{"ha":731,"x_min":106,"x_max":625,"o":"m 106 0 l 106 821 l 129 821 l 365 44 l 603 821 l 625 821 l 625 0 l 603 0 l 603 746 l 375 0 l 356 0 l 128 746 l 128 0 l 106 0 z "},"N":{"ha":603,"x_min":106,"x_max":497,"o":"m 106 0 l 106 821 l 136 821 l 475 40 l 475 821 l 497 821 l 497 0 l 468 0 l 128 785 l 128 0 l 106 0 z "},"Ǌ":{"ha":876,"x_min":106,"x_max":771,"o":"m 106 0 l 106 821 l 136 821 l 475 40 l 475 821 l 497 821 l 497 0 l 468 0 l 128 785 l 128 0 l 106 0 m 603 0 l 603 22 l 635 22 q 683 24 663 22 q 718 36 704 26 q 741 72 733 47 q 749 128 749 97 l 749 821 l 771 821 l 771 163 q 765 69 771 100 q 733 21 760 39 q 631 0 706 0 l 603 0 z "},"Ń":{"ha":603,"x_min":106,"x_max":497,"o":"m 106 0 l 106 821 l 136 821 l 475 40 l 475 821 l 497 821 l 497 0 l 468 0 l 128 785 l 128 0 l 106 0 m 286 879 l 401 983 l 433 983 l 307 879 l 286 879 z "},"Ň":{"ha":603,"x_min":106,"x_max":497,"o":"m 106 0 l 106 821 l 136 821 l 475 40 l 475 821 l 497 821 l 497 0 l 468 0 l 128 785 l 128 0 l 106 0 m 304 849 l 189 968 l 214 968 l 314 868 l 410 968 l 438 968 l 325 849 l 304 849 z "},"Ņ":{"ha":603,"x_min":106,"x_max":497,"o":"m 106 0 l 106 821 l 136 821 l 475 40 l 475 821 l 497 821 l 497 0 l 468 0 l 128 785 l 128 0 l 106 0 m 274 -181 q 292 -148 281 -169 q 304 -112 304 -126 q 295 -97 304 -101 q 286 -76 286 -93 q 292 -63 286 -69 q 307 -57 297 -57 q 326 -65 321 -57 q 332 -83 332 -72 q 318 -133 332 -106 q 289 -181 304 -161 l 274 -181 z "},"ǋ":{"ha":817,"x_min":106,"x_max":731,"o":"m 106 0 l 106 821 l 136 821 l 475 40 l 475 821 l 497 821 l 497 0 l 468 0 l 128 785 l 128 0 l 106 0 m 621 -161 q 573 -159 594 -161 q 553 -157 551 -157 l 553 -135 q 585 -138 568 -136 q 622 -140 603 -140 q 683 -111 667 -140 q 700 -44 700 -82 l 700 688 l 722 688 l 722 -46 q 697 -131 722 -101 q 621 -161 672 -161 m 711 786 q 692 806 692 786 q 711 825 692 825 q 731 806 731 825 q 711 786 731 786 z "},"Њ":{"ha":867,"x_min":106,"x_max":785,"o":"m 106 0 l 106 821 l 128 821 l 128 442 l 446 442 l 446 821 l 468 821 l 468 604 l 619 604 q 712 588 678 604 q 761 545 746 572 q 781 486 776 518 q 785 422 785 454 l 785 182 q 776 97 785 139 q 733 28 768 56 q 619 0 699 0 l 446 0 l 446 419 l 128 419 l 128 0 l 106 0 m 468 21 l 614 21 q 717 45 686 21 q 756 108 749 69 q 764 186 764 146 l 764 418 q 756 497 764 460 q 717 559 749 535 q 614 583 686 583 l 468 583 l 468 21 z "},"Ñ":{"ha":603,"x_min":106,"x_max":497,"o":"m 106 0 l 106 821 l 136 821 l 475 40 l 475 821 l 497 821 l 497 0 l 468 0 l 128 785 l 128 0 l 106 0 m 371 875 q 329 885 347 875 q 295 906 311 896 q 260 917 279 917 q 235 910 247 917 q 221 881 224 904 l 200 881 q 218 921 203 904 q 260 938 233 938 q 300 927 283 938 q 333 906 317 917 q 371 896 349 896 q 397 903 385 896 q 413 933 410 910 l 433 933 q 413 891 429 907 q 371 875 397 875 z "},"O":{"ha":576,"x_min":93,"x_max":483,"o":"m 286 -17 q 139 23 185 -17 q 93 164 93 63 l 93 651 q 140 792 93 751 q 289 832 186 832 q 440 790 396 832 q 483 651 483 747 l 483 164 q 439 24 483 64 q 286 -17 394 -17 m 288 6 q 423 43 385 6 q 461 168 461 81 l 461 647 q 423 772 461 733 q 288 810 385 810 q 153 772 192 810 q 115 647 115 735 l 115 168 q 155 42 115 79 q 288 6 194 6 z "},"О":{"ha":576,"x_min":93,"x_max":483,"o":"m 286 -17 q 139 23 185 -17 q 93 164 93 63 l 93 651 q 140 792 93 751 q 289 832 186 832 q 440 790 396 832 q 483 651 483 747 l 483 164 q 439 24 483 64 q 286 -17 394 -17 m 288 6 q 423 43 385 6 q 461 168 461 81 l 461 647 q 423 772 461 733 q 288 810 385 810 q 153 772 192 810 q 115 647 115 735 l 115 168 q 155 42 115 79 q 288 6 194 6 z "},"Œ":{"ha":836,"x_min":93,"x_max":801,"o":"m 286 -17 q 190 -5 233 -17 q 119 46 146 7 q 93 164 93 85 l 93 651 q 119 770 93 732 q 191 820 146 808 q 289 832 236 832 q 392 819 346 832 q 461 761 438 806 l 461 821 l 801 821 l 801 799 l 483 799 l 483 443 l 731 443 l 731 421 l 483 421 l 483 22 l 801 22 l 801 0 l 461 0 l 461 53 q 391 -4 438 8 q 286 -17 344 -17 m 288 6 q 376 16 336 6 q 438 61 415 26 q 461 168 461 96 l 461 647 q 438 754 461 719 q 374 799 414 789 q 288 810 335 810 q 201 799 240 810 q 138 754 161 789 q 115 647 115 719 l 115 168 q 138 61 115 96 q 201 16 161 26 q 288 6 240 6 z "},"Ó":{"ha":576,"x_min":93,"x_max":483,"o":"m 286 -17 q 139 23 185 -17 q 93 164 93 63 l 93 651 q 140 792 93 751 q 289 832 186 832 q 440 790 396 832 q 483 651 483 747 l 483 164 q 439 24 483 64 q 286 -17 394 -17 m 288 6 q 423 43 385 6 q 461 168 461 81 l 461 647 q 423 772 461 733 q 288 810 385 810 q 153 772 192 810 q 115 647 115 735 l 115 168 q 155 42 115 79 q 288 6 194 6 m 257 879 l 372 983 l 404 983 l 278 879 l 257 879 z "},"Ŏ":{"ha":576,"x_min":93,"x_max":483,"o":"m 286 -17 q 139 23 185 -17 q 93 164 93 63 l 93 651 q 140 792 93 751 q 289 832 186 832 q 440 790 396 832 q 483 651 483 747 l 483 164 q 439 24 483 64 q 286 -17 394 -17 m 288 6 q 423 43 385 6 q 461 168 461 81 l 461 647 q 423 772 461 733 q 288 810 385 810 q 153 772 192 810 q 115 647 115 735 l 115 168 q 155 42 115 79 q 288 6 194 6 m 281 867 q 197 901 221 867 q 174 974 174 935 l 196 974 q 222 908 197 928 q 282 889 247 889 q 351 910 318 889 q 383 974 383 931 l 406 974 q 374 901 406 935 q 281 867 342 867 z "},"Ǒ":{"ha":576,"x_min":93,"x_max":483,"o":"m 286 -17 q 139 23 185 -17 q 93 164 93 63 l 93 651 q 140 792 93 751 q 289 832 186 832 q 440 790 396 832 q 483 651 483 747 l 483 164 q 439 24 483 64 q 286 -17 394 -17 m 288 6 q 423 43 385 6 q 461 168 461 81 l 461 647 q 423 772 461 733 q 288 810 385 810 q 153 772 192 810 q 115 647 115 735 l 115 168 q 155 42 115 79 q 288 6 194 6 m 275 849 l 160 968 l 185 968 l 285 868 l 381 968 l 408 968 l 296 849 l 275 849 z "},"Ô":{"ha":576,"x_min":93,"x_max":483,"o":"m 286 -17 q 139 23 185 -17 q 93 164 93 63 l 93 651 q 140 792 93 751 q 289 832 186 832 q 440 790 396 832 q 483 651 483 747 l 483 164 q 439 24 483 64 q 286 -17 394 -17 m 288 6 q 423 43 385 6 q 461 168 461 81 l 461 647 q 423 772 461 733 q 288 810 385 810 q 153 772 192 810 q 115 647 115 735 l 115 168 q 155 42 115 79 q 288 6 194 6 m 163 867 l 278 986 l 299 986 l 411 867 l 383 867 l 288 967 l 188 867 l 163 867 z "},"Ố":{"ha":576,"x_min":93,"x_max":543,"o":"m 286 -17 q 139 23 185 -17 q 93 164 93 63 l 93 651 q 140 792 93 751 q 289 832 186 832 q 440 790 396 832 q 483 651 483 747 l 483 164 q 439 24 483 64 q 286 -17 394 -17 m 288 6 q 423 43 385 6 q 461 168 461 81 l 461 647 q 423 772 461 733 q 288 810 385 810 q 153 772 192 810 q 115 647 115 735 l 115 168 q 155 42 115 79 q 288 6 194 6 m 169 867 l 285 986 l 306 986 l 418 867 l 390 867 l 294 967 l 194 867 l 169 867 m 396 975 l 511 1079 l 543 1079 l 417 975 l 396 975 z "},"Ộ":{"ha":576,"x_min":93,"x_max":483,"o":"m 286 -17 q 139 23 185 -17 q 93 164 93 63 l 93 651 q 140 792 93 751 q 289 832 186 832 q 440 790 396 832 q 483 651 483 747 l 483 164 q 439 24 483 64 q 286 -17 394 -17 m 288 6 q 423 43 385 6 q 461 168 461 81 l 461 647 q 423 772 461 733 q 288 810 385 810 q 153 772 192 810 q 115 647 115 735 l 115 168 q 155 42 115 79 q 288 6 194 6 m 288 -111 q 268 -92 268 -111 q 288 -72 268 -72 q 307 -92 307 -72 q 288 -111 307 -111 m 163 867 l 278 986 l 299 986 l 411 867 l 383 867 l 288 967 l 188 867 l 163 867 z "},"Ồ":{"ha":576,"x_min":93,"x_max":483,"o":"m 286 -17 q 139 23 185 -17 q 93 164 93 63 l 93 651 q 140 792 93 751 q 289 832 186 832 q 440 790 396 832 q 483 651 483 747 l 483 164 q 439 24 483 64 q 286 -17 394 -17 m 288 6 q 423 43 385 6 q 461 168 461 81 l 461 647 q 423 772 461 733 q 288 810 385 810 q 153 772 192 810 q 115 647 115 735 l 115 168 q 155 42 115 79 q 288 6 194 6 m 169 867 l 285 986 l 306 986 l 418 867 l 390 867 l 294 967 l 194 867 l 169 867 m 414 981 l 288 1085 l 319 1085 l 435 981 l 414 981 z "},"Ổ":{"ha":576,"x_min":93,"x_max":496,"o":"m 286 -17 q 139 23 185 -17 q 93 164 93 63 l 93 651 q 140 792 93 751 q 289 832 186 832 q 440 790 396 832 q 483 651 483 747 l 483 164 q 439 24 483 64 q 286 -17 394 -17 m 288 6 q 423 43 385 6 q 461 168 461 81 l 461 647 q 423 772 461 733 q 288 810 385 810 q 153 772 192 810 q 115 647 115 735 l 115 168 q 155 42 115 79 q 288 6 194 6 m 169 867 l 285 986 l 306 986 l 418 867 l 390 867 l 294 967 l 194 867 l 169 867 m 411 949 l 411 957 q 427 993 411 982 q 459 1015 443 1004 q 475 1044 475 1025 l 475 1049 q 467 1069 475 1060 q 435 1079 460 1079 q 385 1049 393 1079 l 367 1056 q 435 1099 376 1099 q 496 1050 496 1099 l 496 1044 q 480 1006 496 1019 q 448 984 464 993 q 432 960 432 975 l 432 949 l 411 949 z "},"Ỗ":{"ha":576,"x_min":93,"x_max":483,"o":"m 286 -17 q 139 23 185 -17 q 93 164 93 63 l 93 651 q 140 792 93 751 q 289 832 186 832 q 440 790 396 832 q 483 651 483 747 l 483 164 q 439 24 483 64 q 286 -17 394 -17 m 288 6 q 423 43 385 6 q 461 168 461 81 l 461 647 q 423 772 461 733 q 288 810 385 810 q 153 772 192 810 q 115 647 115 735 l 115 168 q 155 42 115 79 q 288 6 194 6 m 169 867 l 285 986 l 306 986 l 418 867 l 390 867 l 294 967 l 194 867 l 169 867 m 357 1017 q 315 1027 333 1017 q 281 1048 297 1038 q 246 1058 265 1058 q 222 1052 233 1058 q 207 1022 210 1046 l 186 1022 q 204 1063 189 1046 q 246 1079 219 1079 q 286 1069 269 1079 q 319 1048 303 1058 q 357 1038 335 1038 q 383 1044 371 1038 q 399 1075 396 1051 l 419 1075 q 399 1033 415 1049 q 357 1017 383 1017 z "},"Ȍ":{"ha":576,"x_min":93,"x_max":483,"o":"m 286 -17 q 139 23 185 -17 q 93 164 93 63 l 93 651 q 140 792 93 751 q 289 832 186 832 q 440 790 396 832 q 483 651 483 747 l 483 164 q 439 24 483 64 q 286 -17 394 -17 m 288 6 q 423 43 385 6 q 461 168 461 81 l 461 647 q 423 772 461 733 q 288 810 385 810 q 153 772 192 810 q 115 647 115 735 l 115 168 q 155 42 115 79 q 288 6 194 6 m 329 890 l 231 1010 l 258 1010 l 350 890 l 329 890 m 276 889 l 178 1008 l 206 1008 l 297 889 l 276 889 z "},"Ö":{"ha":576,"x_min":93,"x_max":483,"o":"m 286 -17 q 139 23 185 -17 q 93 164 93 63 l 93 651 q 140 792 93 751 q 289 832 186 832 q 440 790 396 832 q 483 651 483 747 l 483 164 q 439 24 483 64 q 286 -17 394 -17 m 288 6 q 423 43 385 6 q 461 168 461 81 l 461 647 q 423 772 461 733 q 288 810 385 810 q 153 772 192 810 q 115 647 115 735 l 115 168 q 155 42 115 79 q 288 6 194 6 m 340 893 q 321 913 321 893 q 340 932 321 932 q 360 913 360 932 q 340 893 360 893 m 233 893 q 214 913 214 893 q 233 932 214 932 q 253 913 253 932 q 233 893 253 893 z "},"Ȫ":{"ha":576,"x_min":93,"x_max":483,"o":"m 286 -17 q 139 23 185 -17 q 93 164 93 63 l 93 651 q 140 792 93 751 q 289 832 186 832 q 440 790 396 832 q 483 651 483 747 l 483 164 q 439 24 483 64 q 286 -17 394 -17 m 288 6 q 423 43 385 6 q 461 168 461 81 l 461 647 q 423 772 461 733 q 288 810 385 810 q 153 772 192 810 q 115 647 115 735 l 115 168 q 155 42 115 79 q 288 6 194 6 m 340 893 q 321 913 321 893 q 340 932 321 932 q 360 913 360 932 q 340 893 360 893 m 233 893 q 214 913 214 893 q 233 932 214 932 q 253 913 253 932 q 233 893 253 893 m 171 999 l 171 1021 l 401 1021 l 401 999 l 171 999 z "},"Ȱ":{"ha":576,"x_min":93,"x_max":483,"o":"m 286 -17 q 139 23 185 -17 q 93 164 93 63 l 93 651 q 140 792 93 751 q 289 832 186 832 q 440 790 396 832 q 483 651 483 747 l 483 164 q 439 24 483 64 q 286 -17 394 -17 m 288 6 q 423 43 385 6 q 461 168 461 81 l 461 647 q 423 772 461 733 q 288 810 385 810 q 153 772 192 810 q 115 647 115 735 l 115 168 q 155 42 115 79 q 288 6 194 6 m 286 889 q 267 908 267 889 q 286 928 267 928 q 306 908 306 928 q 286 889 306 889 m 171 960 l 171 982 l 401 982 l 401 960 l 171 960 z "},"Ọ":{"ha":576,"x_min":93,"x_max":483,"o":"m 286 -17 q 139 23 185 -17 q 93 164 93 63 l 93 651 q 140 792 93 751 q 289 832 186 832 q 440 790 396 832 q 483 651 483 747 l 483 164 q 439 24 483 64 q 286 -17 394 -17 m 288 6 q 423 43 385 6 q 461 168 461 81 l 461 647 q 423 772 461 733 q 288 810 385 810 q 153 772 192 810 q 115 647 115 735 l 115 168 q 155 42 115 79 q 288 6 194 6 m 288 -111 q 268 -92 268 -111 q 288 -72 268 -72 q 307 -92 307 -72 q 288 -111 307 -111 z "},"Ò":{"ha":576,"x_min":93,"x_max":483,"o":"m 286 -17 q 139 23 185 -17 q 93 164 93 63 l 93 651 q 140 792 93 751 q 289 832 186 832 q 440 790 396 832 q 483 651 483 747 l 483 164 q 439 24 483 64 q 286 -17 394 -17 m 288 6 q 423 43 385 6 q 461 168 461 81 l 461 647 q 423 772 461 733 q 288 810 385 810 q 153 772 192 810 q 115 647 115 735 l 115 168 q 155 42 115 79 q 288 6 194 6 m 314 879 l 188 983 l 219 983 l 335 879 l 314 879 z "},"Ω":{"ha":800,"x_min":42,"x_max":758,"o":"m 42 0 l 42 22 l 294 22 q 183 122 232 69 q 107 249 135 175 q 79 431 79 322 q 386 785 79 785 q 614 696 535 785 q 693 443 693 607 q 640 203 693 307 q 478 22 588 100 l 758 22 l 758 0 l 442 0 l 436 21 q 613 201 556 97 q 671 443 671 304 q 598 681 671 599 q 386 763 525 763 q 171 682 240 763 q 101 431 101 601 q 131 247 101 321 q 214 122 161 174 q 336 21 267 69 l 329 0 l 42 0 z "},"Ỏ":{"ha":576,"x_min":93,"x_max":483,"o":"m 286 -17 q 139 23 185 -17 q 93 164 93 63 l 93 651 q 140 792 93 751 q 289 832 186 832 q 440 790 396 832 q 483 651 483 747 l 483 164 q 439 24 483 64 q 286 -17 394 -17 m 288 6 q 423 43 385 6 q 461 168 461 81 l 461 647 q 423 772 461 733 q 288 810 385 810 q 153 772 192 810 q 115 647 115 735 l 115 168 q 155 42 115 79 q 288 6 194 6 m 272 861 l 272 869 q 288 906 272 894 q 320 927 304 917 q 336 957 336 938 l 336 961 q 328 982 336 972 q 296 992 321 992 q 246 961 254 992 l 228 968 q 296 1011 238 1011 q 357 963 357 1011 l 357 957 q 341 919 357 932 q 309 897 325 906 q 293 872 293 888 l 293 861 l 272 861 z "},"Ơ":{"ha":576,"x_min":93,"x_max":483,"o":"m 286 -17 q 139 23 185 -17 q 93 164 93 63 l 93 651 q 140 792 93 751 q 289 832 186 832 q 440 790 396 832 q 483 651 483 747 l 483 164 q 439 24 483 64 q 286 -17 394 -17 m 288 6 q 423 43 385 6 q 461 168 461 81 l 461 647 q 423 772 461 733 q 288 810 385 810 q 153 772 192 810 q 115 647 115 735 l 115 168 q 155 42 115 79 q 288 6 194 6 m 365 806 l 363 821 q 428 838 404 821 q 451 896 451 856 l 451 910 l 474 910 l 474 897 q 444 828 474 850 q 365 806 414 806 z "},"Ớ":{"ha":576,"x_min":93,"x_max":483,"o":"m 286 -17 q 139 23 185 -17 q 93 164 93 63 l 93 651 q 140 792 93 751 q 289 832 186 832 q 440 790 396 832 q 483 651 483 747 l 483 164 q 439 24 483 64 q 286 -17 394 -17 m 288 6 q 423 43 385 6 q 461 168 461 81 l 461 647 q 423 772 461 733 q 288 810 385 810 q 153 772 192 810 q 115 647 115 735 l 115 168 q 155 42 115 79 q 288 6 194 6 m 365 806 l 363 821 q 428 838 404 821 q 451 896 451 856 l 451 910 l 474 910 l 474 897 q 444 828 474 850 q 365 806 414 806 m 257 879 l 372 983 l 404 983 l 278 879 l 257 879 z "},"Ợ":{"ha":576,"x_min":93,"x_max":483,"o":"m 286 -17 q 139 23 185 -17 q 93 164 93 63 l 93 651 q 140 792 93 751 q 289 832 186 832 q 440 790 396 832 q 483 651 483 747 l 483 164 q 439 24 483 64 q 286 -17 394 -17 m 288 6 q 423 43 385 6 q 461 168 461 81 l 461 647 q 423 772 461 733 q 288 810 385 810 q 153 772 192 810 q 115 647 115 735 l 115 168 q 155 42 115 79 q 288 6 194 6 m 365 806 l 363 821 q 428 838 404 821 q 451 896 451 856 l 451 910 l 474 910 l 474 897 q 444 828 474 850 q 365 806 414 806 m 288 -111 q 268 -92 268 -111 q 288 -72 268 -72 q 307 -92 307 -72 q 288 -111 307 -111 z "},"Ờ":{"ha":576,"x_min":93,"x_max":483,"o":"m 286 -17 q 139 23 185 -17 q 93 164 93 63 l 93 651 q 140 792 93 751 q 289 832 186 832 q 440 790 396 832 q 483 651 483 747 l 483 164 q 439 24 483 64 q 286 -17 394 -17 m 288 6 q 423 43 385 6 q 461 168 461 81 l 461 647 q 423 772 461 733 q 288 810 385 810 q 153 772 192 810 q 115 647 115 735 l 115 168 q 155 42 115 79 q 288 6 194 6 m 365 806 l 363 821 q 428 838 404 821 q 451 896 451 856 l 451 910 l 474 910 l 474 897 q 444 828 474 850 q 365 806 414 806 m 314 879 l 188 983 l 219 983 l 335 879 l 314 879 z "},"Ở":{"ha":576,"x_min":93,"x_max":483,"o":"m 286 -17 q 139 23 185 -17 q 93 164 93 63 l 93 651 q 140 792 93 751 q 289 832 186 832 q 440 790 396 832 q 483 651 483 747 l 483 164 q 439 24 483 64 q 286 -17 394 -17 m 288 6 q 423 43 385 6 q 461 168 461 81 l 461 647 q 423 772 461 733 q 288 810 385 810 q 153 772 192 810 q 115 647 115 735 l 115 168 q 155 42 115 79 q 288 6 194 6 m 365 806 l 363 821 q 428 838 404 821 q 451 896 451 856 l 451 910 l 474 910 l 474 897 q 444 828 474 850 q 365 806 414 806 m 272 861 l 272 869 q 288 906 272 894 q 320 927 304 917 q 336 957 336 938 l 336 961 q 328 982 336 972 q 296 992 321 992 q 246 961 254 992 l 228 968 q 296 1011 238 1011 q 357 963 357 1011 l 357 957 q 341 919 357 932 q 309 897 325 906 q 293 872 293 888 l 293 861 l 272 861 z "},"Ỡ":{"ha":576,"x_min":93,"x_max":483,"o":"m 286 -17 q 139 23 185 -17 q 93 164 93 63 l 93 651 q 140 792 93 751 q 289 832 186 832 q 440 790 396 832 q 483 651 483 747 l 483 164 q 439 24 483 64 q 286 -17 394 -17 m 288 6 q 423 43 385 6 q 461 168 461 81 l 461 647 q 423 772 461 733 q 288 810 385 810 q 153 772 192 810 q 115 647 115 735 l 115 168 q 155 42 115 79 q 288 6 194 6 m 365 806 l 363 821 q 428 838 404 821 q 451 896 451 856 l 451 910 l 474 910 l 474 897 q 444 828 474 850 q 365 806 414 806 m 342 875 q 300 885 318 875 q 266 906 282 896 q 231 917 250 917 q 206 910 218 917 q 192 881 194 904 l 171 881 q 189 921 174 904 q 231 938 204 938 q 271 927 254 938 q 303 906 288 917 q 342 896 319 896 q 368 903 356 896 q 383 933 381 910 l 404 933 q 384 891 400 907 q 342 875 368 875 z "},"Ő":{"ha":576,"x_min":93,"x_max":483,"o":"m 286 -17 q 139 23 185 -17 q 93 164 93 63 l 93 651 q 140 792 93 751 q 289 832 186 832 q 440 790 396 832 q 483 651 483 747 l 483 164 q 439 24 483 64 q 286 -17 394 -17 m 288 6 q 423 43 385 6 q 461 168 461 81 l 461 647 q 423 772 461 733 q 288 810 385 810 q 153 772 192 810 q 115 647 115 735 l 115 168 q 155 42 115 79 q 288 6 194 6 m 231 879 l 343 983 l 378 983 l 249 879 l 231 879 m 296 878 l 408 982 l 443 982 l 314 878 l 296 878 z "},"Ȏ":{"ha":576,"x_min":93,"x_max":483,"o":"m 286 -17 q 139 23 185 -17 q 93 164 93 63 l 93 651 q 140 792 93 751 q 289 832 186 832 q 440 790 396 832 q 483 651 483 747 l 483 164 q 439 24 483 64 q 286 -17 394 -17 m 288 6 q 423 43 385 6 q 461 168 461 81 l 461 647 q 423 772 461 733 q 288 810 385 810 q 153 772 192 810 q 115 647 115 735 l 115 168 q 155 42 115 79 q 288 6 194 6 m 164 893 q 196 967 164 933 q 289 1000 228 1000 q 373 966 350 1000 q 396 893 396 932 l 374 893 q 348 958 372 939 q 288 978 324 978 q 219 957 251 978 q 186 893 186 936 l 164 893 z "},"Ō":{"ha":576,"x_min":93,"x_max":483,"o":"m 286 -17 q 139 23 185 -17 q 93 164 93 63 l 93 651 q 140 792 93 751 q 289 832 186 832 q 440 790 396 832 q 483 651 483 747 l 483 164 q 439 24 483 64 q 286 -17 394 -17 m 288 6 q 423 43 385 6 q 461 168 461 81 l 461 647 q 423 772 461 733 q 288 810 385 810 q 153 772 192 810 q 115 647 115 735 l 115 168 q 155 42 115 79 q 288 6 194 6 m 171 906 l 171 928 l 401 928 l 401 906 l 171 906 z "},"Ω":{"ha":800,"x_min":42,"x_max":758,"o":"m 42 0 l 42 22 l 294 22 q 183 122 232 69 q 107 249 135 175 q 79 431 79 322 q 386 785 79 785 q 614 696 535 785 q 693 443 693 607 q 640 203 693 307 q 478 22 588 100 l 758 22 l 758 0 l 442 0 l 436 21 q 613 201 556 97 q 671 443 671 304 q 598 681 671 599 q 386 763 525 763 q 171 682 240 763 q 101 431 101 601 q 131 247 101 321 q 214 122 161 174 q 336 21 267 69 l 329 0 l 42 0 z "},"Ǫ":{"ha":576,"x_min":93,"x_max":483,"o":"m 286 -17 q 139 23 185 -17 q 93 164 93 63 l 93 651 q 140 792 93 751 q 289 832 186 832 q 440 790 396 832 q 483 651 483 747 l 483 164 q 439 24 483 64 q 286 -17 394 -17 m 288 6 q 423 43 385 6 q 461 168 461 81 l 461 647 q 423 772 461 733 q 288 810 385 810 q 153 772 192 810 q 115 647 115 735 l 115 168 q 155 42 115 79 q 288 6 194 6 m 310 -183 q 249 -163 272 -183 q 226 -108 226 -143 q 251 -44 226 -72 q 301 -4 276 -17 l 324 -4 q 273 -50 297 -21 q 249 -108 249 -79 q 266 -147 249 -132 q 310 -162 283 -162 q 357 -151 335 -162 l 365 -168 q 338 -180 353 -176 q 310 -183 324 -183 z "},"Ø":{"ha":576,"x_min":42,"x_max":543,"o":"m 42 -78 l 113 61 q 93 164 93 100 l 93 651 q 119 770 93 732 q 191 820 146 808 q 289 832 236 832 q 394 818 347 832 q 464 754 442 804 l 519 863 l 543 863 l 475 728 q 483 651 483 694 l 483 164 q 457 45 483 83 q 386 -5 431 7 q 286 -17 342 -17 q 194 -6 236 -17 q 125 39 151 4 l 67 -78 l 42 -78 m 126 89 l 450 726 q 388 795 432 781 q 288 810 343 810 q 201 799 240 810 q 138 754 161 789 q 115 647 115 719 l 115 168 q 126 89 115 122 m 288 6 q 376 16 336 6 q 438 61 415 26 q 461 168 461 96 l 461 647 q 460 673 461 661 q 458 694 460 685 l 138 63 q 201 16 161 26 q 288 6 240 6 z "},"Ǿ":{"ha":576,"x_min":42,"x_max":543,"o":"m 42 -78 l 113 61 q 93 164 93 100 l 93 651 q 119 770 93 732 q 191 820 146 808 q 289 832 236 832 q 394 818 347 832 q 464 754 442 804 l 519 863 l 543 863 l 475 728 q 483 651 483 694 l 483 164 q 457 45 483 83 q 386 -5 431 7 q 286 -17 342 -17 q 194 -6 236 -17 q 125 39 151 4 l 67 -78 l 42 -78 m 126 89 l 450 726 q 388 795 432 781 q 288 810 343 810 q 201 799 240 810 q 138 754 161 789 q 115 647 115 719 l 115 168 q 126 89 115 122 m 288 6 q 376 16 336 6 q 438 61 415 26 q 461 168 461 96 l 461 647 q 460 673 461 661 q 458 694 460 685 l 138 63 q 201 16 161 26 q 288 6 240 6 m 250 876 l 365 981 l 397 981 l 271 876 l 250 876 z "},"Õ":{"ha":576,"x_min":93,"x_max":483,"o":"m 286 -17 q 139 23 185 -17 q 93 164 93 63 l 93 651 q 140 792 93 751 q 289 832 186 832 q 440 790 396 832 q 483 651 483 747 l 483 164 q 439 24 483 64 q 286 -17 394 -17 m 288 6 q 423 43 385 6 q 461 168 461 81 l 461 647 q 423 772 461 733 q 288 810 385 810 q 153 772 192 810 q 115 647 115 735 l 115 168 q 155 42 115 79 q 288 6 194 6 m 342 875 q 300 885 318 875 q 266 906 282 896 q 231 917 250 917 q 206 910 218 917 q 192 881 194 904 l 171 881 q 189 921 174 904 q 231 938 204 938 q 271 927 254 938 q 303 906 288 917 q 342 896 319 896 q 368 903 356 896 q 383 933 381 910 l 404 933 q 384 891 400 907 q 342 875 368 875 z "},"Ȭ":{"ha":576,"x_min":93,"x_max":483,"o":"m 286 -17 q 139 23 185 -17 q 93 164 93 63 l 93 651 q 140 792 93 751 q 289 832 186 832 q 440 790 396 832 q 483 651 483 747 l 483 164 q 439 24 483 64 q 286 -17 394 -17 m 288 6 q 423 43 385 6 q 461 168 461 81 l 461 647 q 423 772 461 733 q 288 810 385 810 q 153 772 192 810 q 115 647 115 735 l 115 168 q 155 42 115 79 q 288 6 194 6 m 342 875 q 300 885 318 875 q 266 906 282 896 q 231 917 250 917 q 206 910 218 917 q 192 881 194 904 l 171 881 q 189 921 174 904 q 231 938 204 938 q 271 927 254 938 q 303 906 288 917 q 342 896 319 896 q 368 903 356 896 q 383 933 381 910 l 404 933 q 384 891 400 907 q 342 875 368 875 m 171 993 l 171 1015 l 401 1015 l 401 993 l 171 993 z "},"P":{"ha":538,"x_min":106,"x_max":489,"o":"m 106 0 l 106 821 l 317 821 q 444 792 400 821 q 489 686 489 764 l 489 581 q 472 463 489 508 q 411 397 456 418 q 282 376 367 376 l 128 376 l 128 0 l 106 0 m 128 399 l 282 399 q 398 416 358 399 q 452 473 438 433 q 467 579 467 513 l 467 654 q 435 768 467 738 q 315 799 404 799 l 128 799 l 128 399 z "},"П":{"ha":546,"x_min":106,"x_max":440,"o":"m 106 0 l 106 821 l 440 821 l 440 0 l 418 0 l 418 799 l 128 799 l 128 0 l 106 0 z "},"Q":{"ha":576,"x_min":93,"x_max":483,"o":"m 440 -153 l 358 -12 q 286 -17 325 -17 q 190 -5 233 -17 q 119 46 146 7 q 93 164 93 85 l 93 651 q 119 770 93 732 q 191 820 146 808 q 289 832 236 832 q 387 819 343 832 q 457 769 431 807 q 483 651 483 731 l 483 164 q 456 43 483 81 q 382 -7 428 6 l 458 -140 l 440 -153 m 288 6 q 376 16 336 6 q 438 61 415 26 q 461 168 461 96 l 461 647 q 438 754 461 719 q 374 799 414 789 q 288 810 335 810 q 201 799 240 810 q 138 754 161 789 q 115 647 115 719 l 115 168 q 138 61 115 96 q 201 16 161 26 q 288 6 240 6 z "},"R":{"ha":569,"x_min":106,"x_max":517,"o":"m 106 0 l 106 821 l 336 821 q 440 791 396 821 q 483 686 483 761 l 483 571 q 463 478 483 514 q 410 426 442 443 q 344 404 379 408 q 389 373 367 401 q 421 311 411 344 l 517 0 l 493 0 l 408 278 q 363 365 392 332 q 282 399 333 399 l 128 399 l 128 0 l 106 0 m 128 421 l 296 421 q 414 454 367 421 q 461 568 461 488 l 461 682 q 425 770 461 742 q 342 799 389 799 l 128 799 l 128 421 z "},"Ŕ":{"ha":569,"x_min":106,"x_max":517,"o":"m 106 0 l 106 821 l 336 821 q 440 791 396 821 q 483 686 483 761 l 483 571 q 463 478 483 514 q 410 426 442 443 q 344 404 379 408 q 389 373 367 401 q 421 311 411 344 l 517 0 l 493 0 l 408 278 q 363 365 392 332 q 282 399 333 399 l 128 399 l 128 0 l 106 0 m 128 421 l 296 421 q 414 454 367 421 q 461 568 461 488 l 461 682 q 425 770 461 742 q 342 799 389 799 l 128 799 l 128 421 m 254 879 l 369 983 l 401 983 l 275 879 l 254 879 z "},"Ř":{"ha":569,"x_min":106,"x_max":517,"o":"m 106 0 l 106 821 l 336 821 q 440 791 396 821 q 483 686 483 761 l 483 571 q 463 478 483 514 q 410 426 442 443 q 344 404 379 408 q 389 373 367 401 q 421 311 411 344 l 517 0 l 493 0 l 408 278 q 363 365 392 332 q 282 399 333 399 l 128 399 l 128 0 l 106 0 m 128 421 l 296 421 q 414 454 367 421 q 461 568 461 488 l 461 682 q 425 770 461 742 q 342 799 389 799 l 128 799 l 128 421 m 272 849 l 157 968 l 182 968 l 282 868 l 378 968 l 406 968 l 293 849 l 272 849 z "},"Ŗ":{"ha":569,"x_min":106,"x_max":517,"o":"m 106 0 l 106 821 l 336 821 q 440 791 396 821 q 483 686 483 761 l 483 571 q 463 478 483 514 q 410 426 442 443 q 344 404 379 408 q 389 373 367 401 q 421 311 411 344 l 517 0 l 493 0 l 408 278 q 363 365 392 332 q 282 399 333 399 l 128 399 l 128 0 l 106 0 m 128 421 l 296 421 q 414 454 367 421 q 461 568 461 488 l 461 682 q 425 770 461 742 q 342 799 389 799 l 128 799 l 128 421 m 257 -181 q 276 -148 264 -169 q 288 -112 288 -126 q 278 -97 288 -101 q 269 -76 269 -93 q 275 -63 269 -69 q 290 -57 281 -57 q 310 -65 304 -57 q 315 -83 315 -72 q 301 -133 315 -106 q 272 -181 288 -161 l 257 -181 z "},"Ȑ":{"ha":569,"x_min":106,"x_max":517,"o":"m 106 0 l 106 821 l 336 821 q 440 791 396 821 q 483 686 483 761 l 483 571 q 463 478 483 514 q 410 426 442 443 q 344 404 379 408 q 389 373 367 401 q 421 311 411 344 l 517 0 l 493 0 l 408 278 q 363 365 392 332 q 282 399 333 399 l 128 399 l 128 0 l 106 0 m 128 421 l 296 421 q 414 454 367 421 q 461 568 461 488 l 461 682 q 425 770 461 742 q 342 799 389 799 l 128 799 l 128 421 m 326 890 l 228 1010 l 256 1010 l 347 890 l 326 890 m 274 889 l 175 1008 l 203 1008 l 294 889 l 274 889 z "},"Ȓ":{"ha":569,"x_min":106,"x_max":517,"o":"m 106 0 l 106 821 l 336 821 q 440 791 396 821 q 483 686 483 761 l 483 571 q 463 478 483 514 q 410 426 442 443 q 344 404 379 408 q 389 373 367 401 q 421 311 411 344 l 517 0 l 493 0 l 408 278 q 363 365 392 332 q 282 399 333 399 l 128 399 l 128 0 l 106 0 m 128 421 l 296 421 q 414 454 367 421 q 461 568 461 488 l 461 682 q 425 770 461 742 q 342 799 389 799 l 128 799 l 128 421 m 161 893 q 193 967 161 933 q 286 1000 225 1000 q 370 966 347 1000 q 393 893 393 932 l 371 893 q 345 958 369 939 q 285 978 321 978 q 216 957 249 978 q 183 893 183 936 l 161 893 z "},"S":{"ha":481,"x_min":56,"x_max":425,"o":"m 232 -12 q 139 9 179 -12 q 77 83 99 31 q 56 226 56 136 l 56 243 l 78 243 l 78 226 q 98 96 78 143 q 153 29 118 49 q 232 10 188 10 q 354 52 306 10 q 403 203 403 94 q 378 313 403 275 q 313 372 354 351 q 224 411 272 393 q 137 455 174 431 q 80 518 100 479 q 60 622 60 557 q 101 771 60 715 q 238 826 142 826 q 369 781 321 826 q 418 651 418 735 l 418 596 l 396 596 l 396 646 q 354 763 396 721 q 238 804 313 804 q 117 752 151 804 q 82 622 82 700 q 103 522 82 558 q 160 467 125 486 q 236 431 196 447 q 344 379 303 404 q 406 315 386 354 q 425 203 425 275 q 399 76 425 124 q 330 8 374 29 q 232 -12 286 -12 z "},"Ś":{"ha":481,"x_min":56,"x_max":425,"o":"m 232 -12 q 139 9 179 -12 q 77 83 99 31 q 56 226 56 136 l 56 243 l 78 243 l 78 226 q 98 96 78 143 q 153 29 118 49 q 232 10 188 10 q 354 52 306 10 q 403 203 403 94 q 378 313 403 275 q 313 372 354 351 q 224 411 272 393 q 137 455 174 431 q 80 518 100 479 q 60 622 60 557 q 101 771 60 715 q 238 826 142 826 q 369 781 321 826 q 418 651 418 735 l 418 596 l 396 596 l 396 646 q 354 763 396 721 q 238 804 313 804 q 117 752 151 804 q 82 622 82 700 q 103 522 82 558 q 160 467 125 486 q 236 431 196 447 q 344 379 303 404 q 406 315 386 354 q 425 203 425 275 q 399 76 425 124 q 330 8 374 29 q 232 -12 286 -12 m 208 879 l 324 983 l 356 983 l 229 879 l 208 879 z "},"Š":{"ha":481,"x_min":56,"x_max":425,"o":"m 232 -12 q 139 9 179 -12 q 77 83 99 31 q 56 226 56 136 l 56 243 l 78 243 l 78 226 q 98 96 78 143 q 153 29 118 49 q 232 10 188 10 q 354 52 306 10 q 403 203 403 94 q 378 313 403 275 q 313 372 354 351 q 224 411 272 393 q 137 455 174 431 q 80 518 100 479 q 60 622 60 557 q 101 771 60 715 q 238 826 142 826 q 369 781 321 826 q 418 651 418 735 l 418 596 l 396 596 l 396 646 q 354 763 396 721 q 238 804 313 804 q 117 752 151 804 q 82 622 82 700 q 103 522 82 558 q 160 467 125 486 q 236 431 196 447 q 344 379 303 404 q 406 315 386 354 q 425 203 425 275 q 399 76 425 124 q 330 8 374 29 q 232 -12 286 -12 m 226 849 l 111 968 l 136 968 l 236 868 l 332 968 l 360 968 l 247 849 l 226 849 z "},"Ş":{"ha":481,"x_min":56,"x_max":425,"o":"m 232 -12 q 139 9 179 -12 q 77 83 99 31 q 56 226 56 136 l 56 243 l 78 243 l 78 226 q 98 96 78 143 q 153 29 118 49 q 232 10 188 10 q 354 52 306 10 q 403 203 403 94 q 378 313 403 275 q 313 372 354 351 q 224 411 272 393 q 137 455 174 431 q 80 518 100 479 q 60 622 60 557 q 101 771 60 715 q 238 826 142 826 q 369 781 321 826 q 418 651 418 735 l 418 596 l 396 596 l 396 646 q 354 763 396 721 q 238 804 313 804 q 117 752 151 804 q 82 622 82 700 q 103 522 82 558 q 160 467 125 486 q 236 431 196 447 q 344 379 303 404 q 406 315 386 354 q 425 203 425 275 q 399 76 425 124 q 330 8 374 29 q 232 -12 286 -12 m 238 -186 q 203 -181 217 -186 q 178 -169 189 -175 l 189 -150 q 238 -165 207 -165 q 297 -119 297 -165 q 250 -79 297 -79 q 196 -93 214 -79 l 185 -79 l 232 0 l 250 0 l 219 -60 q 233 -58 222 -58 q 251 -57 244 -57 q 303 -75 286 -57 q 319 -117 319 -93 q 299 -164 319 -142 q 238 -186 278 -186 z "},"Ə":{"ha":561,"x_min":89,"x_max":468,"o":"m 278 -11 q 182 1 225 -11 q 114 51 139 13 q 89 169 89 90 l 89 343 l 446 343 l 446 650 q 423 758 446 722 q 363 804 400 793 q 279 815 325 815 q 195 804 233 815 q 134 758 157 793 q 111 650 111 722 l 111 558 l 89 558 l 89 657 q 116 776 89 738 q 187 826 143 814 q 281 838 231 838 q 376 825 333 838 q 443 774 418 813 q 468 657 468 736 l 468 169 q 443 51 468 89 q 375 1 418 13 q 278 -11 332 -11 m 111 172 q 133 68 111 103 q 192 22 154 33 q 279 11 231 11 q 367 23 329 11 q 425 72 404 35 q 446 181 446 108 l 446 321 l 111 321 l 111 172 z "},"Ŝ":{"ha":481,"x_min":56,"x_max":425,"o":"m 232 -12 q 139 9 179 -12 q 77 83 99 31 q 56 226 56 136 l 56 243 l 78 243 l 78 226 q 98 96 78 143 q 153 29 118 49 q 232 10 188 10 q 354 52 306 10 q 403 203 403 94 q 378 313 403 275 q 313 372 354 351 q 224 411 272 393 q 137 455 174 431 q 80 518 100 479 q 60 622 60 557 q 101 771 60 715 q 238 826 142 826 q 369 781 321 826 q 418 651 418 735 l 418 596 l 396 596 l 396 646 q 354 763 396 721 q 238 804 313 804 q 117 752 151 804 q 82 622 82 700 q 103 522 82 558 q 160 467 125 486 q 236 431 196 447 q 344 379 303 404 q 406 315 386 354 q 425 203 425 275 q 399 76 425 124 q 330 8 374 29 q 232 -12 286 -12 m 114 867 l 229 986 l 250 986 l 363 867 l 335 867 l 239 967 l 139 867 l 114 867 z "},"Ș":{"ha":481,"x_min":56,"x_max":425,"o":"m 232 -12 q 139 9 179 -12 q 77 83 99 31 q 56 226 56 136 l 56 243 l 78 243 l 78 226 q 98 96 78 143 q 153 29 118 49 q 232 10 188 10 q 354 52 306 10 q 403 203 403 94 q 378 313 403 275 q 313 372 354 351 q 224 411 272 393 q 137 455 174 431 q 80 518 100 479 q 60 622 60 557 q 101 771 60 715 q 238 826 142 826 q 369 781 321 826 q 418 651 418 735 l 418 596 l 396 596 l 396 646 q 354 763 396 721 q 238 804 313 804 q 117 752 151 804 q 82 622 82 700 q 103 522 82 558 q 160 467 125 486 q 236 431 196 447 q 344 379 303 404 q 406 315 386 354 q 425 203 425 275 q 399 76 425 124 q 330 8 374 29 q 232 -12 286 -12 m 204 -181 q 223 -148 211 -169 q 235 -112 235 -126 q 226 -97 235 -101 q 217 -76 217 -93 q 222 -63 217 -69 q 238 -57 228 -57 q 257 -65 251 -57 q 263 -83 263 -72 q 249 -133 263 -106 q 219 -181 235 -161 l 204 -181 z "},"Ш":{"ha":869,"x_min":106,"x_max":764,"o":"m 106 0 l 106 821 l 128 821 l 128 22 l 424 22 l 424 821 l 446 821 l 446 22 l 742 22 l 742 821 l 764 821 l 764 0 l 106 0 z "},"Щ":{"ha":881,"x_min":106,"x_max":803,"o":"m 106 0 l 106 821 l 128 821 l 128 22 l 429 22 l 429 821 l 451 821 l 451 22 l 753 22 l 753 821 l 775 821 l 775 22 l 803 22 l 803 -103 l 781 -103 l 781 0 l 106 0 z "},"Ь":{"ha":525,"x_min":106,"x_max":443,"o":"m 106 0 l 106 817 l 126 817 l 126 604 l 278 604 q 370 588 336 604 q 419 545 404 572 q 439 486 435 518 q 443 422 443 454 l 443 182 q 435 97 443 139 q 392 28 426 56 q 278 0 357 0 l 106 0 m 126 21 l 272 21 q 376 45 344 21 q 415 108 407 69 q 422 186 422 146 l 422 418 q 415 497 422 460 q 376 559 407 535 q 272 583 344 583 l 126 583 l 126 21 z "},"T":{"ha":363,"x_min":15,"x_max":347,"o":"m 169 0 l 169 799 l 15 799 l 15 821 l 347 821 l 347 799 l 192 799 l 192 0 l 169 0 z "},"Ŧ":{"ha":363,"x_min":15,"x_max":347,"o":"m 169 0 l 169 799 l 15 799 l 15 821 l 347 821 l 347 799 l 192 799 l 192 0 l 169 0 m 60 539 l 60 560 l 297 560 l 297 539 l 60 539 z "},"Ť":{"ha":363,"x_min":15,"x_max":347,"o":"m 169 0 l 169 799 l 15 799 l 15 821 l 347 821 l 347 799 l 192 799 l 192 0 l 169 0 m 168 849 l 53 968 l 78 968 l 178 868 l 274 968 l 301 968 l 189 849 l 168 849 z "},"Ţ":{"ha":363,"x_min":15,"x_max":347,"o":"m 169 0 l 169 799 l 15 799 l 15 821 l 347 821 l 347 799 l 192 799 l 192 0 l 169 0 m 179 -186 q 144 -181 158 -186 q 119 -169 131 -175 l 131 -150 q 179 -165 149 -165 q 239 -119 239 -165 q 192 -79 239 -79 q 138 -93 156 -79 l 126 -79 l 174 0 l 192 0 l 161 -60 q 175 -58 164 -58 q 193 -57 186 -57 q 244 -75 228 -57 q 261 -117 261 -93 q 240 -164 261 -142 q 179 -186 219 -186 z "},"Ț":{"ha":363,"x_min":15,"x_max":347,"o":"m 169 0 l 169 799 l 15 799 l 15 821 l 347 821 l 347 799 l 192 799 l 192 0 l 169 0 m 146 -181 q 165 -148 153 -169 q 176 -112 176 -126 q 167 -97 176 -101 q 158 -76 158 -93 q 164 -63 158 -69 q 179 -57 169 -57 q 199 -65 193 -57 q 204 -83 204 -72 q 190 -133 204 -106 q 161 -181 176 -161 l 146 -181 z "},"Т":{"ha":363,"x_min":15,"x_max":347,"o":"m 169 0 l 169 799 l 15 799 l 15 821 l 347 821 l 347 799 l 192 799 l 192 0 l 169 0 z "},"Þ":{"ha":532,"x_min":106,"x_max":481,"o":"m 106 0 l 106 821 l 128 821 l 128 654 l 333 654 q 437 624 393 654 q 481 519 481 594 l 481 375 q 466 297 481 335 q 415 234 451 258 q 314 210 379 210 l 128 210 l 128 0 l 106 0 m 128 232 l 308 232 q 417 265 376 232 q 458 375 458 299 l 458 515 q 422 603 458 575 q 339 632 386 632 l 128 632 l 128 232 z "},"Ц":{"ha":557,"x_min":106,"x_max":479,"o":"m 457 -103 l 457 0 l 106 0 l 106 821 l 128 821 l 128 22 l 429 22 l 429 821 l 451 821 l 451 22 l 479 22 l 479 -103 l 457 -103 z "},"Ћ":{"ha":601,"x_min":15,"x_max":508,"o":"m 169 0 l 169 799 l 15 799 l 15 821 l 347 821 l 347 799 l 192 799 l 192 526 q 242 583 207 558 q 343 607 278 607 q 435 591 401 607 q 485 548 469 575 q 504 489 500 521 q 508 425 508 457 l 508 0 l 486 0 l 486 413 q 479 494 486 454 q 442 559 472 533 q 343 585 413 585 q 232 547 267 585 q 192 449 197 508 l 192 0 l 169 0 z "},"U":{"ha":596,"x_min":103,"x_max":493,"o":"m 290 -12 q 196 0 239 -12 q 128 49 153 13 q 103 157 103 85 l 103 821 l 125 821 l 125 161 q 149 65 125 97 q 210 21 172 32 q 290 10 249 10 q 374 21 333 10 q 443 65 415 32 q 471 161 471 97 l 471 821 l 493 821 l 493 157 q 465 49 493 85 q 390 0 436 13 q 290 -12 343 -12 z "},"У":{"ha":413,"x_min":17,"x_max":399,"o":"m 85 -26 q 42 -23 64 -26 q 17 -18 19 -19 l 17 1 q 40 -3 19 0 q 85 -7 61 -7 q 131 4 107 -7 q 177 44 156 15 q 207 128 199 74 l 39 821 l 61 821 l 218 171 l 376 821 l 399 821 l 231 132 q 180 17 213 60 q 85 -26 147 -26 z "},"Ú":{"ha":596,"x_min":103,"x_max":493,"o":"m 290 -12 q 196 0 239 -12 q 128 49 153 13 q 103 157 103 85 l 103 821 l 125 821 l 125 161 q 149 65 125 97 q 210 21 172 32 q 290 10 249 10 q 374 21 333 10 q 443 65 415 32 q 471 161 471 97 l 471 821 l 493 821 l 493 157 q 465 49 493 85 q 390 0 436 13 q 290 -12 343 -12 m 269 879 l 385 983 l 417 983 l 290 879 l 269 879 z "},"Ŭ":{"ha":596,"x_min":103,"x_max":493,"o":"m 290 -12 q 196 0 239 -12 q 128 49 153 13 q 103 157 103 85 l 103 821 l 125 821 l 125 161 q 149 65 125 97 q 210 21 172 32 q 290 10 249 10 q 374 21 333 10 q 443 65 415 32 q 471 161 471 97 l 471 821 l 493 821 l 493 157 q 465 49 493 85 q 390 0 436 13 q 290 -12 343 -12 m 293 867 q 210 901 233 867 q 186 974 186 935 l 208 974 q 235 908 210 928 q 294 889 260 889 q 363 910 331 889 q 396 974 396 931 l 418 974 q 386 901 418 935 q 293 867 354 867 z "},"Ǔ":{"ha":596,"x_min":103,"x_max":493,"o":"m 290 -12 q 196 0 239 -12 q 128 49 153 13 q 103 157 103 85 l 103 821 l 125 821 l 125 161 q 149 65 125 97 q 210 21 172 32 q 290 10 249 10 q 374 21 333 10 q 443 65 415 32 q 471 161 471 97 l 471 821 l 493 821 l 493 157 q 465 49 493 85 q 390 0 436 13 q 290 -12 343 -12 m 288 849 l 172 968 l 197 968 l 297 868 l 393 968 l 421 968 l 308 849 l 288 849 z "},"Û":{"ha":596,"x_min":103,"x_max":493,"o":"m 290 -12 q 196 0 239 -12 q 128 49 153 13 q 103 157 103 85 l 103 821 l 125 821 l 125 161 q 149 65 125 97 q 210 21 172 32 q 290 10 249 10 q 374 21 333 10 q 443 65 415 32 q 471 161 471 97 l 471 821 l 493 821 l 493 157 q 465 49 493 85 q 390 0 436 13 q 290 -12 343 -12 m 175 867 l 290 986 l 311 986 l 424 867 l 396 867 l 300 967 l 200 867 l 175 867 z "},"Ȕ":{"ha":596,"x_min":103,"x_max":493,"o":"m 290 -12 q 196 0 239 -12 q 128 49 153 13 q 103 157 103 85 l 103 821 l 125 821 l 125 161 q 149 65 125 97 q 210 21 172 32 q 290 10 249 10 q 374 21 333 10 q 443 65 415 32 q 471 161 471 97 l 471 821 l 493 821 l 493 157 q 465 49 493 85 q 390 0 436 13 q 290 -12 343 -12 m 342 890 l 243 1010 l 271 1010 l 363 890 l 342 890 m 289 889 l 190 1008 l 218 1008 l 310 889 l 289 889 z "},"Ü":{"ha":596,"x_min":103,"x_max":493,"o":"m 290 -12 q 196 0 239 -12 q 128 49 153 13 q 103 157 103 85 l 103 821 l 125 821 l 125 161 q 149 65 125 97 q 210 21 172 32 q 290 10 249 10 q 374 21 333 10 q 443 65 415 32 q 471 161 471 97 l 471 821 l 493 821 l 493 157 q 465 49 493 85 q 390 0 436 13 q 290 -12 343 -12 m 353 893 q 333 913 333 893 q 353 932 333 932 q 372 913 372 932 q 353 893 372 893 m 246 893 q 226 913 226 893 q 246 932 226 932 q 265 913 265 932 q 246 893 265 893 z "},"Ǘ":{"ha":596,"x_min":103,"x_max":493,"o":"m 290 -12 q 196 0 239 -12 q 128 49 153 13 q 103 157 103 85 l 103 821 l 125 821 l 125 161 q 149 65 125 97 q 210 21 172 32 q 290 10 249 10 q 374 21 333 10 q 443 65 415 32 q 471 161 471 97 l 471 821 l 493 821 l 493 157 q 465 49 493 85 q 390 0 436 13 q 290 -12 343 -12 m 353 893 q 333 913 333 893 q 353 932 333 932 q 372 913 372 932 q 353 893 372 893 m 246 893 q 226 913 226 893 q 246 932 226 932 q 265 913 265 932 q 246 893 265 893 m 269 972 l 385 1076 l 417 1076 l 290 972 l 269 972 z "},"Ǚ":{"ha":596,"x_min":103,"x_max":493,"o":"m 290 -12 q 196 0 239 -12 q 128 49 153 13 q 103 157 103 85 l 103 821 l 125 821 l 125 161 q 149 65 125 97 q 210 21 172 32 q 290 10 249 10 q 374 21 333 10 q 443 65 415 32 q 471 161 471 97 l 471 821 l 493 821 l 493 157 q 465 49 493 85 q 390 0 436 13 q 290 -12 343 -12 m 353 893 q 333 913 333 893 q 353 932 333 932 q 372 913 372 932 q 353 893 372 893 m 246 893 q 226 913 226 893 q 246 932 226 932 q 265 913 265 932 q 246 893 265 893 m 288 942 l 172 1061 l 197 1061 l 297 961 l 393 1061 l 421 1061 l 308 942 l 288 942 z "},"Ǜ":{"ha":596,"x_min":103,"x_max":493,"o":"m 290 -12 q 196 0 239 -12 q 128 49 153 13 q 103 157 103 85 l 103 821 l 125 821 l 125 161 q 149 65 125 97 q 210 21 172 32 q 290 10 249 10 q 374 21 333 10 q 443 65 415 32 q 471 161 471 97 l 471 821 l 493 821 l 493 157 q 465 49 493 85 q 390 0 436 13 q 290 -12 343 -12 m 353 893 q 333 913 333 893 q 353 932 333 932 q 372 913 372 932 q 353 893 372 893 m 246 893 q 226 913 226 893 q 246 932 226 932 q 265 913 265 932 q 246 893 265 893 m 326 972 l 200 1076 l 232 1076 l 347 972 l 326 972 z "},"Ǖ":{"ha":596,"x_min":103,"x_max":493,"o":"m 290 -12 q 196 0 239 -12 q 128 49 153 13 q 103 157 103 85 l 103 821 l 125 821 l 125 161 q 149 65 125 97 q 210 21 172 32 q 290 10 249 10 q 374 21 333 10 q 443 65 415 32 q 471 161 471 97 l 471 821 l 493 821 l 493 157 q 465 49 493 85 q 390 0 436 13 q 290 -12 343 -12 m 353 893 q 333 913 333 893 q 353 932 333 932 q 372 913 372 932 q 353 893 372 893 m 246 893 q 226 913 226 893 q 246 932 226 932 q 265 913 265 932 q 246 893 265 893 m 183 999 l 183 1021 l 414 1021 l 414 999 l 183 999 z "},"Ụ":{"ha":596,"x_min":103,"x_max":493,"o":"m 290 -12 q 196 0 239 -12 q 128 49 153 13 q 103 157 103 85 l 103 821 l 125 821 l 125 161 q 149 65 125 97 q 210 21 172 32 q 290 10 249 10 q 374 21 333 10 q 443 65 415 32 q 471 161 471 97 l 471 821 l 493 821 l 493 157 q 465 49 493 85 q 390 0 436 13 q 290 -12 343 -12 m 290 -111 q 271 -92 271 -111 q 290 -72 271 -72 q 310 -92 310 -72 q 290 -111 310 -111 z "},"Ù":{"ha":596,"x_min":103,"x_max":493,"o":"m 290 -12 q 196 0 239 -12 q 128 49 153 13 q 103 157 103 85 l 103 821 l 125 821 l 125 161 q 149 65 125 97 q 210 21 172 32 q 290 10 249 10 q 374 21 333 10 q 443 65 415 32 q 471 161 471 97 l 471 821 l 493 821 l 493 157 q 465 49 493 85 q 390 0 436 13 q 290 -12 343 -12 m 326 879 l 200 983 l 232 983 l 347 879 l 326 879 z "},"Ủ":{"ha":596,"x_min":103,"x_max":493,"o":"m 290 -12 q 196 0 239 -12 q 128 49 153 13 q 103 157 103 85 l 103 821 l 125 821 l 125 161 q 149 65 125 97 q 210 21 172 32 q 290 10 249 10 q 374 21 333 10 q 443 65 415 32 q 471 161 471 97 l 471 821 l 493 821 l 493 157 q 465 49 493 85 q 390 0 436 13 q 290 -12 343 -12 m 285 861 l 285 869 q 301 906 285 894 q 333 927 317 917 q 349 957 349 938 l 349 961 q 341 982 349 972 q 308 992 333 992 q 258 961 267 992 l 240 968 q 308 1011 250 1011 q 369 963 369 1011 l 369 957 q 353 919 369 932 q 322 897 338 906 q 306 872 306 888 l 306 861 l 285 861 z "},"Ư":{"ha":596,"x_min":103,"x_max":596,"o":"m 290 -12 q 196 0 239 -12 q 128 49 153 13 q 103 157 103 85 l 103 821 l 125 821 l 125 161 q 149 65 125 97 q 210 21 172 32 q 290 10 249 10 q 374 21 333 10 q 443 65 415 32 q 471 161 471 97 l 471 821 l 493 821 l 493 157 q 465 49 493 85 q 390 0 436 13 q 290 -12 343 -12 m 488 806 l 485 821 q 550 838 526 821 q 574 896 574 856 l 574 910 l 596 910 l 596 897 q 566 828 596 850 q 488 806 536 806 z "},"Ứ":{"ha":596,"x_min":103,"x_max":596,"o":"m 290 -12 q 196 0 239 -12 q 128 49 153 13 q 103 157 103 85 l 103 821 l 125 821 l 125 161 q 149 65 125 97 q 210 21 172 32 q 290 10 249 10 q 374 21 333 10 q 443 65 415 32 q 471 161 471 97 l 471 821 l 493 821 l 493 157 q 465 49 493 85 q 390 0 436 13 q 290 -12 343 -12 m 488 806 l 485 821 q 550 838 526 821 q 574 896 574 856 l 574 910 l 596 910 l 596 897 q 566 828 596 850 q 488 806 536 806 m 269 879 l 385 983 l 417 983 l 290 879 l 269 879 z "},"Ự":{"ha":596,"x_min":103,"x_max":596,"o":"m 290 -12 q 196 0 239 -12 q 128 49 153 13 q 103 157 103 85 l 103 821 l 125 821 l 125 161 q 149 65 125 97 q 210 21 172 32 q 290 10 249 10 q 374 21 333 10 q 443 65 415 32 q 471 161 471 97 l 471 821 l 493 821 l 493 157 q 465 49 493 85 q 390 0 436 13 q 290 -12 343 -12 m 488 806 l 485 821 q 550 838 526 821 q 574 896 574 856 l 574 910 l 596 910 l 596 897 q 566 828 596 850 q 488 806 536 806 m 290 -111 q 271 -92 271 -111 q 290 -72 271 -72 q 310 -92 310 -72 q 290 -111 310 -111 z "},"Ừ":{"ha":596,"x_min":103,"x_max":596,"o":"m 290 -12 q 196 0 239 -12 q 128 49 153 13 q 103 157 103 85 l 103 821 l 125 821 l 125 161 q 149 65 125 97 q 210 21 172 32 q 290 10 249 10 q 374 21 333 10 q 443 65 415 32 q 471 161 471 97 l 471 821 l 493 821 l 493 157 q 465 49 493 85 q 390 0 436 13 q 290 -12 343 -12 m 488 806 l 485 821 q 550 838 526 821 q 574 896 574 856 l 574 910 l 596 910 l 596 897 q 566 828 596 850 q 488 806 536 806 m 326 879 l 200 983 l 232 983 l 347 879 l 326 879 z "},"Ử":{"ha":596,"x_min":103,"x_max":596,"o":"m 290 -12 q 196 0 239 -12 q 128 49 153 13 q 103 157 103 85 l 103 821 l 125 821 l 125 161 q 149 65 125 97 q 210 21 172 32 q 290 10 249 10 q 374 21 333 10 q 443 65 415 32 q 471 161 471 97 l 471 821 l 493 821 l 493 157 q 465 49 493 85 q 390 0 436 13 q 290 -12 343 -12 m 488 806 l 485 821 q 550 838 526 821 q 574 896 574 856 l 574 910 l 596 910 l 596 897 q 566 828 596 850 q 488 806 536 806 m 285 861 l 285 869 q 301 906 285 894 q 333 927 317 917 q 349 957 349 938 l 349 961 q 341 982 349 972 q 308 992 333 992 q 258 961 267 992 l 240 968 q 308 1011 250 1011 q 369 963 369 1011 l 369 957 q 353 919 369 932 q 322 897 338 906 q 306 872 306 888 l 306 861 l 285 861 z "},"Ữ":{"ha":596,"x_min":103,"x_max":596,"o":"m 290 -12 q 196 0 239 -12 q 128 49 153 13 q 103 157 103 85 l 103 821 l 125 821 l 125 161 q 149 65 125 97 q 210 21 172 32 q 290 10 249 10 q 374 21 333 10 q 443 65 415 32 q 471 161 471 97 l 471 821 l 493 821 l 493 157 q 465 49 493 85 q 390 0 436 13 q 290 -12 343 -12 m 488 806 l 485 821 q 550 838 526 821 q 574 896 574 856 l 574 910 l 596 910 l 596 897 q 566 828 596 850 q 488 806 536 806 m 354 875 q 313 885 331 875 q 278 906 294 896 q 243 917 263 917 q 219 910 231 917 q 204 881 207 904 l 183 881 q 201 921 186 904 q 243 938 217 938 q 283 927 267 938 q 316 906 300 917 q 354 896 332 896 q 381 903 368 896 q 396 933 393 910 l 417 933 q 397 891 413 907 q 354 875 381 875 z "},"Ű":{"ha":596,"x_min":103,"x_max":493,"o":"m 290 -12 q 196 0 239 -12 q 128 49 153 13 q 103 157 103 85 l 103 821 l 125 821 l 125 161 q 149 65 125 97 q 210 21 172 32 q 290 10 249 10 q 374 21 333 10 q 443 65 415 32 q 471 161 471 97 l 471 821 l 493 821 l 493 157 q 465 49 493 85 q 390 0 436 13 q 290 -12 343 -12 m 243 879 l 356 983 l 390 983 l 261 879 l 243 879 m 308 878 l 421 982 l 456 982 l 326 878 l 308 878 z "},"Ȗ":{"ha":596,"x_min":103,"x_max":493,"o":"m 290 -12 q 196 0 239 -12 q 128 49 153 13 q 103 157 103 85 l 103 821 l 125 821 l 125 161 q 149 65 125 97 q 210 21 172 32 q 290 10 249 10 q 374 21 333 10 q 443 65 415 32 q 471 161 471 97 l 471 821 l 493 821 l 493 157 q 465 49 493 85 q 390 0 436 13 q 290 -12 343 -12 m 176 893 q 208 967 176 933 q 301 1000 240 1000 q 385 966 363 1000 q 408 893 408 932 l 386 893 q 360 958 385 939 q 300 978 336 978 q 231 957 264 978 q 199 893 199 936 l 176 893 z "},"Ū":{"ha":596,"x_min":103,"x_max":493,"o":"m 290 -12 q 196 0 239 -12 q 128 49 153 13 q 103 157 103 85 l 103 821 l 125 821 l 125 161 q 149 65 125 97 q 210 21 172 32 q 290 10 249 10 q 374 21 333 10 q 443 65 415 32 q 471 161 471 97 l 471 821 l 493 821 l 493 157 q 465 49 493 85 q 390 0 436 13 q 290 -12 343 -12 m 183 906 l 183 928 l 414 928 l 414 906 l 183 906 z "},"Ų":{"ha":596,"x_min":103,"x_max":493,"o":"m 290 -12 q 196 0 239 -12 q 128 49 153 13 q 103 157 103 85 l 103 821 l 125 821 l 125 161 q 149 65 125 97 q 210 21 172 32 q 290 10 249 10 q 374 21 333 10 q 443 65 415 32 q 471 161 471 97 l 471 821 l 493 821 l 493 157 q 465 49 493 85 q 390 0 436 13 q 290 -12 343 -12 m 308 -179 q 248 -159 271 -179 q 225 -104 225 -139 q 250 -40 225 -68 q 300 0 275 -12 l 322 0 q 272 -46 296 -17 q 247 -104 247 -75 q 265 -143 247 -128 q 308 -158 282 -158 q 356 -147 333 -158 l 364 -164 q 337 -176 351 -172 q 308 -179 322 -179 z "},"Ů":{"ha":596,"x_min":103,"x_max":493,"o":"m 290 -12 q 196 0 239 -12 q 128 49 153 13 q 103 157 103 85 l 103 821 l 125 821 l 125 161 q 149 65 125 97 q 210 21 172 32 q 290 10 249 10 q 374 21 333 10 q 443 65 415 32 q 471 161 471 97 l 471 821 l 493 821 l 493 157 q 465 49 493 85 q 390 0 436 13 q 290 -12 343 -12 m 300 860 q 246 881 268 860 q 224 933 224 903 q 246 985 224 964 q 299 1007 268 1007 q 352 985 331 1007 q 374 933 374 964 q 353 881 374 903 q 300 860 332 860 m 299 882 q 336 897 321 882 q 351 933 351 911 q 336 971 351 957 q 299 985 321 985 q 261 971 276 985 q 246 933 246 957 q 261 897 246 911 q 299 882 276 882 z "},"Ў":{"ha":413,"x_min":-186,"x_max":399,"o":"m 274 874 q 190 908 214 874 q 167 981 167 942 l 189 981 q 215 915 190 935 q 275 896 240 896 q 344 917 311 896 q 376 981 376 938 l 399 981 q 367 908 399 942 q 274 874 335 874 m -118 -26 q -161 -23 -139 -26 q -186 -18 -183 -19 l -186 1 q -162 -3 -183 0 q -118 -7 -142 -7 q -72 4 -96 -7 q -26 44 -47 15 q 4 128 -4 74 l -164 821 l -142 821 l 15 171 l 174 821 l 196 821 l 28 132 q -23 17 10 60 q -118 -26 -56 -26 z "},"Ũ":{"ha":596,"x_min":103,"x_max":493,"o":"m 290 -12 q 196 0 239 -12 q 128 49 153 13 q 103 157 103 85 l 103 821 l 125 821 l 125 161 q 149 65 125 97 q 210 21 172 32 q 290 10 249 10 q 374 21 333 10 q 443 65 415 32 q 471 161 471 97 l 471 821 l 493 821 l 493 157 q 465 49 493 85 q 390 0 436 13 q 290 -12 343 -12 m 354 875 q 313 885 331 875 q 278 906 294 896 q 243 917 263 917 q 219 910 231 917 q 204 881 207 904 l 183 881 q 201 921 186 904 q 243 938 217 938 q 283 927 267 938 q 316 906 300 917 q 354 896 332 896 q 381 903 368 896 q 396 933 393 910 l 417 933 q 397 891 413 907 q 354 875 381 875 z "},"V":{"ha":428,"x_min":32,"x_max":396,"o":"m 208 0 l 32 821 l 54 821 l 218 61 l 374 821 l 396 821 l 226 0 l 208 0 z "},"В":{"ha":575,"x_min":106,"x_max":490,"o":"m 106 0 l 106 821 l 332 821 q 440 791 396 821 q 483 686 483 761 l 483 582 q 450 483 483 524 q 358 433 417 443 q 456 393 421 433 q 490 290 490 353 l 490 167 q 469 59 490 94 q 409 12 447 24 q 319 0 371 0 l 106 0 m 128 443 l 303 443 q 421 481 381 443 q 461 583 461 518 l 461 689 q 424 771 461 743 q 332 799 388 799 l 128 799 l 128 443 m 128 22 l 315 22 q 398 33 364 22 q 450 76 432 43 q 468 174 468 108 l 468 297 q 422 396 468 371 q 310 421 376 421 l 128 421 l 128 22 z "},"W":{"ha":713,"x_min":32,"x_max":681,"o":"m 171 0 l 32 821 l 54 821 l 183 63 l 344 821 l 367 821 l 525 49 l 658 821 l 681 821 l 539 0 l 513 0 l 356 768 l 193 0 l 171 0 z "},"Ẃ":{"ha":713,"x_min":32,"x_max":681,"o":"m 171 0 l 32 821 l 54 821 l 183 63 l 344 821 l 367 821 l 525 49 l 658 821 l 681 821 l 539 0 l 513 0 l 356 768 l 193 0 l 171 0 m 331 879 l 446 983 l 478 983 l 351 879 l 331 879 z "},"Ŵ":{"ha":713,"x_min":32,"x_max":681,"o":"m 171 0 l 32 821 l 54 821 l 183 63 l 344 821 l 367 821 l 525 49 l 658 821 l 681 821 l 539 0 l 513 0 l 356 768 l 193 0 l 171 0 m 236 867 l 351 986 l 372 986 l 485 867 l 457 867 l 361 967 l 261 867 l 236 867 z "},"Ẅ":{"ha":713,"x_min":32,"x_max":681,"o":"m 171 0 l 32 821 l 54 821 l 183 63 l 344 821 l 367 821 l 525 49 l 658 821 l 681 821 l 539 0 l 513 0 l 356 768 l 193 0 l 171 0 m 414 893 q 394 913 394 893 q 414 932 394 932 q 433 913 433 932 q 414 893 433 893 m 307 893 q 288 913 288 893 q 307 932 288 932 q 326 913 326 932 q 307 893 326 893 z "},"Ẁ":{"ha":713,"x_min":32,"x_max":681,"o":"m 171 0 l 32 821 l 54 821 l 183 63 l 344 821 l 367 821 l 525 49 l 658 821 l 681 821 l 539 0 l 513 0 l 356 768 l 193 0 l 171 0 m 388 879 l 261 983 l 293 983 l 408 879 l 388 879 z "},"X":{"ha":417,"x_min":36,"x_max":381,"o":"m 36 0 l 176 414 l 51 821 l 74 821 l 196 425 l 219 425 l 357 821 l 381 821 l 239 414 l 378 0 l 353 0 l 219 403 l 197 403 l 60 0 l 36 0 z "},"Y":{"ha":403,"x_min":29,"x_max":374,"o":"m 181 0 l 181 351 l 29 821 l 53 821 l 193 382 l 350 821 l 374 821 l 203 351 l 203 0 l 181 0 z "},"Ý":{"ha":403,"x_min":29,"x_max":374,"o":"m 181 0 l 181 351 l 29 821 l 53 821 l 193 382 l 350 821 l 374 821 l 203 351 l 203 0 l 181 0 m 165 879 l 281 983 l 313 983 l 186 879 l 165 879 z "},"Ѣ":{"ha":538,"x_min":-4,"x_max":456,"o":"m 117 0 l 117 722 l -4 722 l -4 744 l 117 744 l 117 821 l 139 821 l 139 744 l 344 744 l 344 722 l 139 722 l 139 604 l 290 604 q 383 588 349 604 q 432 545 417 572 q 451 486 447 518 q 456 422 456 454 l 456 182 q 447 97 456 139 q 404 28 439 56 q 290 0 369 0 l 117 0 m 139 21 l 285 21 q 388 45 357 21 q 427 108 419 69 q 435 186 435 146 l 435 418 q 427 497 435 460 q 388 559 419 535 q 285 583 357 583 l 139 583 l 139 21 z "},"Ŷ":{"ha":403,"x_min":29,"x_max":374,"o":"m 181 0 l 181 351 l 29 821 l 53 821 l 193 382 l 350 821 l 374 821 l 203 351 l 203 0 l 181 0 m 71 867 l 186 986 l 207 986 l 319 867 l 292 867 l 196 967 l 96 867 l 71 867 z "},"Ÿ":{"ha":403,"x_min":29,"x_max":374,"o":"m 181 0 l 181 351 l 29 821 l 53 821 l 193 382 l 350 821 l 374 821 l 203 351 l 203 0 l 181 0 m 249 893 q 229 913 229 893 q 249 932 229 932 q 268 913 268 932 q 249 893 268 893 m 142 893 q 122 913 122 893 q 142 932 122 932 q 161 913 161 932 q 142 893 161 893 z "},"Ỵ":{"ha":403,"x_min":29,"x_max":374,"o":"m 181 0 l 181 351 l 29 821 l 53 821 l 193 382 l 350 821 l 374 821 l 203 351 l 203 0 l 181 0 m 193 -111 q 174 -92 174 -111 q 193 -72 174 -72 q 213 -92 213 -72 q 193 -111 213 -111 z "},"Ы":{"ha":703,"x_min":106,"x_max":597,"o":"m 106 0 l 106 821 l 126 821 l 126 604 l 278 604 q 370 588 336 604 q 419 545 404 572 q 439 486 435 518 q 443 422 443 454 l 443 182 q 435 97 443 139 q 392 28 426 56 q 278 0 357 0 l 106 0 m 575 0 l 575 821 l 597 821 l 597 0 l 575 0 m 126 21 l 272 21 q 376 45 344 21 q 415 108 407 69 q 422 186 422 146 l 422 418 q 415 497 422 460 q 376 559 407 535 q 272 583 344 583 l 126 583 l 126 21 z "},"Ỳ":{"ha":403,"x_min":29,"x_max":374,"o":"m 181 0 l 181 351 l 29 821 l 53 821 l 193 382 l 350 821 l 374 821 l 203 351 l 203 0 l 181 0 m 222 879 l 96 983 l 128 983 l 243 879 l 222 879 z "},"Ỷ":{"ha":403,"x_min":29,"x_max":374,"o":"m 181 0 l 181 351 l 29 821 l 53 821 l 193 382 l 350 821 l 374 821 l 203 351 l 203 0 l 181 0 m 181 861 l 181 869 q 197 906 181 894 q 228 927 213 917 q 244 957 244 938 l 244 961 q 237 982 244 972 q 204 992 229 992 q 154 961 163 992 l 136 968 q 204 1011 146 1011 q 265 963 265 1011 l 265 957 q 249 919 265 932 q 217 897 233 906 q 201 872 201 888 l 201 861 l 181 861 z "},"Ї":{"ha":233,"x_min":46,"x_max":192,"o":"m 106 0 l 106 821 l 128 821 l 128 0 l 106 0 m 172 893 q 153 913 153 893 q 172 932 153 932 q 192 913 192 932 q 172 893 192 893 m 65 893 q 46 913 46 893 q 65 932 46 932 q 85 913 85 932 q 65 893 85 893 z "},"Ȳ":{"ha":403,"x_min":29,"x_max":374,"o":"m 181 0 l 181 351 l 29 821 l 53 821 l 193 382 l 350 821 l 374 821 l 203 351 l 203 0 l 181 0 m 79 906 l 79 928 l 310 928 l 310 906 l 79 906 z "},"Ỹ":{"ha":403,"x_min":29,"x_max":374,"o":"m 181 0 l 181 351 l 29 821 l 53 821 l 193 382 l 350 821 l 374 821 l 203 351 l 203 0 l 181 0 m 250 875 q 208 885 226 875 q 174 906 190 896 q 139 917 158 917 q 115 910 126 917 q 100 881 103 904 l 79 881 q 97 921 82 904 q 139 938 113 938 q 179 927 163 938 q 212 906 196 917 q 250 896 228 896 q 276 903 264 896 q 292 933 289 910 l 313 933 q 292 891 308 907 q 250 875 276 875 z "},"Ѫ":{"ha":918,"x_min":38,"x_max":881,"o":"m 57 0 l 147 314 q 172 379 157 347 q 217 431 188 411 q 294 451 246 451 l 433 451 l 38 800 l 38 821 l 881 821 l 881 800 l 474 451 l 599 451 q 686 433 656 451 q 733 383 717 414 q 760 314 749 351 l 850 0 l 826 0 l 738 310 q 716 367 729 339 q 677 412 703 394 q 604 429 651 429 l 464 429 l 464 0 l 442 0 l 442 429 l 303 429 q 231 412 257 429 q 191 367 204 394 q 169 310 178 339 l 81 0 l 57 0 m 454 461 l 844 799 l 72 799 l 454 461 z "},"Z":{"ha":375,"x_min":32,"x_max":342,"o":"m 32 0 l 32 14 l 311 801 l 53 799 l 53 821 l 333 821 l 333 801 l 58 22 l 342 22 l 342 0 l 32 0 z "},"Ź":{"ha":375,"x_min":32,"x_max":342,"o":"m 32 0 l 32 14 l 311 801 l 53 799 l 53 821 l 333 821 l 333 801 l 58 22 l 342 22 l 342 0 l 32 0 m 163 879 l 278 983 l 310 983 l 183 879 l 163 879 z "},"Ž":{"ha":375,"x_min":32,"x_max":342,"o":"m 32 0 l 32 14 l 311 801 l 53 799 l 53 821 l 333 821 l 333 801 l 58 22 l 342 22 l 342 0 l 32 0 m 181 849 l 65 968 l 90 968 l 190 868 l 286 968 l 314 968 l 201 849 l 181 849 z "},"Ż":{"ha":375,"x_min":32,"x_max":342,"o":"m 32 0 l 32 14 l 311 801 l 53 799 l 53 821 l 333 821 l 333 801 l 58 22 l 342 22 l 342 0 l 32 0 m 192 889 q 172 908 172 889 q 192 928 172 928 q 211 908 211 928 q 192 889 211 889 z "},"З":{"ha":571,"x_min":94,"x_max":486,"o":"m 290 -11 q 146 41 197 -11 q 94 190 94 93 l 94 254 l 117 254 l 117 190 q 161 55 117 97 q 290 10 206 13 q 464 190 464 14 l 464 226 q 420 366 464 314 q 290 418 376 418 l 201 418 l 201 440 l 290 440 q 410 490 365 440 q 454 611 454 539 l 454 638 q 416 760 454 715 q 290 804 378 804 q 164 760 203 804 q 125 638 125 715 l 125 596 l 103 596 l 103 639 q 150 776 103 725 q 290 826 197 826 q 431 776 383 826 q 478 639 478 725 l 478 614 q 438 492 478 542 q 332 429 399 442 q 422 392 388 422 q 471 318 456 361 q 486 226 486 275 l 486 190 q 433 40 486 90 q 290 -11 381 -11 z "},"Ж":{"ha":694,"x_min":18,"x_max":676,"o":"m 18 0 l 276 425 l 25 821 l 50 821 l 297 431 l 336 431 l 336 821 l 358 821 l 358 431 l 396 431 l 644 821 l 669 821 l 418 425 l 676 0 l 650 0 l 403 408 l 358 408 l 358 0 l 336 0 l 336 408 l 292 408 l 44 0 l 18 0 z "},"a":{"ha":492,"x_min":75,"x_max":407,"o":"m 222 -6 q 156 6 190 -6 q 99 51 122 17 q 75 156 75 85 l 75 203 q 95 281 75 247 q 144 337 115 314 q 199 374 172 360 q 239 396 226 389 q 326 449 294 426 q 371 497 357 472 q 385 556 385 521 l 385 575 q 365 643 385 622 q 314 669 344 664 q 251 675 283 675 q 160 654 190 675 q 122 599 131 633 q 113 521 113 564 l 113 464 l 90 464 l 90 524 q 122 651 90 604 q 251 697 154 697 q 359 678 326 697 q 399 627 392 658 q 407 558 407 596 l 407 0 l 386 0 l 386 101 q 327 24 369 53 q 222 -6 285 -6 m 226 17 q 322 43 288 17 q 370 115 356 69 q 385 218 385 161 l 385 474 q 324 420 363 443 q 246 374 286 397 q 177 333 211 354 q 120 278 143 311 q 97 192 97 244 l 97 156 q 118 61 97 90 q 169 24 139 32 q 226 17 200 17 z "},"а":{"ha":492,"x_min":75,"x_max":407,"o":"m 222 -6 q 156 6 190 -6 q 99 51 122 17 q 75 156 75 85 l 75 203 q 95 281 75 247 q 144 337 115 314 q 199 374 172 360 q 239 396 226 389 q 326 449 294 426 q 371 497 357 472 q 385 556 385 521 l 385 575 q 365 643 385 622 q 314 669 344 664 q 251 675 283 675 q 160 654 190 675 q 122 599 131 633 q 113 521 113 564 l 113 464 l 90 464 l 90 524 q 122 651 90 604 q 251 697 154 697 q 359 678 326 697 q 399 627 392 658 q 407 558 407 596 l 407 0 l 386 0 l 386 101 q 327 24 369 53 q 222 -6 285 -6 m 226 17 q 322 43 288 17 q 370 115 356 69 q 385 218 385 161 l 385 474 q 324 420 363 443 q 246 374 286 397 q 177 333 211 354 q 120 278 143 311 q 97 192 97 244 l 97 156 q 118 61 97 90 q 169 24 139 32 q 226 17 200 17 z "},"á":{"ha":492,"x_min":75,"x_max":407,"o":"m 222 -6 q 156 6 190 -6 q 99 51 122 17 q 75 156 75 85 l 75 203 q 95 281 75 247 q 144 337 115 314 q 199 374 172 360 q 239 396 226 389 q 326 449 294 426 q 371 497 357 472 q 385 556 385 521 l 385 575 q 365 643 385 622 q 314 669 344 664 q 251 675 283 675 q 160 654 190 675 q 122 599 131 633 q 113 521 113 564 l 113 464 l 90 464 l 90 524 q 122 651 90 604 q 251 697 154 697 q 359 678 326 697 q 399 627 392 658 q 407 558 407 596 l 407 0 l 386 0 l 386 101 q 327 24 369 53 q 222 -6 285 -6 m 226 17 q 322 43 288 17 q 370 115 356 69 q 385 218 385 161 l 385 474 q 324 420 363 443 q 246 374 286 397 q 177 333 211 354 q 120 278 143 311 q 97 192 97 244 l 97 156 q 118 61 97 90 q 169 24 139 32 q 226 17 200 17 m 204 757 l 296 876 l 324 876 l 225 757 l 204 757 z "},"ă":{"ha":492,"x_min":75,"x_max":407,"o":"m 222 -6 q 156 6 190 -6 q 99 51 122 17 q 75 156 75 85 l 75 203 q 95 281 75 247 q 144 337 115 314 q 199 374 172 360 q 239 396 226 389 q 326 449 294 426 q 371 497 357 472 q 385 556 385 521 l 385 575 q 365 643 385 622 q 314 669 344 664 q 251 675 283 675 q 160 654 190 675 q 122 599 131 633 q 113 521 113 564 l 113 464 l 90 464 l 90 524 q 122 651 90 604 q 251 697 154 697 q 359 678 326 697 q 399 627 392 658 q 407 558 407 596 l 407 0 l 386 0 l 386 101 q 327 24 369 53 q 222 -6 285 -6 m 226 17 q 322 43 288 17 q 370 115 356 69 q 385 218 385 161 l 385 474 q 324 420 363 443 q 246 374 286 397 q 177 333 211 354 q 120 278 143 311 q 97 192 97 244 l 97 156 q 118 61 97 90 q 169 24 139 32 q 226 17 200 17 m 249 758 q 165 792 189 758 q 142 865 142 826 l 164 865 q 190 800 165 819 q 250 781 215 781 q 319 801 286 781 q 351 865 351 822 l 374 865 q 342 792 374 826 q 249 758 310 758 z "},"ắ":{"ha":492,"x_min":75,"x_max":407,"o":"m 222 -6 q 156 6 190 -6 q 99 51 122 17 q 75 156 75 85 l 75 203 q 95 281 75 247 q 144 337 115 314 q 199 374 172 360 q 239 396 226 389 q 326 449 294 426 q 371 497 357 472 q 385 556 385 521 l 385 575 q 365 643 385 622 q 314 669 344 664 q 251 675 283 675 q 160 654 190 675 q 122 599 131 633 q 113 521 113 564 l 113 464 l 90 464 l 90 524 q 122 651 90 604 q 251 697 154 697 q 359 678 326 697 q 399 627 392 658 q 407 558 407 596 l 407 0 l 386 0 l 386 101 q 327 24 369 53 q 222 -6 285 -6 m 226 17 q 322 43 288 17 q 370 115 356 69 q 385 218 385 161 l 385 474 q 324 420 363 443 q 246 374 286 397 q 177 333 211 354 q 120 278 143 311 q 97 192 97 244 l 97 156 q 118 61 97 90 q 169 24 139 32 q 226 17 200 17 m 249 758 q 165 792 189 758 q 142 865 142 826 l 164 865 q 190 800 165 819 q 250 781 215 781 q 319 801 286 781 q 351 865 351 822 l 374 865 q 342 792 374 826 q 249 758 310 758 m 204 890 l 296 1010 l 324 1010 l 225 890 l 204 890 z "},"ặ":{"ha":492,"x_min":75,"x_max":407,"o":"m 222 -6 q 156 6 190 -6 q 99 51 122 17 q 75 156 75 85 l 75 203 q 95 281 75 247 q 144 337 115 314 q 199 374 172 360 q 239 396 226 389 q 326 449 294 426 q 371 497 357 472 q 385 556 385 521 l 385 575 q 365 643 385 622 q 314 669 344 664 q 251 675 283 675 q 160 654 190 675 q 122 599 131 633 q 113 521 113 564 l 113 464 l 90 464 l 90 524 q 122 651 90 604 q 251 697 154 697 q 359 678 326 697 q 399 627 392 658 q 407 558 407 596 l 407 0 l 386 0 l 386 101 q 327 24 369 53 q 222 -6 285 -6 m 226 17 q 322 43 288 17 q 370 115 356 69 q 385 218 385 161 l 385 474 q 324 420 363 443 q 246 374 286 397 q 177 333 211 354 q 120 278 143 311 q 97 192 97 244 l 97 156 q 118 61 97 90 q 169 24 139 32 q 226 17 200 17 m 251 -111 q 232 -92 232 -111 q 251 -72 232 -72 q 271 -92 271 -72 q 251 -111 271 -111 m 249 758 q 165 792 189 758 q 142 865 142 826 l 164 865 q 190 800 165 819 q 250 781 215 781 q 319 801 286 781 q 351 865 351 822 l 374 865 q 342 792 374 826 q 249 758 310 758 z "},"ằ":{"ha":492,"x_min":75,"x_max":407,"o":"m 222 -6 q 156 6 190 -6 q 99 51 122 17 q 75 156 75 85 l 75 203 q 95 281 75 247 q 144 337 115 314 q 199 374 172 360 q 239 396 226 389 q 326 449 294 426 q 371 497 357 472 q 385 556 385 521 l 385 575 q 365 643 385 622 q 314 669 344 664 q 251 675 283 675 q 160 654 190 675 q 122 599 131 633 q 113 521 113 564 l 113 464 l 90 464 l 90 524 q 122 651 90 604 q 251 697 154 697 q 359 678 326 697 q 399 627 392 658 q 407 558 407 596 l 407 0 l 386 0 l 386 101 q 327 24 369 53 q 222 -6 285 -6 m 226 17 q 322 43 288 17 q 370 115 356 69 q 385 218 385 161 l 385 474 q 324 420 363 443 q 246 374 286 397 q 177 333 211 354 q 120 278 143 311 q 97 192 97 244 l 97 156 q 118 61 97 90 q 169 24 139 32 q 226 17 200 17 m 249 758 q 165 792 189 758 q 142 865 142 826 l 164 865 q 190 800 165 819 q 250 781 215 781 q 319 801 286 781 q 351 865 351 822 l 374 865 q 342 792 374 826 q 249 758 310 758 m 269 890 l 171 1010 l 199 1010 l 290 890 l 269 890 z "},"ẳ":{"ha":492,"x_min":75,"x_max":407,"o":"m 222 -6 q 156 6 190 -6 q 99 51 122 17 q 75 156 75 85 l 75 203 q 95 281 75 247 q 144 337 115 314 q 199 374 172 360 q 239 396 226 389 q 326 449 294 426 q 371 497 357 472 q 385 556 385 521 l 385 575 q 365 643 385 622 q 314 669 344 664 q 251 675 283 675 q 160 654 190 675 q 122 599 131 633 q 113 521 113 564 l 113 464 l 90 464 l 90 524 q 122 651 90 604 q 251 697 154 697 q 359 678 326 697 q 399 627 392 658 q 407 558 407 596 l 407 0 l 386 0 l 386 101 q 327 24 369 53 q 222 -6 285 -6 m 226 17 q 322 43 288 17 q 370 115 356 69 q 385 218 385 161 l 385 474 q 324 420 363 443 q 246 374 286 397 q 177 333 211 354 q 120 278 143 311 q 97 192 97 244 l 97 156 q 118 61 97 90 q 169 24 139 32 q 226 17 200 17 m 249 758 q 165 792 189 758 q 142 865 142 826 l 164 865 q 190 800 165 819 q 250 781 215 781 q 319 801 286 781 q 351 865 351 822 l 374 865 q 342 792 374 826 q 249 758 310 758 m 243 882 l 243 892 q 260 932 243 919 q 295 956 278 944 q 313 990 313 968 l 313 996 q 304 1019 313 1007 q 268 1031 296 1031 q 214 996 222 1031 l 193 1003 q 216 1040 199 1026 q 268 1053 233 1053 q 335 997 335 1053 l 335 990 q 317 947 335 961 q 283 922 300 932 q 265 894 265 913 l 265 882 l 243 882 z "},"ẵ":{"ha":492,"x_min":75,"x_max":407,"o":"m 222 -6 q 156 6 190 -6 q 99 51 122 17 q 75 156 75 85 l 75 203 q 95 281 75 247 q 144 337 115 314 q 199 374 172 360 q 239 396 226 389 q 326 449 294 426 q 371 497 357 472 q 385 556 385 521 l 385 575 q 365 643 385 622 q 314 669 344 664 q 251 675 283 675 q 160 654 190 675 q 122 599 131 633 q 113 521 113 564 l 113 464 l 90 464 l 90 524 q 122 651 90 604 q 251 697 154 697 q 359 678 326 697 q 399 627 392 658 q 407 558 407 596 l 407 0 l 386 0 l 386 101 q 327 24 369 53 q 222 -6 285 -6 m 226 17 q 322 43 288 17 q 370 115 356 69 q 385 218 385 161 l 385 474 q 324 420 363 443 q 246 374 286 397 q 177 333 211 354 q 120 278 143 311 q 97 192 97 244 l 97 156 q 118 61 97 90 q 169 24 139 32 q 226 17 200 17 m 249 758 q 165 792 189 758 q 142 865 142 826 l 164 865 q 190 800 165 819 q 250 781 215 781 q 319 801 286 781 q 351 865 351 822 l 374 865 q 342 792 374 826 q 249 758 310 758 m 307 897 q 265 908 283 897 q 231 928 247 918 q 196 939 215 939 q 172 933 183 939 q 157 903 160 926 l 136 903 q 154 943 139 926 q 196 960 169 960 q 236 949 219 960 q 269 928 253 939 q 307 918 285 918 q 333 925 321 918 q 349 956 346 932 l 369 956 q 349 913 365 929 q 307 897 333 897 z "},"ǎ":{"ha":492,"x_min":75,"x_max":407,"o":"m 222 -6 q 156 6 190 -6 q 99 51 122 17 q 75 156 75 85 l 75 203 q 95 281 75 247 q 144 337 115 314 q 199 374 172 360 q 239 396 226 389 q 326 449 294 426 q 371 497 357 472 q 385 556 385 521 l 385 575 q 365 643 385 622 q 314 669 344 664 q 251 675 283 675 q 160 654 190 675 q 122 599 131 633 q 113 521 113 564 l 113 464 l 90 464 l 90 524 q 122 651 90 604 q 251 697 154 697 q 359 678 326 697 q 399 627 392 658 q 407 558 407 596 l 407 0 l 386 0 l 386 101 q 327 24 369 53 q 222 -6 285 -6 m 226 17 q 322 43 288 17 q 370 115 356 69 q 385 218 385 161 l 385 474 q 324 420 363 443 q 246 374 286 397 q 177 333 211 354 q 120 278 143 311 q 97 192 97 244 l 97 156 q 118 61 97 90 q 169 24 139 32 q 226 17 200 17 m 256 749 l 140 868 l 165 868 l 265 768 l 361 868 l 389 868 l 276 749 l 256 749 z "},"â":{"ha":492,"x_min":75,"x_max":407,"o":"m 222 -6 q 156 6 190 -6 q 99 51 122 17 q 75 156 75 85 l 75 203 q 95 281 75 247 q 144 337 115 314 q 199 374 172 360 q 239 396 226 389 q 326 449 294 426 q 371 497 357 472 q 385 556 385 521 l 385 575 q 365 643 385 622 q 314 669 344 664 q 251 675 283 675 q 160 654 190 675 q 122 599 131 633 q 113 521 113 564 l 113 464 l 90 464 l 90 524 q 122 651 90 604 q 251 697 154 697 q 359 678 326 697 q 399 627 392 658 q 407 558 407 596 l 407 0 l 386 0 l 386 101 q 327 24 369 53 q 222 -6 285 -6 m 226 17 q 322 43 288 17 q 370 115 356 69 q 385 218 385 161 l 385 474 q 324 420 363 443 q 246 374 286 397 q 177 333 211 354 q 120 278 143 311 q 97 192 97 244 l 97 156 q 118 61 97 90 q 169 24 139 32 q 226 17 200 17 m 126 758 l 242 878 l 263 878 l 375 758 l 347 758 l 251 858 l 151 758 l 126 758 z "},"ấ":{"ha":492,"x_min":75,"x_max":453,"o":"m 222 -6 q 156 6 190 -6 q 99 51 122 17 q 75 156 75 85 l 75 203 q 95 281 75 247 q 144 337 115 314 q 199 374 172 360 q 239 396 226 389 q 326 449 294 426 q 371 497 357 472 q 385 556 385 521 l 385 575 q 365 643 385 622 q 314 669 344 664 q 251 675 283 675 q 160 654 190 675 q 122 599 131 633 q 113 521 113 564 l 113 464 l 90 464 l 90 524 q 122 651 90 604 q 251 697 154 697 q 359 678 326 697 q 399 627 392 658 q 407 558 407 596 l 407 0 l 386 0 l 386 101 q 327 24 369 53 q 222 -6 285 -6 m 226 17 q 322 43 288 17 q 370 115 356 69 q 385 218 385 161 l 385 474 q 324 420 363 443 q 246 374 286 397 q 177 333 211 354 q 120 278 143 311 q 97 192 97 244 l 97 156 q 118 61 97 90 q 169 24 139 32 q 226 17 200 17 m 126 758 l 242 878 l 263 878 l 375 758 l 347 758 l 251 858 l 151 758 l 126 758 m 333 871 l 425 990 l 453 990 l 354 871 l 333 871 z "},"ậ":{"ha":492,"x_min":75,"x_max":407,"o":"m 222 -6 q 156 6 190 -6 q 99 51 122 17 q 75 156 75 85 l 75 203 q 95 281 75 247 q 144 337 115 314 q 199 374 172 360 q 239 396 226 389 q 326 449 294 426 q 371 497 357 472 q 385 556 385 521 l 385 575 q 365 643 385 622 q 314 669 344 664 q 251 675 283 675 q 160 654 190 675 q 122 599 131 633 q 113 521 113 564 l 113 464 l 90 464 l 90 524 q 122 651 90 604 q 251 697 154 697 q 359 678 326 697 q 399 627 392 658 q 407 558 407 596 l 407 0 l 386 0 l 386 101 q 327 24 369 53 q 222 -6 285 -6 m 226 17 q 322 43 288 17 q 370 115 356 69 q 385 218 385 161 l 385 474 q 324 420 363 443 q 246 374 286 397 q 177 333 211 354 q 120 278 143 311 q 97 192 97 244 l 97 156 q 118 61 97 90 q 169 24 139 32 q 226 17 200 17 m 251 -111 q 232 -92 232 -111 q 251 -72 232 -72 q 271 -92 271 -72 q 251 -111 271 -111 m 126 758 l 242 878 l 263 878 l 375 758 l 347 758 l 251 858 l 151 758 l 126 758 z "},"ầ":{"ha":492,"x_min":75,"x_max":407,"o":"m 222 -6 q 156 6 190 -6 q 99 51 122 17 q 75 156 75 85 l 75 203 q 95 281 75 247 q 144 337 115 314 q 199 374 172 360 q 239 396 226 389 q 326 449 294 426 q 371 497 357 472 q 385 556 385 521 l 385 575 q 365 643 385 622 q 314 669 344 664 q 251 675 283 675 q 160 654 190 675 q 122 599 131 633 q 113 521 113 564 l 113 464 l 90 464 l 90 524 q 122 651 90 604 q 251 697 154 697 q 359 678 326 697 q 399 627 392 658 q 407 558 407 596 l 407 0 l 386 0 l 386 101 q 327 24 369 53 q 222 -6 285 -6 m 226 17 q 322 43 288 17 q 370 115 356 69 q 385 218 385 161 l 385 474 q 324 420 363 443 q 246 374 286 397 q 177 333 211 354 q 120 278 143 311 q 97 192 97 244 l 97 156 q 118 61 97 90 q 169 24 139 32 q 226 17 200 17 m 126 758 l 242 878 l 263 878 l 375 758 l 347 758 l 251 858 l 151 758 l 126 758 m 360 876 l 261 996 l 289 996 l 381 876 l 360 876 z "},"ẩ":{"ha":492,"x_min":75,"x_max":464,"o":"m 222 -6 q 156 6 190 -6 q 99 51 122 17 q 75 156 75 85 l 75 203 q 95 281 75 247 q 144 337 115 314 q 199 374 172 360 q 239 396 226 389 q 326 449 294 426 q 371 497 357 472 q 385 556 385 521 l 385 575 q 365 643 385 622 q 314 669 344 664 q 251 675 283 675 q 160 654 190 675 q 122 599 131 633 q 113 521 113 564 l 113 464 l 90 464 l 90 524 q 122 651 90 604 q 251 697 154 697 q 359 678 326 697 q 399 627 392 658 q 407 558 407 596 l 407 0 l 386 0 l 386 101 q 327 24 369 53 q 222 -6 285 -6 m 226 17 q 322 43 288 17 q 370 115 356 69 q 385 218 385 161 l 385 474 q 324 420 363 443 q 246 374 286 397 q 177 333 211 354 q 120 278 143 311 q 97 192 97 244 l 97 156 q 118 61 97 90 q 169 24 139 32 q 226 17 200 17 m 126 758 l 242 878 l 263 878 l 375 758 l 347 758 l 251 858 l 151 758 l 126 758 m 372 854 l 372 864 q 390 904 372 892 q 424 928 407 917 q 442 963 442 940 l 442 968 q 433 991 442 979 q 397 1003 425 1003 q 343 968 351 1003 l 322 975 q 345 1012 328 999 q 397 1025 363 1025 q 464 969 464 1025 l 464 963 q 447 919 464 933 q 412 894 429 904 q 394 867 394 885 l 394 854 l 372 854 z "},"ẫ":{"ha":492,"x_min":75,"x_max":407,"o":"m 222 -6 q 156 6 190 -6 q 99 51 122 17 q 75 156 75 85 l 75 203 q 95 281 75 247 q 144 337 115 314 q 199 374 172 360 q 239 396 226 389 q 326 449 294 426 q 371 497 357 472 q 385 556 385 521 l 385 575 q 365 643 385 622 q 314 669 344 664 q 251 675 283 675 q 160 654 190 675 q 122 599 131 633 q 113 521 113 564 l 113 464 l 90 464 l 90 524 q 122 651 90 604 q 251 697 154 697 q 359 678 326 697 q 399 627 392 658 q 407 558 407 596 l 407 0 l 386 0 l 386 101 q 327 24 369 53 q 222 -6 285 -6 m 226 17 q 322 43 288 17 q 370 115 356 69 q 385 218 385 161 l 385 474 q 324 420 363 443 q 246 374 286 397 q 177 333 211 354 q 120 278 143 311 q 97 192 97 244 l 97 156 q 118 61 97 90 q 169 24 139 32 q 226 17 200 17 m 126 758 l 242 878 l 263 878 l 375 758 l 347 758 l 251 858 l 151 758 l 126 758 m 313 924 q 271 934 289 924 q 237 955 253 944 q 201 965 221 965 q 177 959 189 965 q 163 929 165 953 l 142 929 q 160 969 144 953 q 201 986 175 986 q 242 976 225 986 q 274 955 258 965 q 313 944 290 944 q 339 951 326 944 q 354 982 351 958 l 375 982 q 355 940 371 956 q 313 924 339 924 z "},"´":{"ha":694,"x_min":288,"x_max":407,"o":"m 288 757 l 379 876 l 407 876 l 308 757 l 288 757 z "},"́":{"ha":0,"x_min":288,"x_max":407,"o":"m 288 757 l 379 876 l 407 876 l 308 757 l 288 757 z "},"ȁ":{"ha":492,"x_min":75,"x_max":407,"o":"m 222 -6 q 156 6 190 -6 q 99 51 122 17 q 75 156 75 85 l 75 203 q 95 281 75 247 q 144 337 115 314 q 199 374 172 360 q 239 396 226 389 q 326 449 294 426 q 371 497 357 472 q 385 556 385 521 l 385 575 q 365 643 385 622 q 314 669 344 664 q 251 675 283 675 q 160 654 190 675 q 122 599 131 633 q 113 521 113 564 l 113 464 l 90 464 l 90 524 q 122 651 90 604 q 251 697 154 697 q 359 678 326 697 q 399 627 392 658 q 407 558 407 596 l 407 0 l 386 0 l 386 101 q 327 24 369 53 q 222 -6 285 -6 m 226 17 q 322 43 288 17 q 370 115 356 69 q 385 218 385 161 l 385 474 q 324 420 363 443 q 246 374 286 397 q 177 333 211 354 q 120 278 143 311 q 97 192 97 244 l 97 156 q 118 61 97 90 q 169 24 139 32 q 226 17 200 17 m 294 757 l 196 876 l 224 876 l 315 757 l 294 757 m 242 756 l 143 875 l 171 875 l 263 756 l 242 756 z "},"ä":{"ha":492,"x_min":75,"x_max":407,"o":"m 222 -6 q 156 6 190 -6 q 99 51 122 17 q 75 156 75 85 l 75 203 q 95 281 75 247 q 144 337 115 314 q 199 374 172 360 q 239 396 226 389 q 326 449 294 426 q 371 497 357 472 q 385 556 385 521 l 385 575 q 365 643 385 622 q 314 669 344 664 q 251 675 283 675 q 160 654 190 675 q 122 599 131 633 q 113 521 113 564 l 113 464 l 90 464 l 90 524 q 122 651 90 604 q 251 697 154 697 q 359 678 326 697 q 399 627 392 658 q 407 558 407 596 l 407 0 l 386 0 l 386 101 q 327 24 369 53 q 222 -6 285 -6 m 226 17 q 322 43 288 17 q 370 115 356 69 q 385 218 385 161 l 385 474 q 324 420 363 443 q 246 374 286 397 q 177 333 211 354 q 120 278 143 311 q 97 192 97 244 l 97 156 q 118 61 97 90 q 169 24 139 32 q 226 17 200 17 m 304 786 q 285 806 285 786 q 304 825 285 825 q 324 806 324 825 q 304 786 324 786 m 197 786 q 178 806 178 786 q 197 825 178 825 q 217 806 217 825 q 197 786 217 786 z "},"ạ":{"ha":492,"x_min":75,"x_max":407,"o":"m 222 -6 q 156 6 190 -6 q 99 51 122 17 q 75 156 75 85 l 75 203 q 95 281 75 247 q 144 337 115 314 q 199 374 172 360 q 239 396 226 389 q 326 449 294 426 q 371 497 357 472 q 385 556 385 521 l 385 575 q 365 643 385 622 q 314 669 344 664 q 251 675 283 675 q 160 654 190 675 q 122 599 131 633 q 113 521 113 564 l 113 464 l 90 464 l 90 524 q 122 651 90 604 q 251 697 154 697 q 359 678 326 697 q 399 627 392 658 q 407 558 407 596 l 407 0 l 386 0 l 386 101 q 327 24 369 53 q 222 -6 285 -6 m 226 17 q 322 43 288 17 q 370 115 356 69 q 385 218 385 161 l 385 474 q 324 420 363 443 q 246 374 286 397 q 177 333 211 354 q 120 278 143 311 q 97 192 97 244 l 97 156 q 118 61 97 90 q 169 24 139 32 q 226 17 200 17 m 251 -111 q 232 -92 232 -111 q 251 -72 232 -72 q 271 -92 271 -72 q 251 -111 271 -111 z "},"æ":{"ha":796,"x_min":75,"x_max":717,"o":"m 551 -10 q 456 8 490 -10 q 407 51 422 25 l 407 0 l 386 0 l 386 101 q 327 24 369 53 q 222 -6 285 -6 q 156 6 190 -6 q 99 51 122 17 q 75 156 75 85 l 75 203 q 95 281 75 247 q 144 337 115 314 q 199 374 172 360 q 239 396 226 389 q 326 449 294 426 q 371 497 357 472 q 385 556 385 521 l 385 575 q 365 643 385 622 q 314 669 344 664 q 251 675 283 675 q 160 654 190 675 q 122 599 131 633 q 113 521 113 564 l 113 464 l 90 464 l 90 524 q 122 651 90 604 q 251 697 154 697 q 361 676 329 697 q 401 622 393 656 q 451 677 417 656 q 551 699 485 699 q 664 672 629 699 q 708 604 699 646 q 717 517 717 563 l 717 365 l 407 365 l 407 176 q 415 98 407 136 q 453 36 422 60 q 551 13 483 13 q 649 36 619 13 q 687 97 679 60 q 694 176 694 135 l 694 232 l 717 232 l 717 172 q 708 88 717 129 q 665 18 700 46 q 551 -10 631 -10 m 407 388 l 694 388 l 694 504 q 688 592 694 553 q 651 653 681 631 q 551 676 621 676 q 459 655 490 676 q 417 595 428 633 q 407 504 407 557 l 407 388 m 226 17 q 322 43 288 17 q 370 115 356 69 q 385 218 385 161 l 385 474 q 324 420 363 443 q 246 374 286 397 q 177 333 211 354 q 120 278 143 311 q 97 192 97 244 l 97 156 q 118 61 97 90 q 169 24 139 32 q 226 17 200 17 z "},"ǽ":{"ha":796,"x_min":75,"x_max":717,"o":"m 551 -10 q 456 8 490 -10 q 407 51 422 25 l 407 0 l 386 0 l 386 101 q 327 24 369 53 q 222 -6 285 -6 q 156 6 190 -6 q 99 51 122 17 q 75 156 75 85 l 75 203 q 95 281 75 247 q 144 337 115 314 q 199 374 172 360 q 239 396 226 389 q 326 449 294 426 q 371 497 357 472 q 385 556 385 521 l 385 575 q 365 643 385 622 q 314 669 344 664 q 251 675 283 675 q 160 654 190 675 q 122 599 131 633 q 113 521 113 564 l 113 464 l 90 464 l 90 524 q 122 651 90 604 q 251 697 154 697 q 361 676 329 697 q 401 622 393 656 q 451 677 417 656 q 551 699 485 699 q 664 672 629 699 q 708 604 699 646 q 717 517 717 563 l 717 365 l 407 365 l 407 176 q 415 98 407 136 q 453 36 422 60 q 551 13 483 13 q 649 36 619 13 q 687 97 679 60 q 694 176 694 135 l 694 232 l 717 232 l 717 172 q 708 88 717 129 q 665 18 700 46 q 551 -10 631 -10 m 407 388 l 694 388 l 694 504 q 688 592 694 553 q 651 653 681 631 q 551 676 621 676 q 459 655 490 676 q 417 595 428 633 q 407 504 407 557 l 407 388 m 226 17 q 322 43 288 17 q 370 115 356 69 q 385 218 385 161 l 385 474 q 324 420 363 443 q 246 374 286 397 q 177 333 211 354 q 120 278 143 311 q 97 192 97 244 l 97 156 q 118 61 97 90 q 169 24 139 32 q 226 17 200 17 m 368 754 l 460 874 l 488 874 l 389 754 l 368 754 z "},"à":{"ha":492,"x_min":75,"x_max":407,"o":"m 222 -6 q 156 6 190 -6 q 99 51 122 17 q 75 156 75 85 l 75 203 q 95 281 75 247 q 144 337 115 314 q 199 374 172 360 q 239 396 226 389 q 326 449 294 426 q 371 497 357 472 q 385 556 385 521 l 385 575 q 365 643 385 622 q 314 669 344 664 q 251 675 283 675 q 160 654 190 675 q 122 599 131 633 q 113 521 113 564 l 113 464 l 90 464 l 90 524 q 122 651 90 604 q 251 697 154 697 q 359 678 326 697 q 399 627 392 658 q 407 558 407 596 l 407 0 l 386 0 l 386 101 q 327 24 369 53 q 222 -6 285 -6 m 226 17 q 322 43 288 17 q 370 115 356 69 q 385 218 385 161 l 385 474 q 324 420 363 443 q 246 374 286 397 q 177 333 211 354 q 120 278 143 311 q 97 192 97 244 l 97 156 q 118 61 97 90 q 169 24 139 32 q 226 17 200 17 m 269 757 l 171 876 l 199 876 l 290 757 l 269 757 z "},"ả":{"ha":492,"x_min":75,"x_max":407,"o":"m 222 -6 q 156 6 190 -6 q 99 51 122 17 q 75 156 75 85 l 75 203 q 95 281 75 247 q 144 337 115 314 q 199 374 172 360 q 239 396 226 389 q 326 449 294 426 q 371 497 357 472 q 385 556 385 521 l 385 575 q 365 643 385 622 q 314 669 344 664 q 251 675 283 675 q 160 654 190 675 q 122 599 131 633 q 113 521 113 564 l 113 464 l 90 464 l 90 524 q 122 651 90 604 q 251 697 154 697 q 359 678 326 697 q 399 627 392 658 q 407 558 407 596 l 407 0 l 386 0 l 386 101 q 327 24 369 53 q 222 -6 285 -6 m 226 17 q 322 43 288 17 q 370 115 356 69 q 385 218 385 161 l 385 474 q 324 420 363 443 q 246 374 286 397 q 177 333 211 354 q 120 278 143 311 q 97 192 97 244 l 97 156 q 118 61 97 90 q 169 24 139 32 q 226 17 200 17 m 243 749 l 243 758 q 260 799 243 786 q 295 823 278 811 q 313 857 313 835 l 313 863 q 304 885 313 874 q 268 897 296 897 q 214 863 222 897 l 193 869 q 216 906 199 893 q 268 919 233 919 q 335 864 335 919 l 335 857 q 317 813 335 828 q 283 789 300 799 q 265 761 265 779 l 265 749 l 243 749 z "},"ȃ":{"ha":492,"x_min":75,"x_max":407,"o":"m 222 -6 q 156 6 190 -6 q 99 51 122 17 q 75 156 75 85 l 75 203 q 95 281 75 247 q 144 337 115 314 q 199 374 172 360 q 239 396 226 389 q 326 449 294 426 q 371 497 357 472 q 385 556 385 521 l 385 575 q 365 643 385 622 q 314 669 344 664 q 251 675 283 675 q 160 654 190 675 q 122 599 131 633 q 113 521 113 564 l 113 464 l 90 464 l 90 524 q 122 651 90 604 q 251 697 154 697 q 359 678 326 697 q 399 627 392 658 q 407 558 407 596 l 407 0 l 386 0 l 386 101 q 327 24 369 53 q 222 -6 285 -6 m 226 17 q 322 43 288 17 q 370 115 356 69 q 385 218 385 161 l 385 474 q 324 420 363 443 q 246 374 286 397 q 177 333 211 354 q 120 278 143 311 q 97 192 97 244 l 97 156 q 118 61 97 90 q 169 24 139 32 q 226 17 200 17 m 129 760 q 161 833 129 800 q 254 867 193 867 q 338 833 315 867 q 361 760 361 799 l 339 760 q 313 825 338 806 q 253 844 289 844 q 184 824 217 844 q 151 760 151 803 l 129 760 z "},"ā":{"ha":492,"x_min":75,"x_max":407,"o":"m 222 -6 q 156 6 190 -6 q 99 51 122 17 q 75 156 75 85 l 75 203 q 95 281 75 247 q 144 337 115 314 q 199 374 172 360 q 239 396 226 389 q 326 449 294 426 q 371 497 357 472 q 385 556 385 521 l 385 575 q 365 643 385 622 q 314 669 344 664 q 251 675 283 675 q 160 654 190 675 q 122 599 131 633 q 113 521 113 564 l 113 464 l 90 464 l 90 524 q 122 651 90 604 q 251 697 154 697 q 359 678 326 697 q 399 627 392 658 q 407 558 407 596 l 407 0 l 386 0 l 386 101 q 327 24 369 53 q 222 -6 285 -6 m 226 17 q 322 43 288 17 q 370 115 356 69 q 385 218 385 161 l 385 474 q 324 420 363 443 q 246 374 286 397 q 177 333 211 354 q 120 278 143 311 q 97 192 97 244 l 97 156 q 118 61 97 90 q 169 24 139 32 q 226 17 200 17 m 140 786 l 140 808 l 363 808 l 363 786 l 140 786 z "},"&":{"ha":722,"x_min":97,"x_max":667,"o":"m 300 -8 q 181 19 225 -8 q 117 92 136 46 q 97 192 97 138 l 97 247 q 140 370 97 315 q 253 436 182 425 q 219 494 231 464 q 207 563 207 524 q 245 666 207 629 q 367 703 283 703 q 456 693 415 703 q 511 676 496 683 l 511 651 q 452 670 493 660 q 367 681 411 681 q 264 652 296 681 q 232 574 232 624 l 232 564 q 247 492 232 521 q 281 439 263 463 q 378 322 329 381 q 478 204 428 263 l 478 440 l 656 440 l 656 418 l 500 418 l 500 176 q 538 134 514 160 q 587 82 561 108 q 635 37 613 56 q 667 17 657 18 l 667 -6 q 592 47 639 1 q 497 146 546 93 q 474 75 497 111 q 408 15 451 39 q 300 -8 364 -8 m 300 14 q 431 58 383 14 q 478 171 478 103 q 370 297 424 235 q 268 418 317 358 q 201 398 235 421 q 143 335 167 375 q 119 247 119 296 l 119 186 q 166 58 119 101 q 300 14 213 14 z "},"ą":{"ha":492,"x_min":75,"x_max":449,"o":"m 222 -6 q 156 6 190 -6 q 99 51 122 17 q 75 156 75 85 l 75 203 q 95 281 75 247 q 144 337 115 314 q 199 374 172 360 q 239 396 226 389 q 326 449 294 426 q 371 497 357 472 q 385 556 385 521 l 385 575 q 365 643 385 622 q 314 669 344 664 q 251 675 283 675 q 160 654 190 675 q 122 599 131 633 q 113 521 113 564 l 113 464 l 90 464 l 90 524 q 122 651 90 604 q 251 697 154 697 q 359 678 326 697 q 399 627 392 658 q 407 558 407 596 l 407 0 l 386 0 l 386 101 q 327 24 369 53 q 222 -6 285 -6 m 226 17 q 322 43 288 17 q 370 115 356 69 q 385 218 385 161 l 385 474 q 324 420 363 443 q 246 374 286 397 q 177 333 211 354 q 120 278 143 311 q 97 192 97 244 l 97 156 q 118 61 97 90 q 169 24 139 32 q 226 17 200 17 m 393 -179 q 333 -159 356 -179 q 310 -104 310 -139 q 335 -40 310 -68 q 385 0 360 -12 l 407 0 q 356 -46 381 -17 q 332 -104 332 -75 q 349 -143 332 -128 q 393 -158 367 -158 q 440 -147 418 -158 l 449 -164 q 422 -176 436 -172 q 393 -179 407 -179 z "},"ʼ":{"ha":139,"x_min":43,"x_max":110,"o":"m 43 710 q 65 753 51 725 q 78 799 78 781 q 67 818 78 813 q 57 844 57 824 q 63 863 57 854 q 81 871 69 871 q 103 860 96 871 q 110 836 110 850 q 94 772 110 808 q 61 710 79 736 l 43 710 z "},"":{"ha":869,"x_min":69,"x_max":786,"o":"m 458 675 q 481 769 458 724 q 536 843 503 814 q 604 872 569 872 q 612 860 610 872 q 614 838 614 849 l 614 824 q 591 758 611 793 q 538 699 571 724 q 458 675 504 675 m 289 -10 q 235 13 257 -10 q 115 178 161 79 q 69 394 69 278 q 93 525 69 474 q 151 606 117 576 q 220 648 186 636 q 274 660 254 660 q 333 649 304 660 q 388 628 361 639 q 435 618 414 618 q 471 622 456 618 q 510 633 486 625 q 576 657 533 642 l 610 663 q 684 649 642 663 q 761 586 726 635 q 697 518 729 564 q 664 406 664 472 q 697 290 664 344 q 786 207 731 235 q 743 110 772 161 q 676 25 714 60 q 597 -10 639 -10 q 548 -3 565 -10 q 515 11 531 3 q 484 26 500 21 q 443 32 468 32 q 397 24 413 32 q 367 10 382 17 q 337 -4 354 1 q 289 -10 319 -10 z "},"≈":{"ha":626,"x_min":69,"x_max":557,"o":"m 429 457 q 363 467 392 457 q 308 489 335 478 q 255 511 282 501 q 192 521 228 521 q 93 458 106 521 l 69 458 q 108 521 76 499 q 192 543 140 543 q 262 533 232 543 q 318 510 292 522 q 369 489 343 499 q 429 479 394 479 q 535 543 524 479 l 557 543 q 518 480 551 503 q 429 457 485 457 m 429 176 q 363 187 392 176 q 308 208 335 197 q 255 231 282 221 q 192 240 228 240 q 93 178 106 240 l 69 178 q 108 240 76 218 q 192 263 140 263 q 262 252 232 263 q 318 229 292 242 q 369 208 343 218 q 429 199 394 199 q 535 263 524 199 l 557 263 q 518 199 551 222 q 429 176 485 176 z "},"å":{"ha":492,"x_min":75,"x_max":407,"o":"m 222 -6 q 156 6 190 -6 q 99 51 122 17 q 75 156 75 85 l 75 203 q 95 281 75 247 q 144 337 115 314 q 199 374 172 360 q 239 396 226 389 q 326 449 294 426 q 371 497 357 472 q 385 556 385 521 l 385 575 q 365 643 385 622 q 314 669 344 664 q 251 675 283 675 q 160 654 190 675 q 122 599 131 633 q 113 521 113 564 l 113 464 l 90 464 l 90 524 q 122 651 90 604 q 251 697 154 697 q 359 678 326 697 q 399 627 392 658 q 407 558 407 596 l 407 0 l 386 0 l 386 101 q 327 24 369 53 q 222 -6 285 -6 m 226 17 q 322 43 288 17 q 370 115 356 69 q 385 218 385 161 l 385 474 q 324 420 363 443 q 246 374 286 397 q 177 333 211 354 q 120 278 143 311 q 97 192 97 244 l 97 156 q 118 61 97 90 q 169 24 139 32 q 226 17 200 17 m 253 753 q 199 774 221 753 q 176 826 176 796 q 199 878 176 857 q 251 900 221 900 q 305 878 283 900 q 326 826 326 857 q 306 774 326 796 q 253 753 285 753 m 251 775 q 289 790 274 775 q 304 826 304 804 q 289 864 304 850 q 251 878 274 878 q 214 864 229 878 q 199 826 199 850 q 214 790 199 804 q 251 775 229 775 z "},"ǻ":{"ha":492,"x_min":75,"x_max":407,"o":"m 222 -6 q 156 6 190 -6 q 99 51 122 17 q 75 156 75 85 l 75 203 q 95 281 75 247 q 144 337 115 314 q 199 374 172 360 q 239 396 226 389 q 326 449 294 426 q 371 497 357 472 q 385 556 385 521 l 385 575 q 365 643 385 622 q 314 669 344 664 q 251 675 283 675 q 160 654 190 675 q 122 599 131 633 q 113 521 113 564 l 113 464 l 90 464 l 90 524 q 122 651 90 604 q 251 697 154 697 q 359 678 326 697 q 399 627 392 658 q 407 558 407 596 l 407 0 l 386 0 l 386 101 q 327 24 369 53 q 222 -6 285 -6 m 226 17 q 322 43 288 17 q 370 115 356 69 q 385 218 385 161 l 385 474 q 324 420 363 443 q 246 374 286 397 q 177 333 211 354 q 120 278 143 311 q 97 192 97 244 l 97 156 q 118 61 97 90 q 169 24 139 32 q 226 17 200 17 m 253 753 q 199 774 221 753 q 176 826 176 796 q 199 878 176 857 q 251 900 221 900 q 297 885 278 900 l 379 992 l 407 992 l 310 874 q 326 826 326 853 q 306 774 326 796 q 253 753 285 753 m 251 775 q 289 790 274 775 q 304 826 304 804 q 289 864 304 850 q 251 878 274 878 q 214 864 229 878 q 199 826 199 850 q 214 790 199 804 q 251 775 229 775 z "},"^":{"ha":517,"x_min":69,"x_max":447,"o":"m 69 649 l 247 876 l 269 876 l 447 649 l 418 649 l 258 854 l 97 649 l 69 649 z "},"~":{"ha":626,"x_min":69,"x_max":557,"o":"m 429 756 q 363 766 392 756 q 308 788 335 776 q 255 810 282 800 q 192 819 228 819 q 93 757 106 819 l 69 757 q 108 819 76 797 q 192 842 140 842 q 262 831 232 842 q 318 808 292 821 q 369 788 343 797 q 429 778 394 778 q 535 842 524 778 l 557 842 q 518 778 551 801 q 429 756 485 756 z "},"*":{"ha":651,"x_min":56,"x_max":596,"o":"m 168 367 l 150 379 l 308 596 l 56 678 l 63 699 l 315 614 l 315 875 l 338 875 l 335 614 l 589 697 l 596 676 l 340 599 l 501 381 l 482 367 l 325 585 l 168 367 z "},"@":{"ha":1000,"x_min":83,"x_max":917,"o":"m 494 -89 q 247 -39 336 -89 q 120 109 157 11 q 83 349 83 207 q 181 699 83 574 q 493 824 278 824 q 721 787 626 824 q 866 666 815 750 q 917 440 917 582 q 881 197 917 286 q 746 108 844 108 q 679 128 703 108 q 647 178 656 147 q 638 240 638 208 q 575 165 621 189 q 468 142 529 142 q 352 169 389 142 q 315 267 315 196 q 344 343 315 314 q 416 391 372 372 q 504 422 460 410 q 601 464 567 440 q 636 518 636 488 q 596 590 636 571 q 499 610 556 610 q 392 586 435 610 q 350 506 350 563 l 350 469 l 328 469 l 328 504 q 333 542 328 521 q 355 585 338 564 q 407 619 372 606 q 501 632 442 632 q 626 598 592 632 q 660 497 660 564 l 660 243 q 678 164 660 197 q 746 131 696 131 q 857 199 819 131 q 894 422 894 268 q 858 621 894 536 q 735 753 822 706 q 493 801 647 801 q 286 755 374 801 q 152 608 199 708 q 106 344 106 507 q 138 128 106 210 q 226 4 171 46 q 350 -52 281 -37 q 493 -67 419 -67 q 586 -61 529 -67 q 703 -43 643 -56 q 807 -12 764 -31 l 807 -35 q 685 -69 767 -50 q 494 -89 603 -89 m 467 164 q 595 210 553 164 q 638 328 638 257 l 638 465 q 585 429 625 447 q 507 400 546 411 q 428 373 467 389 q 363 331 389 357 q 338 257 338 304 q 369 185 338 206 q 467 164 401 164 z "},"ã":{"ha":492,"x_min":75,"x_max":407,"o":"m 222 -6 q 156 6 190 -6 q 99 51 122 17 q 75 156 75 85 l 75 203 q 95 281 75 247 q 144 337 115 314 q 199 374 172 360 q 239 396 226 389 q 326 449 294 426 q 371 497 357 472 q 385 556 385 521 l 385 575 q 365 643 385 622 q 314 669 344 664 q 251 675 283 675 q 160 654 190 675 q 122 599 131 633 q 113 521 113 564 l 113 464 l 90 464 l 90 524 q 122 651 90 604 q 251 697 154 697 q 359 678 326 697 q 399 627 392 658 q 407 558 407 596 l 407 0 l 386 0 l 386 101 q 327 24 369 53 q 222 -6 285 -6 m 226 17 q 322 43 288 17 q 370 115 356 69 q 385 218 385 161 l 385 474 q 324 420 363 443 q 246 374 286 397 q 177 333 211 354 q 120 278 143 311 q 97 192 97 244 l 97 156 q 118 61 97 90 q 169 24 139 32 q 226 17 200 17 m 307 764 q 265 774 283 764 q 231 795 247 785 q 196 806 215 806 q 172 799 183 806 q 157 769 160 793 l 136 769 q 154 810 139 793 q 196 826 169 826 q 236 816 219 826 q 269 795 253 806 q 307 785 285 785 q 333 792 321 785 q 349 822 346 799 l 369 822 q 349 780 365 796 q 307 764 333 764 z "},"b":{"ha":508,"x_min":94,"x_max":426,"o":"m 261 -10 q 161 12 192 -10 q 117 65 131 33 l 114 0 l 94 0 l 94 875 l 117 875 l 117 624 q 163 676 131 654 q 261 699 196 699 q 353 683 319 699 q 403 640 388 667 q 422 581 418 613 q 426 517 426 549 l 426 172 q 418 88 426 129 q 375 18 410 46 q 261 -10 340 -10 m 261 13 q 359 38 329 13 q 397 104 389 64 q 404 185 404 144 l 404 513 q 397 588 404 550 q 359 651 389 625 q 261 676 329 676 q 147 628 176 676 q 117 508 117 579 l 117 185 q 123 104 117 144 q 159 38 129 64 q 261 13 189 13 z "},"\\":{"ha":614,"x_min":56,"x_max":558,"o":"m 533 -64 l 56 876 l 82 876 l 558 -64 l 533 -64 z "},"|":{"ha":244,"x_min":111,"x_max":133,"o":"m 111 -64 l 111 875 l 133 875 l 133 -64 l 111 -64 z "},"б":{"ha":504,"x_min":82,"x_max":422,"o":"m 253 -14 q 158 3 193 -14 q 108 47 124 19 q 87 107 92 74 q 82 172 82 140 l 82 685 q 103 788 82 754 q 161 834 125 822 q 240 846 197 846 l 292 846 q 335 851 317 846 q 358 869 353 856 l 367 869 l 367 856 q 281 824 367 824 l 244 824 q 144 797 182 824 q 106 685 106 771 l 106 564 q 253 625 143 625 q 348 608 314 625 q 398 564 382 592 q 418 503 414 536 q 422 439 422 471 l 422 172 q 418 107 422 140 q 399 47 414 74 q 349 3 383 19 q 253 -14 314 -14 m 253 8 q 353 33 322 8 q 392 97 385 58 q 400 176 400 136 l 400 435 q 392 515 400 476 q 353 578 385 553 q 253 603 322 603 q 158 583 190 603 q 115 530 126 563 q 104 460 104 497 l 104 176 q 113 97 104 136 q 152 33 121 58 q 253 8 183 8 z "},"{":{"ha":381,"x_min":79,"x_max":293,"o":"m 293 -190 q 184 -136 219 -174 q 149 -22 149 -99 q 169 81 149 36 q 209 164 189 125 q 229 243 229 203 q 207 308 229 282 q 151 349 185 335 q 79 365 117 364 l 79 379 q 151 394 117 379 q 208 433 186 408 q 231 486 231 457 q 210 576 231 533 q 168 666 189 619 q 147 765 147 713 q 190 877 147 840 q 293 924 233 914 l 293 904 q 204 861 238 897 q 171 763 171 825 q 192 670 171 713 q 233 586 213 628 q 253 494 253 544 q 224 417 253 451 q 147 372 196 383 q 225 326 197 358 q 253 253 253 293 q 240 178 253 211 q 212 114 228 144 q 183 51 196 83 q 171 -22 171 18 q 189 -101 171 -71 q 235 -147 207 -132 q 293 -169 264 -162 l 293 -190 z "},"}":{"ha":381,"x_min":88,"x_max":301,"o":"m 88 -190 l 88 -171 q 177 -128 144 -164 q 210 -29 210 -92 q 190 63 210 21 q 149 148 169 106 q 128 239 128 190 q 156 317 128 283 q 233 361 185 350 q 156 408 183 375 q 128 481 128 442 q 140 556 128 522 q 169 619 153 589 q 197 683 185 650 q 210 756 210 715 q 192 835 210 806 q 146 881 174 865 q 88 903 118 897 l 88 924 q 197 869 161 907 q 232 756 232 832 q 212 653 232 697 q 172 570 192 608 q 151 490 151 532 q 174 426 151 453 q 231 385 196 399 q 301 368 265 371 l 301 354 q 230 340 265 354 q 172 301 194 325 q 150 247 150 278 q 171 158 150 201 q 213 68 192 114 q 233 -32 233 22 q 191 -144 233 -107 q 88 -190 149 -181 z "},"[":{"ha":376,"x_min":106,"x_max":343,"o":"m 106 -86 l 106 875 l 343 875 l 343 853 l 128 853 l 128 -64 l 343 -64 l 343 -86 l 106 -86 z "},"]":{"ha":376,"x_min":33,"x_max":271,"o":"m 33 -86 l 33 -64 l 249 -64 l 249 853 l 33 853 l 33 875 l 271 875 l 271 -86 l 33 -86 z "},"˘":{"ha":694,"x_min":232,"x_max":464,"o":"m 339 758 q 256 792 279 758 q 232 865 232 826 l 254 865 q 281 800 256 819 q 340 781 306 781 q 409 801 376 781 q 442 865 442 822 l 464 865 q 432 792 464 826 q 339 758 400 758 z "},"̮":{"ha":0,"x_min":232,"x_max":464,"o":"m 339 -161 q 256 -127 279 -161 q 232 -54 232 -93 l 254 -54 q 281 -119 256 -100 q 340 -139 306 -139 q 409 -118 376 -139 q 442 -54 442 -97 l 464 -54 q 432 -127 464 -93 q 339 -161 400 -161 z "},"̆":{"ha":0,"x_min":232,"x_max":464,"o":"m 339 758 q 256 792 279 758 q 232 865 232 826 l 254 865 q 281 800 256 819 q 340 781 306 781 q 409 801 376 781 q 442 865 442 822 l 464 865 q 432 792 464 826 q 339 758 400 758 z "},"̑":{"ha":0,"x_min":232,"x_max":464,"o":"m 232 760 q 264 833 232 800 q 357 867 296 867 q 441 833 418 867 q 464 760 464 799 l 442 760 q 416 825 440 806 q 356 844 392 844 q 287 824 319 844 q 254 760 254 803 l 232 760 z "},"¦":{"ha":244,"x_min":111,"x_max":133,"o":"m 111 474 l 111 875 l 133 875 l 133 474 l 111 474 m 111 -64 l 111 372 l 133 372 l 133 -64 l 111 -64 z "},"•":{"ha":311,"x_min":69,"x_max":242,"o":"m 154 310 q 95 334 119 310 q 69 396 71 358 q 94 457 69 432 q 157 482 119 482 q 217 457 192 482 q 242 396 242 432 q 217 335 242 360 q 154 310 192 310 z "},"∙":{"ha":240,"x_min":69,"x_max":171,"o":"m 119 343 q 85 357 100 343 q 69 393 71 371 q 84 428 69 414 q 121 443 99 443 q 156 428 142 443 q 171 393 171 414 q 156 358 171 372 q 119 343 142 343 z "},"c":{"ha":479,"x_min":82,"x_max":414,"o":"m 249 -10 q 155 6 189 -10 q 106 49 121 22 q 86 108 90 75 q 82 172 82 140 l 82 517 q 86 581 82 549 q 106 640 90 613 q 155 683 121 667 q 249 699 189 699 q 341 683 307 699 q 390 640 375 667 q 410 581 406 613 q 414 517 414 549 l 414 456 l 392 456 l 392 513 q 384 588 392 550 q 347 651 376 625 q 249 676 317 676 q 150 651 181 676 q 112 588 119 625 q 104 513 104 550 l 104 176 q 112 102 104 140 q 150 38 119 64 q 249 13 181 13 q 347 38 317 13 q 384 102 376 64 q 392 176 392 140 l 392 232 l 414 232 l 414 172 q 406 88 414 129 q 363 18 397 46 q 249 -10 328 -10 z "},"ć":{"ha":479,"x_min":82,"x_max":414,"o":"m 249 -10 q 155 6 189 -10 q 106 49 121 22 q 86 108 90 75 q 82 172 82 140 l 82 517 q 86 581 82 549 q 106 640 90 613 q 155 683 121 667 q 249 699 189 699 q 341 683 307 699 q 390 640 375 667 q 410 581 406 613 q 414 517 414 549 l 414 456 l 392 456 l 392 513 q 384 588 392 550 q 347 651 376 625 q 249 676 317 676 q 150 651 181 676 q 112 588 119 625 q 104 513 104 550 l 104 176 q 112 102 104 140 q 150 38 119 64 q 249 13 181 13 q 347 38 317 13 q 384 102 376 64 q 392 176 392 140 l 392 232 l 414 232 l 414 172 q 406 88 414 129 q 363 18 397 46 q 249 -10 328 -10 m 199 757 l 290 876 l 318 876 l 219 757 l 199 757 z "},"ˇ":{"ha":694,"x_min":224,"x_max":472,"o":"m 339 749 l 224 868 l 249 868 l 349 768 l 444 868 l 472 868 l 360 749 l 339 749 z "},"̌":{"ha":0,"x_min":224,"x_max":472,"o":"m 339 749 l 224 868 l 249 868 l 349 768 l 444 868 l 472 868 l 360 749 l 339 749 z "},"č":{"ha":479,"x_min":82,"x_max":414,"o":"m 249 -10 q 155 6 189 -10 q 106 49 121 22 q 86 108 90 75 q 82 172 82 140 l 82 517 q 86 581 82 549 q 106 640 90 613 q 155 683 121 667 q 249 699 189 699 q 341 683 307 699 q 390 640 375 667 q 410 581 406 613 q 414 517 414 549 l 414 456 l 392 456 l 392 513 q 384 588 392 550 q 347 651 376 625 q 249 676 317 676 q 150 651 181 676 q 112 588 119 625 q 104 513 104 550 l 104 176 q 112 102 104 140 q 150 38 119 64 q 249 13 181 13 q 347 38 317 13 q 384 102 376 64 q 392 176 392 140 l 392 232 l 414 232 l 414 172 q 406 88 414 129 q 363 18 397 46 q 249 -10 328 -10 m 250 749 l 135 868 l 160 868 l 260 768 l 356 868 l 383 868 l 271 749 l 250 749 z "},"ç":{"ha":479,"x_min":82,"x_max":414,"o":"m 249 -10 q 155 6 189 -10 q 106 49 121 22 q 86 108 90 75 q 82 172 82 140 l 82 517 q 86 581 82 549 q 106 640 90 613 q 155 683 121 667 q 249 699 189 699 q 341 683 307 699 q 390 640 375 667 q 410 581 406 613 q 414 517 414 549 l 414 456 l 392 456 l 392 513 q 384 588 392 550 q 347 651 376 625 q 249 676 317 676 q 150 651 181 676 q 112 588 119 625 q 104 513 104 550 l 104 176 q 112 102 104 140 q 150 38 119 64 q 249 13 181 13 q 347 38 317 13 q 384 102 376 64 q 392 176 392 140 l 392 232 l 414 232 l 414 172 q 406 88 414 129 q 363 18 397 46 q 249 -10 328 -10 m 246 -186 q 211 -181 225 -186 q 186 -169 197 -175 l 197 -150 q 246 -165 215 -165 q 306 -119 306 -165 q 258 -79 306 -79 q 204 -93 222 -79 l 193 -79 l 240 0 l 258 0 l 228 -60 q 242 -58 231 -58 q 260 -57 253 -57 q 311 -75 294 -57 q 328 -117 328 -93 q 307 -164 328 -142 q 246 -186 286 -186 z "},"ĉ":{"ha":479,"x_min":82,"x_max":414,"o":"m 249 -10 q 155 6 189 -10 q 106 49 121 22 q 86 108 90 75 q 82 172 82 140 l 82 517 q 86 581 82 549 q 106 640 90 613 q 155 683 121 667 q 249 699 189 699 q 341 683 307 699 q 390 640 375 667 q 410 581 406 613 q 414 517 414 549 l 414 456 l 392 456 l 392 513 q 384 588 392 550 q 347 651 376 625 q 249 676 317 676 q 150 651 181 676 q 112 588 119 625 q 104 513 104 550 l 104 176 q 112 102 104 140 q 150 38 119 64 q 249 13 181 13 q 347 38 317 13 q 384 102 376 64 q 392 176 392 140 l 392 232 l 414 232 l 414 172 q 406 88 414 129 q 363 18 397 46 q 249 -10 328 -10 m 121 758 l 236 878 l 257 878 l 369 758 l 342 758 l 246 858 l 146 758 l 121 758 z "},"ċ":{"ha":479,"x_min":82,"x_max":414,"o":"m 249 -10 q 155 6 189 -10 q 106 49 121 22 q 86 108 90 75 q 82 172 82 140 l 82 517 q 86 581 82 549 q 106 640 90 613 q 155 683 121 667 q 249 699 189 699 q 341 683 307 699 q 390 640 375 667 q 410 581 406 613 q 414 517 414 549 l 414 456 l 392 456 l 392 513 q 384 588 392 550 q 347 651 376 625 q 249 676 317 676 q 150 651 181 676 q 112 588 119 625 q 104 513 104 550 l 104 176 q 112 102 104 140 q 150 38 119 64 q 249 13 181 13 q 347 38 317 13 q 384 102 376 64 q 392 176 392 140 l 392 232 l 414 232 l 414 172 q 406 88 414 129 q 363 18 397 46 q 249 -10 328 -10 m 246 786 q 226 806 226 786 q 246 825 226 825 q 265 806 265 825 q 246 786 265 786 z "},"₵":{"ha":561,"x_min":93,"x_max":472,"o":"m 185 -112 l 197 -8 q 122 41 151 3 q 93 164 93 79 l 93 651 q 118 770 93 732 q 187 820 143 808 q 283 832 231 832 q 304 832 294 832 l 315 915 l 336 915 l 325 831 q 401 810 368 826 q 453 757 435 794 q 472 651 472 719 l 472 529 l 450 529 l 450 657 q 415 772 450 742 q 322 808 381 803 l 221 10 q 250 6 235 7 q 282 6 265 6 q 369 17 331 6 q 428 61 407 28 q 450 161 450 94 l 450 263 l 472 263 l 472 164 q 447 45 472 83 q 379 -5 422 7 q 281 -17 336 -17 q 249 -16 264 -17 q 218 -12 233 -15 l 206 -112 l 185 -112 m 115 161 q 139 60 115 93 q 201 15 163 26 l 301 810 q 282 810 293 810 q 193 798 231 810 q 135 752 156 786 q 115 649 115 718 l 115 161 z "},"¸":{"ha":694,"x_min":276,"x_max":418,"o":"m 336 -186 q 301 -181 315 -186 q 276 -169 288 -175 l 288 -150 q 336 -165 306 -165 q 396 -119 396 -165 q 349 -79 396 -79 q 294 -93 313 -79 l 283 -79 l 331 0 l 349 0 l 318 -60 q 332 -58 321 -58 q 350 -57 343 -57 q 401 -75 385 -57 q 418 -117 418 -93 q 397 -164 418 -142 q 336 -186 376 -186 z "},"̧":{"ha":0,"x_min":276,"x_max":418,"o":"m 336 -186 q 301 -181 315 -186 q 276 -169 288 -175 l 288 -150 q 336 -165 306 -165 q 396 -119 396 -165 q 349 -79 396 -79 q 294 -93 313 -79 l 283 -79 l 331 0 l 349 0 l 318 -60 q 332 -58 321 -58 q 350 -57 343 -57 q 401 -75 385 -57 q 418 -117 418 -93 q 397 -164 418 -142 q 336 -186 376 -186 z "},"¢":{"ha":521,"x_min":93,"x_max":432,"o":"m 250 -87 l 250 74 q 161 90 193 74 q 115 133 129 106 q 97 192 100 160 q 93 256 93 224 l 93 600 q 101 685 93 643 q 142 754 110 726 q 251 782 175 782 l 251 893 l 274 893 l 274 782 q 382 752 349 781 q 424 683 415 724 q 432 600 432 642 l 432 539 l 410 539 l 410 596 q 402 676 410 638 q 363 738 394 714 q 260 763 332 763 q 161 738 192 763 q 123 676 131 714 q 115 596 115 638 l 115 260 q 122 181 115 219 q 158 117 128 142 q 260 93 188 93 q 363 117 332 93 q 402 181 394 142 q 410 260 410 219 l 410 315 l 432 315 l 432 256 q 424 172 432 214 q 382 103 415 131 q 274 74 349 76 l 274 -87 l 250 -87 z "},"ч":{"ha":483,"x_min":92,"x_max":389,"o":"m 367 0 l 367 290 q 323 234 351 258 q 229 210 294 210 q 136 238 165 210 q 99 308 107 265 q 92 392 92 350 l 92 688 l 114 688 l 114 404 q 119 324 114 364 q 149 258 125 283 q 229 232 174 232 q 333 270 306 232 q 367 368 361 308 l 367 688 l 389 688 l 389 0 l 367 0 z "},"ˆ":{"ha":694,"x_min":224,"x_max":472,"o":"m 224 758 l 339 878 l 360 878 l 472 758 l 444 758 l 349 858 l 249 758 l 224 758 z "},"̂":{"ha":0,"x_min":224,"x_max":472,"o":"m 224 758 l 339 878 l 360 878 l 472 758 l 444 758 l 349 858 l 249 758 l 224 758 z "},":":{"ha":183,"x_min":69,"x_max":114,"o":"m 92 440 q 69 463 69 440 q 92 485 69 485 q 114 463 114 485 q 92 440 114 440 m 92 -4 q 69 18 69 -4 q 92 40 69 40 q 114 18 114 40 q 92 -4 114 -4 z "},"₡":{"ha":561,"x_min":93,"x_max":472,"o":"m 139 -112 l 154 10 q 110 64 126 28 q 93 164 93 100 l 93 651 q 115 763 93 725 q 174 815 136 801 q 258 832 211 829 l 269 915 l 290 915 l 279 832 l 283 832 q 331 830 308 832 q 374 822 353 828 l 385 915 l 406 915 l 393 815 q 451 762 429 800 q 472 651 472 724 l 472 529 l 450 529 l 450 657 q 434 745 450 714 q 390 790 418 776 l 290 6 q 372 17 336 6 q 429 63 408 29 q 450 161 450 96 l 450 263 l 472 263 l 472 164 q 448 45 472 83 q 381 -5 424 7 q 288 -17 339 -17 l 275 -112 l 254 -112 l 267 -17 q 217 -12 240 -15 q 174 -1 193 -10 l 160 -112 l 139 -112 m 282 810 l 276 810 l 178 25 q 219 11 196 15 q 269 6 243 7 l 369 799 q 329 808 351 806 q 282 810 307 810 m 115 161 q 127 85 115 114 q 158 39 139 56 l 256 810 q 153 774 190 806 q 115 649 115 743 l 115 161 z "},",":{"ha":183,"x_min":57,"x_max":124,"o":"m 57 -121 q 78 -78 65 -106 q 92 -32 92 -50 q 81 -12 92 -18 q 71 14 71 -7 q 77 32 71 24 q 94 40 83 40 q 117 30 110 40 q 124 6 124 19 q 108 -58 124 -22 q 75 -121 93 -94 l 57 -121 z "},"̦":{"ha":0,"x_min":318,"x_max":376,"o":"m 318 -181 q 337 -148 325 -169 q 349 -112 349 -126 q 340 -97 349 -101 q 331 -76 331 -93 q 336 -63 331 -69 q 351 -57 342 -57 q 371 -65 365 -57 q 376 -83 376 -72 q 363 -133 376 -106 q 333 -181 349 -161 l 318 -181 z "},"̒":{"ha":0,"x_min":318,"x_max":376,"o":"m 343 756 q 324 764 329 756 q 318 782 318 772 q 332 832 318 804 q 361 879 346 860 l 376 879 q 358 848 369 869 q 346 811 346 826 q 355 797 346 801 q 364 775 364 792 q 359 762 364 768 q 343 756 354 756 z "},"⁒":{"ha":581,"x_min":74,"x_max":543,"o":"m 74 0 l 517 813 l 543 813 l 97 0 l 74 0 m 160 461 q 126 475 140 461 q 111 511 111 489 q 125 547 111 532 q 161 561 139 561 q 197 547 182 561 q 211 511 211 532 q 197 475 211 489 q 160 461 182 461 m 415 178 q 381 192 396 178 q 367 228 367 206 q 381 263 367 249 q 418 278 396 278 q 452 263 438 278 q 467 228 467 249 q 452 192 467 206 q 415 178 438 178 z "},"©":{"ha":917,"x_min":69,"x_max":847,"o":"m 458 43 q 307 73 378 43 q 183 157 236 103 q 99 282 129 211 q 69 433 69 353 q 99 584 69 514 q 183 708 129 654 q 307 791 236 761 q 458 821 378 821 q 610 791 539 821 q 734 708 681 761 q 817 584 788 654 q 847 433 847 514 q 817 282 847 353 q 734 157 788 211 q 610 73 681 103 q 458 43 539 43 m 458 64 q 601 93 535 64 q 718 174 668 122 q 796 292 768 225 q 824 433 824 358 q 775 617 824 535 q 644 749 726 700 q 458 799 561 799 q 317 770 383 799 q 201 692 251 742 q 121 575 150 642 q 92 433 92 508 q 121 292 92 358 q 201 174 150 225 q 317 93 251 122 q 458 64 383 64 m 449 247 q 378 260 406 247 q 339 313 351 274 q 326 433 326 353 q 335 558 326 515 q 370 618 343 601 q 451 635 397 635 q 547 606 521 635 q 576 501 574 578 l 556 501 q 529 594 553 574 q 451 615 506 615 q 385 603 407 615 q 356 552 363 590 q 349 435 349 514 q 358 331 349 367 q 388 281 367 294 q 449 268 410 268 q 520 289 489 268 q 551 363 551 310 l 576 363 q 539 270 574 293 q 449 247 504 247 z "},"¤":{"ha":531,"x_min":69,"x_max":461,"o":"m 79 221 l 69 231 l 147 315 q 113 417 113 357 q 147 519 113 476 l 69 603 l 79 613 l 164 533 q 209 560 183 550 q 265 569 235 569 q 368 533 325 569 l 451 613 l 461 603 l 382 517 q 418 417 418 478 q 408 360 418 386 q 382 313 399 335 l 461 231 l 451 221 l 365 299 q 265 264 326 264 q 164 299 206 264 l 79 221 m 265 286 q 358 324 321 286 q 396 417 396 361 q 358 510 396 472 q 265 547 321 547 q 172 510 210 547 q 135 417 135 472 q 172 324 135 361 q 265 286 210 286 z "},"d":{"ha":508,"x_min":82,"x_max":414,"o":"m 247 -10 q 134 18 169 -10 q 90 88 99 46 q 82 172 82 129 l 82 517 q 86 581 82 549 q 106 640 90 613 q 155 683 121 667 q 247 699 189 699 q 325 688 296 699 q 370 665 354 678 q 392 647 386 653 l 392 875 l 414 875 l 414 0 l 396 0 l 393 69 q 344 15 383 40 q 247 -10 306 -10 m 247 13 q 337 35 306 13 q 380 96 368 58 q 392 176 392 133 l 392 607 q 376 633 388 617 q 334 663 364 649 q 247 676 304 676 q 164 661 193 676 q 122 622 135 646 q 107 569 110 597 q 104 513 104 540 l 104 176 q 107 120 104 149 q 122 67 110 92 q 164 28 135 43 q 247 13 193 13 z "},"†":{"ha":490,"x_min":69,"x_max":421,"o":"m 229 -110 l 229 550 l 69 550 l 69 572 l 229 572 l 229 875 l 254 875 l 254 572 l 421 572 l 421 550 l 254 550 l 254 -110 l 229 -110 z "},"‡":{"ha":494,"x_min":69,"x_max":425,"o":"m 236 -172 l 236 253 l 69 253 l 69 275 l 236 275 l 236 488 l 69 488 l 69 510 l 236 510 l 236 813 l 258 813 l 258 510 l 425 510 l 425 488 l 258 488 l 258 275 l 425 275 l 425 253 l 258 253 l 258 -172 l 236 -172 z "},"̏":{"ha":0,"x_min":261,"x_max":433,"o":"m 413 757 l 314 876 l 342 876 l 433 757 l 413 757 m 360 756 l 261 875 l 289 875 l 381 756 l 360 756 z "},"ď":{"ha":508,"x_min":82,"x_max":528,"o":"m 247 -10 q 134 18 169 -10 q 90 88 99 46 q 82 172 82 129 l 82 517 q 86 581 82 549 q 106 640 90 613 q 155 683 121 667 q 247 699 189 699 q 325 688 296 699 q 370 665 354 678 q 392 647 386 653 l 392 875 l 414 875 l 414 0 l 396 0 l 393 69 q 344 15 383 40 q 247 -10 306 -10 m 247 13 q 337 35 306 13 q 380 96 368 58 q 392 176 392 133 l 392 607 q 376 633 388 617 q 334 663 364 649 q 247 676 304 676 q 164 661 193 676 q 122 622 135 646 q 107 569 110 597 q 104 513 104 540 l 104 176 q 107 120 104 149 q 122 67 110 92 q 164 28 135 43 q 247 13 193 13 m 488 711 l 507 865 l 528 865 l 501 711 l 488 711 z "},"đ":{"ha":508,"x_min":82,"x_max":483,"o":"m 247 -10 q 134 18 169 -10 q 90 88 99 46 q 82 172 82 129 l 82 517 q 86 581 82 549 q 106 640 90 613 q 155 683 121 667 q 247 699 189 699 q 325 688 296 699 q 370 665 354 678 q 392 647 386 653 l 392 778 l 246 778 l 246 799 l 392 799 l 392 875 l 414 875 l 414 799 l 483 799 l 483 778 l 414 778 l 414 0 l 396 0 l 393 69 q 344 15 383 40 q 247 -10 306 -10 m 247 13 q 337 35 306 13 q 380 96 368 58 q 392 176 392 133 l 392 607 q 376 633 388 617 q 334 663 364 649 q 247 676 304 676 q 164 661 193 676 q 122 622 135 646 q 107 569 110 597 q 104 513 104 540 l 104 176 q 107 120 104 149 q 122 67 110 92 q 164 28 135 43 q 247 13 193 13 z "},"д":{"ha":606,"x_min":22,"x_max":583,"o":"m 22 -137 l 22 15 l 99 15 q 156 128 144 19 l 204 688 l 488 688 l 488 15 l 583 15 l 583 -137 l 563 -137 l 563 -7 l 43 -7 l 43 -137 l 22 -137 m 139 15 l 465 15 l 465 665 l 226 665 l 178 128 q 175 98 178 119 q 164 53 172 76 q 139 15 156 31 z "},"°":{"ha":400,"x_min":69,"x_max":331,"o":"m 200 569 q 104 603 139 569 q 69 696 69 636 q 104 791 69 757 q 203 825 139 825 q 297 792 264 825 q 331 699 331 760 q 296 603 331 638 q 200 569 261 569 m 199 592 q 308 697 308 592 q 281 775 308 747 q 201 803 254 803 q 120 775 149 803 q 92 696 92 747 q 120 619 92 647 q 199 592 149 592 z "},"¨":{"ha":694,"x_min":275,"x_max":421,"o":"m 401 786 q 382 806 382 786 q 401 825 382 825 q 421 806 421 825 q 401 786 421 786 m 294 786 q 275 806 275 786 q 294 825 275 825 q 314 806 314 825 q 294 786 314 786 z "},"̤":{"ha":0,"x_min":275,"x_max":421,"o":"m 401 -75 q 382 -56 382 -75 q 401 -36 382 -36 q 421 -56 421 -36 q 401 -75 421 -75 m 294 -75 q 275 -56 275 -75 q 294 -36 275 -36 q 314 -56 314 -36 q 294 -75 314 -75 z "},"̈":{"ha":0,"x_min":275,"x_max":421,"o":"m 401 786 q 382 806 382 786 q 401 825 382 825 q 421 806 421 825 q 401 786 421 786 m 294 786 q 275 806 275 786 q 294 825 275 825 q 314 806 314 825 q 294 786 314 786 z "},"÷":{"ha":489,"x_min":69,"x_max":419,"o":"m 244 593 q 222 615 222 593 q 244 638 222 638 q 267 615 267 638 q 244 593 267 593 m 69 390 l 69 413 l 419 413 l 419 390 l 69 390 m 244 149 q 222 171 222 149 q 244 193 222 193 q 267 171 267 193 q 244 149 267 149 z "},"∕":{"ha":469,"x_min":0,"x_max":469,"o":"m 0 0 l 443 813 l 469 813 l 24 0 l 0 0 z "},"ђ":{"ha":518,"x_min":24,"x_max":433,"o":"m 244 -140 l 244 -118 q 351 -99 315 -118 q 399 -42 386 -81 q 411 57 411 -3 l 411 413 q 404 494 411 454 q 367 559 397 533 q 268 585 338 585 q 157 547 192 585 q 117 449 122 508 l 117 0 l 94 0 l 94 739 l 24 739 l 24 761 l 94 761 l 94 875 l 117 875 l 117 761 l 278 761 l 278 739 l 117 739 l 117 526 q 167 583 132 558 q 268 607 203 607 q 360 591 326 607 q 410 548 394 575 q 429 489 425 521 q 433 425 433 457 l 433 63 q 420 -52 433 -7 q 367 -119 407 -97 q 244 -140 326 -140 z "},"$":{"ha":444,"x_min":56,"x_max":389,"o":"m 144 -112 l 169 81 q 88 125 118 90 q 57 221 57 160 l 57 314 l 79 314 l 79 221 q 104 142 79 172 q 172 103 129 113 l 214 436 l 214 436 q 135 475 171 456 q 77 523 99 494 q 56 597 56 551 l 56 644 q 100 742 56 703 q 224 781 144 781 q 258 779 242 781 l 275 915 l 297 915 l 279 775 q 359 733 329 765 q 389 640 389 700 l 389 550 l 367 550 l 367 632 q 276 753 367 733 l 238 449 q 310 410 276 432 q 366 356 344 389 q 388 269 388 324 l 388 217 q 364 133 388 164 q 303 88 340 101 q 221 75 265 75 q 190 76 206 75 l 167 -112 l 144 -112 m 78 607 q 101 533 78 561 q 156 489 124 506 q 217 458 189 472 l 254 757 q 224 758 240 758 q 116 724 154 758 q 78 632 78 689 l 78 607 m 365 269 q 347 346 365 317 q 299 393 329 375 q 235 426 269 411 l 193 99 q 221 97 207 97 q 326 125 286 97 q 365 217 365 153 l 365 269 z "},"₫":{"ha":508,"x_min":82,"x_max":483,"o":"m 247 -10 q 134 18 169 -10 q 90 88 99 46 q 82 172 82 129 l 82 517 q 86 581 82 549 q 106 640 90 613 q 155 683 121 667 q 247 699 189 699 q 325 688 296 699 q 370 665 354 678 q 392 647 386 653 l 392 778 l 246 778 l 246 799 l 392 799 l 392 875 l 414 875 l 414 799 l 483 799 l 483 778 l 414 778 l 414 0 l 396 0 l 393 69 q 344 15 383 40 q 247 -10 306 -10 m 247 13 q 337 35 306 13 q 380 96 368 58 q 392 176 392 133 l 392 607 q 376 633 388 617 q 334 663 364 649 q 247 676 304 676 q 164 661 193 676 q 122 622 135 646 q 107 569 110 597 q 104 513 104 540 l 104 176 q 107 120 104 149 q 122 67 110 92 q 164 28 135 43 q 247 13 193 13 m 96 -110 l 96 -89 l 414 -89 l 414 -110 l 96 -110 z "},"˙":{"ha":694,"x_min":328,"x_max":367,"o":"m 347 786 q 328 806 328 786 q 347 825 328 825 q 367 806 367 825 q 347 786 367 786 z "},"̇":{"ha":0,"x_min":328,"x_max":367,"o":"m 347 786 q 328 806 328 786 q 347 825 328 825 q 367 806 367 825 q 347 786 367 786 z "},"̣":{"ha":0,"x_min":328,"x_max":367,"o":"m 347 -111 q 328 -92 328 -111 q 347 -72 328 -72 q 367 -92 367 -72 q 347 -111 367 -111 z "},"ʺ":{"ha":238,"x_min":42,"x_max":224,"o":"m 42 664 l 86 875 l 108 875 l 54 664 l 42 664 m 157 664 l 201 875 l 224 875 l 169 664 l 157 664 z "},"↓":{"ha":701,"x_min":69,"x_max":632,"o":"m 350 -12 l 69 274 l 86 290 l 339 32 l 339 954 l 361 954 l 361 32 l 615 283 l 632 268 l 350 -12 z "},"ǆ":{"ha":851,"x_min":82,"x_max":821,"o":"m 247 -10 q 134 18 169 -10 q 90 88 99 46 q 82 172 82 129 l 82 517 q 86 581 82 549 q 106 640 90 613 q 155 683 121 667 q 247 699 189 699 q 325 688 296 699 q 370 665 354 678 q 392 647 386 653 l 392 875 l 414 875 l 414 0 l 396 0 l 393 69 q 344 15 383 40 q 247 -10 306 -10 m 247 13 q 337 35 306 13 q 380 96 368 58 q 392 176 392 133 l 392 607 q 376 633 388 617 q 334 663 364 649 q 247 676 304 676 q 164 661 193 676 q 122 622 135 646 q 107 569 110 597 q 104 513 104 540 l 104 176 q 107 120 104 149 q 122 67 110 92 q 164 28 135 43 q 247 13 193 13 m 536 0 l 536 10 l 792 665 l 553 665 l 553 688 l 821 688 l 821 671 l 565 22 l 821 22 l 821 0 l 536 0 m 685 749 l 569 868 l 594 868 l 694 768 l 790 868 l 818 868 l 706 749 l 685 749 z "},"ѕ":{"ha":447,"x_min":57,"x_max":390,"o":"m 222 -8 q 104 26 150 -8 q 58 138 58 61 l 58 231 l 81 231 l 81 138 q 120 45 81 76 q 222 14 160 14 q 327 42 288 14 q 367 133 367 69 l 367 186 q 344 269 367 239 q 288 317 322 299 q 215 353 254 336 q 136 392 172 372 q 78 440 100 411 q 57 514 57 468 l 57 561 q 101 658 57 619 q 225 697 146 697 q 344 665 297 697 q 390 557 390 632 l 390 467 l 368 467 l 368 549 q 331 645 368 615 q 225 675 294 675 q 117 640 156 675 q 79 549 79 606 l 79 524 q 103 450 79 478 q 160 405 126 422 q 222 374 193 388 q 302 334 264 356 q 365 278 340 313 q 389 186 389 244 l 389 133 q 365 49 389 79 q 304 5 342 18 q 222 -8 267 -8 z "},"џ":{"ha":524,"x_min":94,"x_max":429,"o":"m 94 0 l 94 688 l 117 688 l 117 22 l 407 22 l 407 688 l 429 688 l 429 0 l 275 0 l 275 -157 l 253 -157 l 253 0 l 94 0 z "},"e":{"ha":493,"x_min":82,"x_max":414,"o":"m 249 -10 q 155 6 189 -10 q 106 49 121 22 q 86 108 90 75 q 82 172 82 140 l 82 517 q 92 601 82 560 q 137 671 101 643 q 249 699 172 699 q 361 672 326 699 q 405 604 396 646 q 414 517 414 563 l 414 365 l 104 365 l 104 176 q 112 98 104 136 q 150 36 119 60 q 249 13 181 13 q 347 36 317 13 q 384 97 376 60 q 392 176 392 135 l 392 232 l 414 232 l 414 172 q 406 88 414 129 q 363 18 397 46 q 249 -10 328 -10 m 104 388 l 392 388 l 392 504 q 385 592 392 553 q 348 653 378 631 q 249 676 318 676 q 156 655 188 676 q 115 595 125 633 q 104 504 104 557 l 104 388 z "},"є":{"ha":486,"x_min":82,"x_max":421,"o":"m 256 -10 q 158 6 193 -10 q 107 49 124 22 q 86 108 90 75 q 82 172 82 140 l 82 517 q 86 581 82 549 q 107 640 90 613 q 158 683 124 667 q 256 699 193 699 q 348 683 314 699 q 397 640 382 667 q 417 581 413 613 q 421 517 421 549 l 421 456 l 399 456 l 399 513 q 391 592 399 554 q 353 653 383 629 q 256 676 324 676 q 151 653 183 676 q 112 592 119 629 q 104 513 104 554 l 104 358 l 328 358 l 328 336 l 104 336 l 104 176 q 112 98 104 136 q 151 36 119 60 q 256 13 183 13 q 353 36 324 13 q 391 98 383 60 q 399 176 399 136 l 399 232 l 421 232 l 421 172 q 413 88 421 129 q 369 18 404 46 q 256 -10 335 -10 z "},"é":{"ha":493,"x_min":82,"x_max":414,"o":"m 249 -10 q 155 6 189 -10 q 106 49 121 22 q 86 108 90 75 q 82 172 82 140 l 82 517 q 92 601 82 560 q 137 671 101 643 q 249 699 172 699 q 361 672 326 699 q 405 604 396 646 q 414 517 414 563 l 414 365 l 104 365 l 104 176 q 112 98 104 136 q 150 36 119 60 q 249 13 181 13 q 347 36 317 13 q 384 97 376 60 q 392 176 392 135 l 392 232 l 414 232 l 414 172 q 406 88 414 129 q 363 18 397 46 q 249 -10 328 -10 m 104 388 l 392 388 l 392 504 q 385 592 392 553 q 348 653 378 631 q 249 676 318 676 q 156 655 188 676 q 115 595 125 633 q 104 504 104 557 l 104 388 m 208 757 l 300 876 l 328 876 l 229 757 l 208 757 z "},"ĕ":{"ha":493,"x_min":82,"x_max":414,"o":"m 249 -10 q 155 6 189 -10 q 106 49 121 22 q 86 108 90 75 q 82 172 82 140 l 82 517 q 92 601 82 560 q 137 671 101 643 q 249 699 172 699 q 361 672 326 699 q 405 604 396 646 q 414 517 414 563 l 414 365 l 104 365 l 104 176 q 112 98 104 136 q 150 36 119 60 q 249 13 181 13 q 347 36 317 13 q 384 97 376 60 q 392 176 392 135 l 392 232 l 414 232 l 414 172 q 406 88 414 129 q 363 18 397 46 q 249 -10 328 -10 m 104 388 l 392 388 l 392 504 q 385 592 392 553 q 348 653 378 631 q 249 676 318 676 q 156 655 188 676 q 115 595 125 633 q 104 504 104 557 l 104 388 m 253 758 q 169 792 193 758 q 146 865 146 826 l 168 865 q 194 800 169 819 q 254 781 219 781 q 323 801 290 781 q 356 865 356 822 l 378 865 q 346 792 378 826 q 253 758 314 758 z "},"ě":{"ha":493,"x_min":82,"x_max":414,"o":"m 249 -10 q 155 6 189 -10 q 106 49 121 22 q 86 108 90 75 q 82 172 82 140 l 82 517 q 92 601 82 560 q 137 671 101 643 q 249 699 172 699 q 361 672 326 699 q 405 604 396 646 q 414 517 414 563 l 414 365 l 104 365 l 104 176 q 112 98 104 136 q 150 36 119 60 q 249 13 181 13 q 347 36 317 13 q 384 97 376 60 q 392 176 392 135 l 392 232 l 414 232 l 414 172 q 406 88 414 129 q 363 18 397 46 q 249 -10 328 -10 m 104 388 l 392 388 l 392 504 q 385 592 392 553 q 348 653 378 631 q 249 676 318 676 q 156 655 188 676 q 115 595 125 633 q 104 504 104 557 l 104 388 m 260 749 l 144 868 l 169 868 l 269 768 l 365 868 l 393 868 l 281 749 l 260 749 z "},"ê":{"ha":493,"x_min":82,"x_max":414,"o":"m 249 -10 q 155 6 189 -10 q 106 49 121 22 q 86 108 90 75 q 82 172 82 140 l 82 517 q 92 601 82 560 q 137 671 101 643 q 249 699 172 699 q 361 672 326 699 q 405 604 396 646 q 414 517 414 563 l 414 365 l 104 365 l 104 176 q 112 98 104 136 q 150 36 119 60 q 249 13 181 13 q 347 36 317 13 q 384 97 376 60 q 392 176 392 135 l 392 232 l 414 232 l 414 172 q 406 88 414 129 q 363 18 397 46 q 249 -10 328 -10 m 104 388 l 392 388 l 392 504 q 385 592 392 553 q 348 653 378 631 q 249 676 318 676 q 156 655 188 676 q 115 595 125 633 q 104 504 104 557 l 104 388 m 131 758 l 246 878 l 267 878 l 379 758 l 351 758 l 256 858 l 156 758 l 131 758 z "},"ế":{"ha":493,"x_min":82,"x_max":457,"o":"m 249 -10 q 155 6 189 -10 q 106 49 121 22 q 86 108 90 75 q 82 172 82 140 l 82 517 q 92 601 82 560 q 137 671 101 643 q 249 699 172 699 q 361 672 326 699 q 405 604 396 646 q 414 517 414 563 l 414 365 l 104 365 l 104 176 q 112 98 104 136 q 150 36 119 60 q 249 13 181 13 q 347 36 317 13 q 384 97 376 60 q 392 176 392 135 l 392 232 l 414 232 l 414 172 q 406 88 414 129 q 363 18 397 46 q 249 -10 328 -10 m 104 388 l 392 388 l 392 504 q 385 592 392 553 q 348 653 378 631 q 249 676 318 676 q 156 655 188 676 q 115 595 125 633 q 104 504 104 557 l 104 388 m 131 758 l 246 878 l 267 878 l 379 758 l 351 758 l 256 858 l 156 758 l 131 758 m 338 871 l 429 990 l 457 990 l 358 871 l 338 871 z "},"ệ":{"ha":493,"x_min":82,"x_max":414,"o":"m 249 -10 q 155 6 189 -10 q 106 49 121 22 q 86 108 90 75 q 82 172 82 140 l 82 517 q 92 601 82 560 q 137 671 101 643 q 249 699 172 699 q 361 672 326 699 q 405 604 396 646 q 414 517 414 563 l 414 365 l 104 365 l 104 176 q 112 98 104 136 q 150 36 119 60 q 249 13 181 13 q 347 36 317 13 q 384 97 376 60 q 392 176 392 135 l 392 232 l 414 232 l 414 172 q 406 88 414 129 q 363 18 397 46 q 249 -10 328 -10 m 104 388 l 392 388 l 392 504 q 385 592 392 553 q 348 653 378 631 q 249 676 318 676 q 156 655 188 676 q 115 595 125 633 q 104 504 104 557 l 104 388 m 247 -111 q 228 -92 228 -111 q 247 -72 228 -72 q 267 -92 267 -72 q 247 -111 267 -111 m 131 758 l 246 878 l 267 878 l 379 758 l 351 758 l 256 858 l 156 758 l 131 758 z "},"ề":{"ha":493,"x_min":82,"x_max":414,"o":"m 249 -10 q 155 6 189 -10 q 106 49 121 22 q 86 108 90 75 q 82 172 82 140 l 82 517 q 92 601 82 560 q 137 671 101 643 q 249 699 172 699 q 361 672 326 699 q 405 604 396 646 q 414 517 414 563 l 414 365 l 104 365 l 104 176 q 112 98 104 136 q 150 36 119 60 q 249 13 181 13 q 347 36 317 13 q 384 97 376 60 q 392 176 392 135 l 392 232 l 414 232 l 414 172 q 406 88 414 129 q 363 18 397 46 q 249 -10 328 -10 m 104 388 l 392 388 l 392 504 q 385 592 392 553 q 348 653 378 631 q 249 676 318 676 q 156 655 188 676 q 115 595 125 633 q 104 504 104 557 l 104 388 m 131 758 l 246 878 l 267 878 l 379 758 l 351 758 l 256 858 l 156 758 l 131 758 m 364 876 l 265 996 l 293 996 l 385 876 l 364 876 z "},"ể":{"ha":493,"x_min":82,"x_max":468,"o":"m 249 -10 q 155 6 189 -10 q 106 49 121 22 q 86 108 90 75 q 82 172 82 140 l 82 517 q 92 601 82 560 q 137 671 101 643 q 249 699 172 699 q 361 672 326 699 q 405 604 396 646 q 414 517 414 563 l 414 365 l 104 365 l 104 176 q 112 98 104 136 q 150 36 119 60 q 249 13 181 13 q 347 36 317 13 q 384 97 376 60 q 392 176 392 135 l 392 232 l 414 232 l 414 172 q 406 88 414 129 q 363 18 397 46 q 249 -10 328 -10 m 104 388 l 392 388 l 392 504 q 385 592 392 553 q 348 653 378 631 q 249 676 318 676 q 156 655 188 676 q 115 595 125 633 q 104 504 104 557 l 104 388 m 131 758 l 246 878 l 267 878 l 379 758 l 351 758 l 256 858 l 156 758 l 131 758 m 376 854 l 376 864 q 394 904 376 892 q 428 928 411 917 q 446 963 446 940 l 446 968 q 438 991 446 979 q 401 1003 429 1003 q 347 968 356 1003 l 326 975 q 349 1012 332 999 q 401 1025 367 1025 q 468 969 468 1025 l 468 963 q 451 919 468 933 q 416 894 433 904 q 399 867 399 885 l 399 854 l 376 854 z "},"ễ":{"ha":493,"x_min":82,"x_max":414,"o":"m 249 -10 q 155 6 189 -10 q 106 49 121 22 q 86 108 90 75 q 82 172 82 140 l 82 517 q 92 601 82 560 q 137 671 101 643 q 249 699 172 699 q 361 672 326 699 q 405 604 396 646 q 414 517 414 563 l 414 365 l 104 365 l 104 176 q 112 98 104 136 q 150 36 119 60 q 249 13 181 13 q 347 36 317 13 q 384 97 376 60 q 392 176 392 135 l 392 232 l 414 232 l 414 172 q 406 88 414 129 q 363 18 397 46 q 249 -10 328 -10 m 104 388 l 392 388 l 392 504 q 385 592 392 553 q 348 653 378 631 q 249 676 318 676 q 156 655 188 676 q 115 595 125 633 q 104 504 104 557 l 104 388 m 131 758 l 246 878 l 267 878 l 379 758 l 351 758 l 256 858 l 156 758 l 131 758 m 317 924 q 275 934 293 924 q 241 955 257 944 q 206 965 225 965 q 181 959 193 965 q 167 929 169 953 l 146 929 q 164 969 149 953 q 206 986 179 986 q 246 976 229 986 q 278 955 263 965 q 317 944 294 944 q 343 951 331 944 q 358 982 356 958 l 379 982 q 359 940 375 956 q 317 924 343 924 z "},"ȅ":{"ha":493,"x_min":82,"x_max":414,"o":"m 249 -10 q 155 6 189 -10 q 106 49 121 22 q 86 108 90 75 q 82 172 82 140 l 82 517 q 92 601 82 560 q 137 671 101 643 q 249 699 172 699 q 361 672 326 699 q 405 604 396 646 q 414 517 414 563 l 414 365 l 104 365 l 104 176 q 112 98 104 136 q 150 36 119 60 q 249 13 181 13 q 347 36 317 13 q 384 97 376 60 q 392 176 392 135 l 392 232 l 414 232 l 414 172 q 406 88 414 129 q 363 18 397 46 q 249 -10 328 -10 m 104 388 l 392 388 l 392 504 q 385 592 392 553 q 348 653 378 631 q 249 676 318 676 q 156 655 188 676 q 115 595 125 633 q 104 504 104 557 l 104 388 m 299 757 l 200 876 l 228 876 l 319 757 l 299 757 m 246 756 l 147 875 l 175 875 l 267 756 l 246 756 z "},"ë":{"ha":493,"x_min":82,"x_max":414,"o":"m 249 -10 q 155 6 189 -10 q 106 49 121 22 q 86 108 90 75 q 82 172 82 140 l 82 517 q 92 601 82 560 q 137 671 101 643 q 249 699 172 699 q 361 672 326 699 q 405 604 396 646 q 414 517 414 563 l 414 365 l 104 365 l 104 176 q 112 98 104 136 q 150 36 119 60 q 249 13 181 13 q 347 36 317 13 q 384 97 376 60 q 392 176 392 135 l 392 232 l 414 232 l 414 172 q 406 88 414 129 q 363 18 397 46 q 249 -10 328 -10 m 104 388 l 392 388 l 392 504 q 385 592 392 553 q 348 653 378 631 q 249 676 318 676 q 156 655 188 676 q 115 595 125 633 q 104 504 104 557 l 104 388 m 308 786 q 289 806 289 786 q 308 825 289 825 q 328 806 328 825 q 308 786 328 786 m 201 786 q 182 806 182 786 q 201 825 182 825 q 221 806 221 825 q 201 786 221 786 z "},"ė":{"ha":493,"x_min":82,"x_max":414,"o":"m 249 -10 q 155 6 189 -10 q 106 49 121 22 q 86 108 90 75 q 82 172 82 140 l 82 517 q 92 601 82 560 q 137 671 101 643 q 249 699 172 699 q 361 672 326 699 q 405 604 396 646 q 414 517 414 563 l 414 365 l 104 365 l 104 176 q 112 98 104 136 q 150 36 119 60 q 249 13 181 13 q 347 36 317 13 q 384 97 376 60 q 392 176 392 135 l 392 232 l 414 232 l 414 172 q 406 88 414 129 q 363 18 397 46 q 249 -10 328 -10 m 104 388 l 392 388 l 392 504 q 385 592 392 553 q 348 653 378 631 q 249 676 318 676 q 156 655 188 676 q 115 595 125 633 q 104 504 104 557 l 104 388 m 256 786 q 236 806 236 786 q 256 825 236 825 q 275 806 275 825 q 256 786 275 786 z "},"ẹ":{"ha":493,"x_min":82,"x_max":414,"o":"m 249 -10 q 155 6 189 -10 q 106 49 121 22 q 86 108 90 75 q 82 172 82 140 l 82 517 q 92 601 82 560 q 137 671 101 643 q 249 699 172 699 q 361 672 326 699 q 405 604 396 646 q 414 517 414 563 l 414 365 l 104 365 l 104 176 q 112 98 104 136 q 150 36 119 60 q 249 13 181 13 q 347 36 317 13 q 384 97 376 60 q 392 176 392 135 l 392 232 l 414 232 l 414 172 q 406 88 414 129 q 363 18 397 46 q 249 -10 328 -10 m 104 388 l 392 388 l 392 504 q 385 592 392 553 q 348 653 378 631 q 249 676 318 676 q 156 655 188 676 q 115 595 125 633 q 104 504 104 557 l 104 388 m 247 -111 q 228 -92 228 -111 q 247 -72 228 -72 q 267 -92 267 -72 q 247 -111 267 -111 z "},"ф":{"ha":825,"x_min":85,"x_max":740,"o":"m 401 -161 l 401 57 q 350 9 385 28 q 251 -10 315 -10 q 158 6 192 -10 q 108 49 124 22 q 89 108 93 75 q 85 172 85 140 l 85 438 q 89 501 85 469 q 109 560 93 533 q 160 603 125 588 q 257 619 194 619 q 351 601 318 619 q 401 553 385 582 l 401 821 l 424 821 l 424 557 q 475 602 440 585 q 574 619 510 619 q 685 592 650 619 q 730 522 719 564 q 740 438 740 481 l 740 172 q 730 88 740 129 q 683 18 719 46 q 568 -10 647 -10 q 473 8 507 -10 q 424 51 439 25 l 424 -161 l 401 -161 m 251 13 q 355 38 324 13 q 394 102 386 64 q 401 176 401 140 l 401 433 q 394 508 401 471 q 356 572 386 546 q 257 597 326 597 q 170 582 201 597 q 126 542 139 567 q 110 490 113 518 q 107 433 107 461 l 107 176 q 110 120 107 149 q 125 67 113 92 q 167 28 138 43 q 251 13 197 13 m 568 13 q 672 38 640 13 q 710 102 703 64 q 718 176 718 140 l 718 433 q 710 508 718 471 q 673 572 703 546 q 574 597 643 597 q 487 583 518 597 q 442 544 456 568 q 426 491 429 519 q 424 435 424 463 l 424 175 q 426 119 424 147 q 442 66 429 90 q 484 27 454 42 q 568 13 514 13 z "},"è":{"ha":493,"x_min":82,"x_max":414,"o":"m 249 -10 q 155 6 189 -10 q 106 49 121 22 q 86 108 90 75 q 82 172 82 140 l 82 517 q 92 601 82 560 q 137 671 101 643 q 249 699 172 699 q 361 672 326 699 q 405 604 396 646 q 414 517 414 563 l 414 365 l 104 365 l 104 176 q 112 98 104 136 q 150 36 119 60 q 249 13 181 13 q 347 36 317 13 q 384 97 376 60 q 392 176 392 135 l 392 232 l 414 232 l 414 172 q 406 88 414 129 q 363 18 397 46 q 249 -10 328 -10 m 104 388 l 392 388 l 392 504 q 385 592 392 553 q 348 653 378 631 q 249 676 318 676 q 156 655 188 676 q 115 595 125 633 q 104 504 104 557 l 104 388 m 274 757 l 175 876 l 203 876 l 294 757 l 274 757 z "},"ẻ":{"ha":493,"x_min":82,"x_max":414,"o":"m 249 -10 q 155 6 189 -10 q 106 49 121 22 q 86 108 90 75 q 82 172 82 140 l 82 517 q 92 601 82 560 q 137 671 101 643 q 249 699 172 699 q 361 672 326 699 q 405 604 396 646 q 414 517 414 563 l 414 365 l 104 365 l 104 176 q 112 98 104 136 q 150 36 119 60 q 249 13 181 13 q 347 36 317 13 q 384 97 376 60 q 392 176 392 135 l 392 232 l 414 232 l 414 172 q 406 88 414 129 q 363 18 397 46 q 249 -10 328 -10 m 104 388 l 392 388 l 392 504 q 385 592 392 553 q 348 653 378 631 q 249 676 318 676 q 156 655 188 676 q 115 595 125 633 q 104 504 104 557 l 104 388 m 247 749 l 247 758 q 265 799 247 786 q 299 823 282 811 q 317 857 317 835 l 317 863 q 308 885 317 874 q 272 897 300 897 q 218 863 226 897 l 197 869 q 220 906 203 893 q 272 919 238 919 q 339 864 339 919 l 339 857 q 322 813 339 828 q 287 789 304 799 q 269 761 269 779 l 269 749 l 247 749 z "},"ȇ":{"ha":493,"x_min":82,"x_max":414,"o":"m 249 -10 q 155 6 189 -10 q 106 49 121 22 q 86 108 90 75 q 82 172 82 140 l 82 517 q 92 601 82 560 q 137 671 101 643 q 249 699 172 699 q 361 672 326 699 q 405 604 396 646 q 414 517 414 563 l 414 365 l 104 365 l 104 176 q 112 98 104 136 q 150 36 119 60 q 249 13 181 13 q 347 36 317 13 q 384 97 376 60 q 392 176 392 135 l 392 232 l 414 232 l 414 172 q 406 88 414 129 q 363 18 397 46 q 249 -10 328 -10 m 104 388 l 392 388 l 392 504 q 385 592 392 553 q 348 653 378 631 q 249 676 318 676 q 156 655 188 676 q 115 595 125 633 q 104 504 104 557 l 104 388 m 133 760 q 165 833 133 800 q 258 867 197 867 q 342 833 319 867 q 365 760 365 799 l 343 760 q 317 825 342 806 q 257 844 293 844 q 188 824 221 844 q 156 760 156 803 l 133 760 z "},"л":{"ha":519,"x_min":31,"x_max":425,"o":"m 31 0 l 31 22 q 73 47 58 22 q 93 131 88 72 l 142 688 l 425 688 l 425 1 l 403 1 l 403 665 l 164 665 l 115 128 q 109 82 114 113 q 87 26 104 51 q 31 0 69 0 z "},"…":{"ha":482,"x_min":69,"x_max":413,"o":"m 238 -4 q 215 18 215 -4 q 238 40 215 40 q 260 18 260 40 q 238 -4 260 -4 m 390 -4 q 368 18 368 -4 q 390 40 368 40 q 413 18 413 40 q 390 -4 413 -4 m 92 -4 q 69 18 69 -4 q 92 40 69 40 q 114 18 114 40 q 92 -4 114 -4 z "},"м":{"ha":671,"x_min":94,"x_max":576,"o":"m 94 0 l 94 688 l 118 688 l 336 33 l 553 688 l 576 688 l 576 0 l 554 0 l 554 621 l 347 0 l 324 0 l 117 621 l 117 0 l 94 0 z "},"ē":{"ha":493,"x_min":82,"x_max":414,"o":"m 249 -10 q 155 6 189 -10 q 106 49 121 22 q 86 108 90 75 q 82 172 82 140 l 82 517 q 92 601 82 560 q 137 671 101 643 q 249 699 172 699 q 361 672 326 699 q 405 604 396 646 q 414 517 414 563 l 414 365 l 104 365 l 104 176 q 112 98 104 136 q 150 36 119 60 q 249 13 181 13 q 347 36 317 13 q 384 97 376 60 q 392 176 392 135 l 392 232 l 414 232 l 414 172 q 406 88 414 129 q 363 18 397 46 q 249 -10 328 -10 m 104 388 l 392 388 l 392 504 q 385 592 392 553 q 348 653 378 631 q 249 676 318 676 q 156 655 188 676 q 115 595 125 633 q 104 504 104 557 l 104 388 m 144 786 l 144 808 l 367 808 l 367 786 l 144 786 z "},"—":{"ha":632,"x_min":63,"x_max":569,"o":"m 63 339 l 63 361 l 569 361 l 569 339 l 63 339 z "},"н":{"ha":531,"x_min":94,"x_max":436,"o":"m 94 0 l 94 688 l 117 688 l 117 376 l 414 376 l 414 688 l 436 688 l 436 0 l 414 0 l 414 354 l 117 354 l 117 0 l 94 0 z "},"–":{"ha":506,"x_min":63,"x_max":443,"o":"m 63 339 l 63 361 l 443 361 l 443 339 l 63 339 z "},"ŋ":{"ha":518,"x_min":94,"x_max":433,"o":"m 332 -161 q 284 -159 306 -161 q 264 -157 263 -157 l 264 -135 q 297 -138 279 -136 q 333 -140 314 -140 q 394 -111 378 -140 q 411 -44 411 -82 l 411 504 q 404 585 411 546 q 367 651 397 625 q 268 676 338 676 q 154 635 192 676 q 117 533 117 593 l 117 0 l 94 0 l 94 688 l 114 688 l 117 615 q 167 673 132 647 q 268 699 203 699 q 360 683 326 699 q 410 640 394 667 q 429 581 425 613 q 433 517 433 549 l 433 -46 q 408 -131 433 -101 q 332 -161 383 -161 z "},"ę":{"ha":493,"x_min":82,"x_max":414,"o":"m 249 -10 q 155 6 189 -10 q 106 49 121 22 q 86 108 90 75 q 82 172 82 140 l 82 517 q 92 601 82 560 q 137 671 101 643 q 249 699 172 699 q 361 672 326 699 q 405 604 396 646 q 414 517 414 563 l 414 365 l 104 365 l 104 176 q 112 98 104 136 q 150 36 119 60 q 249 13 181 13 q 347 36 317 13 q 384 97 376 60 q 392 176 392 135 l 392 232 l 414 232 l 414 172 q 406 88 414 129 q 363 18 397 46 q 249 -10 328 -10 m 104 388 l 392 388 l 392 504 q 385 592 392 553 q 348 653 378 631 q 249 676 318 676 q 156 655 188 676 q 115 595 125 633 q 104 504 104 557 l 104 388 m 329 -171 q 269 -151 292 -171 q 246 -96 246 -131 q 271 -32 246 -60 q 321 8 296 -4 l 343 8 q 292 -37 317 -8 q 268 -96 268 -67 q 285 -135 268 -119 q 329 -150 303 -150 q 376 -139 354 -150 l 385 -156 q 358 -167 372 -164 q 329 -171 343 -171 z "},"=":{"ha":521,"x_min":69,"x_max":451,"o":"m 69 542 l 69 564 l 451 564 l 451 542 l 69 542 m 69 246 l 69 268 l 451 268 l 451 246 l 69 246 z "},"р":{"ha":508,"x_min":94,"x_max":426,"o":"m 94 -161 l 94 688 l 114 688 l 117 618 q 156 672 124 646 q 261 699 189 699 q 353 683 319 699 q 403 640 388 667 q 422 581 418 613 q 426 517 426 549 l 426 172 q 418 88 426 129 q 375 18 410 46 q 261 -10 340 -10 q 158 10 192 -10 q 117 53 125 31 l 117 -161 l 94 -161 m 261 13 q 344 28 315 13 q 386 67 374 43 q 401 120 399 92 q 404 176 404 149 l 404 513 q 398 592 404 554 q 363 653 392 629 q 261 676 333 676 q 164 652 194 676 q 125 589 133 628 q 117 504 117 550 l 117 176 q 119 120 117 149 q 135 67 122 92 q 177 28 147 43 q 261 13 207 13 z "},"э":{"ha":486,"x_min":65,"x_max":404,"o":"m 231 -10 q 117 18 153 -10 q 74 88 82 46 q 65 172 65 129 l 65 232 l 88 232 l 88 176 q 95 98 88 136 q 133 36 103 60 q 231 13 163 13 q 335 36 303 13 q 374 98 367 60 q 382 176 382 136 l 382 336 l 158 336 l 158 358 l 382 358 l 382 513 q 374 592 382 554 q 335 653 367 629 q 231 676 303 676 q 133 653 163 676 q 95 592 103 629 q 88 513 88 554 l 88 456 l 65 456 l 65 517 q 69 581 65 549 q 89 640 74 613 q 138 683 104 667 q 231 699 172 699 q 328 683 293 699 q 379 640 363 667 q 400 581 396 613 q 404 517 404 549 l 404 172 q 400 108 404 140 q 379 49 396 75 q 328 6 363 22 q 231 -10 293 -10 z "},"с":{"ha":479,"x_min":82,"x_max":414,"o":"m 249 -10 q 155 6 189 -10 q 106 49 121 22 q 86 108 90 75 q 82 172 82 140 l 82 517 q 86 581 82 549 q 106 640 90 613 q 155 683 121 667 q 249 699 189 699 q 341 683 307 699 q 390 640 375 667 q 410 581 406 613 q 414 517 414 549 l 414 456 l 392 456 l 392 513 q 384 588 392 550 q 347 651 376 625 q 249 676 317 676 q 150 651 181 676 q 112 588 119 625 q 104 513 104 550 l 104 176 q 112 102 104 140 q 150 38 119 64 q 249 13 181 13 q 347 38 317 13 q 384 102 376 64 q 392 176 392 140 l 392 232 l 414 232 l 414 172 q 406 88 414 129 q 363 18 397 46 q 249 -10 328 -10 z "},"℮":{"ha":754,"x_min":69,"x_max":685,"o":"m 376 -11 q 197 35 264 -11 q 99 161 129 82 q 69 338 69 240 q 97 514 69 435 q 191 640 124 593 q 376 688 258 688 q 569 643 504 688 q 659 518 635 599 q 685 329 683 438 l 146 329 l 142 324 l 142 149 q 177 80 142 113 q 267 27 213 47 q 376 7 321 7 q 506 27 454 7 q 595 83 558 47 q 661 167 632 119 l 679 167 q 625 86 661 128 q 529 17 589 44 q 376 -11 469 -11 m 146 349 l 611 349 l 613 354 l 613 532 q 580 603 613 572 q 494 653 547 635 q 376 671 440 671 q 264 653 318 671 q 176 603 210 635 q 142 531 142 571 l 142 354 l 146 349 z "},"ð":{"ha":503,"x_min":82,"x_max":421,"o":"m 249 -10 q 155 6 189 -10 q 106 49 121 22 q 86 108 90 75 q 82 172 82 140 l 82 517 q 86 581 82 549 q 106 640 90 613 q 155 683 121 667 q 247 699 189 699 q 355 677 319 699 q 399 644 390 656 l 399 719 q 379 804 399 774 q 328 847 360 835 q 260 861 296 860 l 221 788 l 200 788 l 239 861 q 191 858 217 861 q 135 849 165 856 l 135 871 q 192 881 165 878 q 250 883 219 883 l 285 949 l 306 947 l 271 883 q 384 835 347 878 q 421 717 421 792 l 421 172 q 410 88 421 129 q 364 18 400 46 q 249 -10 328 -10 m 249 13 q 352 38 321 13 q 391 102 383 64 q 399 176 399 140 l 399 607 q 381 633 394 617 q 335 663 367 649 q 247 676 304 676 q 164 661 193 676 q 122 622 135 646 q 107 569 110 597 q 104 513 104 540 l 104 176 q 107 120 104 149 q 122 67 110 92 q 165 28 135 43 q 249 13 194 13 z "},"ẽ":{"ha":493,"x_min":82,"x_max":414,"o":"m 249 -10 q 155 6 189 -10 q 106 49 121 22 q 86 108 90 75 q 82 172 82 140 l 82 517 q 92 601 82 560 q 137 671 101 643 q 249 699 172 699 q 361 672 326 699 q 405 604 396 646 q 414 517 414 563 l 414 365 l 104 365 l 104 176 q 112 98 104 136 q 150 36 119 60 q 249 13 181 13 q 347 36 317 13 q 384 97 376 60 q 392 176 392 135 l 392 232 l 414 232 l 414 172 q 406 88 414 129 q 363 18 397 46 q 249 -10 328 -10 m 104 388 l 392 388 l 392 504 q 385 592 392 553 q 348 653 378 631 q 249 676 318 676 q 156 655 188 676 q 115 595 125 633 q 104 504 104 557 l 104 388 m 311 764 q 269 774 288 764 q 235 795 251 785 q 200 806 219 806 q 176 799 188 806 q 161 769 164 793 l 140 769 q 158 810 143 793 q 200 826 174 826 q 240 816 224 826 q 273 795 257 806 q 311 785 289 785 q 338 792 325 785 q 353 822 350 799 l 374 822 q 353 780 369 796 q 311 764 338 764 z "},"€":{"ha":650,"x_min":63,"x_max":561,"o":"m 364 -17 q 265 -5 308 -17 q 196 46 221 7 q 171 164 171 85 l 171 332 l 63 332 l 71 354 l 171 354 l 171 461 l 63 461 l 69 483 l 171 483 l 171 651 q 197 770 171 732 q 267 820 222 808 q 367 832 311 832 q 448 819 408 832 q 513 769 488 807 q 538 651 538 731 l 515 628 l 515 649 q 494 753 515 719 q 440 799 474 788 q 365 810 406 810 q 275 798 314 810 q 215 750 236 786 q 193 640 193 714 l 193 483 l 421 483 l 414 461 l 193 461 l 193 354 l 363 354 l 354 332 l 193 332 l 193 169 q 216 62 193 97 q 278 15 239 26 q 365 4 318 4 q 453 15 414 4 q 516 62 493 26 q 539 169 539 97 l 539 239 l 561 239 l 561 164 q 536 45 561 83 q 467 -5 511 7 q 364 -17 422 -17 z "},"!":{"ha":211,"x_min":83,"x_max":128,"o":"m 99 271 l 94 496 l 94 875 l 117 875 l 117 496 l 111 271 l 99 271 m 106 -4 q 83 18 83 -4 q 106 40 83 40 q 128 18 128 40 q 106 -4 128 -4 z "},"¡":{"ha":211,"x_min":83,"x_max":128,"o":"m 106 576 q 83 599 83 576 q 106 621 83 621 q 128 599 128 621 q 106 576 128 576 m 94 -210 l 94 169 l 99 394 l 111 394 l 117 169 l 117 -210 l 94 -210 z "},"f":{"ha":261,"x_min":54,"x_max":281,"o":"m 97 0 l 97 636 l 54 636 l 54 658 l 97 658 l 97 754 q 121 851 97 819 q 199 883 144 883 q 248 881 225 883 q 281 878 271 879 l 281 856 q 236 860 256 858 q 197 863 217 863 q 135 831 150 863 q 119 761 119 800 l 119 658 l 281 658 l 281 636 l 119 636 l 119 0 l 97 0 z "},"ﬁ":{"ha":447,"x_min":54,"x_max":361,"o":"m 97 0 l 97 636 l 54 636 l 54 658 l 97 658 l 97 754 q 243 883 97 883 q 308 878 276 883 q 361 865 339 872 l 361 842 q 301 858 335 853 q 244 863 268 863 q 148 837 176 863 q 119 761 119 811 l 119 658 l 353 658 l 353 0 l 331 0 l 331 636 l 119 636 l 119 0 l 97 0 z "},"ﬂ":{"ha":447,"x_min":54,"x_max":353,"o":"m 97 0 l 97 636 l 54 636 l 54 658 l 97 658 l 97 754 q 243 883 97 883 q 302 879 274 883 q 353 868 331 875 l 353 0 l 331 0 l 331 851 q 285 860 308 858 q 244 863 263 863 q 148 837 176 863 q 119 761 119 811 l 119 658 l 251 658 l 251 636 l 119 636 l 119 0 l 97 0 z "},"ƒ":{"ha":413,"x_min":-96,"x_max":396,"o":"m -15 -207 q -62 -205 -40 -207 q -96 -201 -85 -203 l -92 -181 l -68 -183 q -43 -185 -57 -185 q -11 -186 -29 -186 q 56 -152 38 -186 q 79 -82 74 -118 l 168 568 l 108 568 l 113 590 l 171 590 l 193 753 q 231 850 203 817 q 314 883 260 883 q 361 882 340 883 q 396 878 382 881 l 393 858 l 369 861 q 344 863 358 863 q 311 864 329 864 q 244 831 268 864 q 211 725 221 797 l 193 590 l 343 590 l 339 568 l 190 568 l 101 -83 q 66 -174 93 -142 q -15 -207 39 -207 z "},"⁴":{"ha":363,"x_min":46,"x_max":314,"o":"m 235 336 l 235 435 l 46 435 l 46 447 l 238 829 l 257 829 l 257 457 l 314 457 l 314 435 l 257 435 l 257 336 l 235 336 m 74 457 l 235 457 l 235 778 l 74 457 z "},"⁄":{"ha":331,"x_min":-69,"x_max":400,"o":"m -69 0 l 374 813 l 400 813 l -46 0 l -69 0 z "},"₣":{"ha":497,"x_min":69,"x_max":472,"o":"m 132 0 l 132 225 l 69 225 l 69 247 l 132 247 l 132 821 l 472 821 l 472 799 l 154 799 l 154 444 l 401 444 l 401 421 l 154 421 l 154 247 l 297 247 l 297 225 l 154 225 l 154 0 l 132 0 z "},"g":{"ha":508,"x_min":82,"x_max":414,"o":"m 244 -160 q 190 -158 214 -160 q 156 -154 165 -156 l 156 -131 q 244 -137 193 -137 q 315 -126 282 -137 q 370 -83 349 -114 q 392 4 392 -51 l 392 106 q 342 54 381 78 q 247 31 304 31 q 134 58 169 31 q 90 128 99 86 q 82 213 82 169 l 82 517 q 86 581 82 549 q 106 640 90 613 q 155 683 121 667 q 247 699 189 699 q 325 688 296 699 q 370 665 354 678 q 392 647 386 653 l 396 688 l 414 688 l 414 7 q 372 -116 414 -72 q 244 -160 331 -160 m 247 53 q 337 76 306 53 q 380 136 368 99 q 392 217 392 174 l 392 607 q 376 633 388 617 q 334 663 364 649 q 247 676 304 676 q 164 661 193 676 q 122 622 135 646 q 107 569 110 597 q 104 513 104 540 l 104 217 q 107 160 104 189 q 122 108 110 132 q 164 68 135 83 q 247 53 193 53 z "},"ğ":{"ha":508,"x_min":82,"x_max":414,"o":"m 244 -160 q 190 -158 214 -160 q 156 -154 165 -156 l 156 -131 q 244 -137 193 -137 q 315 -126 282 -137 q 370 -83 349 -114 q 392 4 392 -51 l 392 106 q 342 54 381 78 q 247 31 304 31 q 134 58 169 31 q 90 128 99 86 q 82 213 82 169 l 82 517 q 86 581 82 549 q 106 640 90 613 q 155 683 121 667 q 247 699 189 699 q 325 688 296 699 q 370 665 354 678 q 392 647 386 653 l 396 688 l 414 688 l 414 7 q 372 -116 414 -72 q 244 -160 331 -160 m 247 53 q 337 76 306 53 q 380 136 368 99 q 392 217 392 174 l 392 607 q 376 633 388 617 q 334 663 364 649 q 247 676 304 676 q 164 661 193 676 q 122 622 135 646 q 107 569 110 597 q 104 513 104 540 l 104 217 q 107 160 104 189 q 122 108 110 132 q 164 68 135 83 q 247 53 193 53 m 257 758 q 174 792 197 758 q 150 865 150 826 l 172 865 q 199 800 174 819 q 258 781 224 781 q 327 801 294 781 q 360 865 360 822 l 382 865 q 350 792 382 826 q 257 758 318 758 z "},"ǧ":{"ha":508,"x_min":82,"x_max":414,"o":"m 244 -160 q 190 -158 214 -160 q 156 -154 165 -156 l 156 -131 q 244 -137 193 -137 q 315 -126 282 -137 q 370 -83 349 -114 q 392 4 392 -51 l 392 106 q 342 54 381 78 q 247 31 304 31 q 134 58 169 31 q 90 128 99 86 q 82 213 82 169 l 82 517 q 86 581 82 549 q 106 640 90 613 q 155 683 121 667 q 247 699 189 699 q 325 688 296 699 q 370 665 354 678 q 392 647 386 653 l 396 688 l 414 688 l 414 7 q 372 -116 414 -72 q 244 -160 331 -160 m 247 53 q 337 76 306 53 q 380 136 368 99 q 392 217 392 174 l 392 607 q 376 633 388 617 q 334 663 364 649 q 247 676 304 676 q 164 661 193 676 q 122 622 135 646 q 107 569 110 597 q 104 513 104 540 l 104 217 q 107 160 104 189 q 122 108 110 132 q 164 68 135 83 q 247 53 193 53 m 264 749 l 149 868 l 174 868 l 274 768 l 369 868 l 397 868 l 285 749 l 264 749 z "},"ĝ":{"ha":508,"x_min":82,"x_max":414,"o":"m 244 -160 q 190 -158 214 -160 q 156 -154 165 -156 l 156 -131 q 244 -137 193 -137 q 315 -126 282 -137 q 370 -83 349 -114 q 392 4 392 -51 l 392 106 q 342 54 381 78 q 247 31 304 31 q 134 58 169 31 q 90 128 99 86 q 82 213 82 169 l 82 517 q 86 581 82 549 q 106 640 90 613 q 155 683 121 667 q 247 699 189 699 q 325 688 296 699 q 370 665 354 678 q 392 647 386 653 l 396 688 l 414 688 l 414 7 q 372 -116 414 -72 q 244 -160 331 -160 m 247 53 q 337 76 306 53 q 380 136 368 99 q 392 217 392 174 l 392 607 q 376 633 388 617 q 334 663 364 649 q 247 676 304 676 q 164 661 193 676 q 122 622 135 646 q 107 569 110 597 q 104 513 104 540 l 104 217 q 107 160 104 189 q 122 108 110 132 q 164 68 135 83 q 247 53 193 53 m 135 758 l 250 878 l 271 878 l 383 758 l 356 758 l 260 858 l 160 758 l 135 758 z "},"ģ":{"ha":508,"x_min":82,"x_max":414,"o":"m 244 -160 q 190 -158 214 -160 q 156 -154 165 -156 l 156 -131 q 244 -137 193 -137 q 315 -126 282 -137 q 370 -83 349 -114 q 392 4 392 -51 l 392 106 q 342 54 381 78 q 247 31 304 31 q 134 58 169 31 q 90 128 99 86 q 82 213 82 169 l 82 517 q 86 581 82 549 q 106 640 90 613 q 155 683 121 667 q 247 699 189 699 q 325 688 296 699 q 370 665 354 678 q 392 647 386 653 l 396 688 l 414 688 l 414 7 q 372 -116 414 -72 q 244 -160 331 -160 m 247 53 q 337 76 306 53 q 380 136 368 99 q 392 217 392 174 l 392 607 q 376 633 388 617 q 334 663 364 649 q 247 676 304 676 q 164 661 193 676 q 122 622 135 646 q 107 569 110 597 q 104 513 104 540 l 104 217 q 107 160 104 189 q 122 108 110 132 q 164 68 135 83 q 247 53 193 53 m 258 756 q 239 764 244 756 q 233 782 233 772 q 247 832 233 804 q 276 879 261 860 l 292 879 q 273 848 285 869 q 261 811 261 826 q 270 797 261 801 q 279 775 279 792 q 274 762 279 768 q 258 756 269 756 z "},"ġ":{"ha":508,"x_min":82,"x_max":414,"o":"m 244 -160 q 190 -158 214 -160 q 156 -154 165 -156 l 156 -131 q 244 -137 193 -137 q 315 -126 282 -137 q 370 -83 349 -114 q 392 4 392 -51 l 392 106 q 342 54 381 78 q 247 31 304 31 q 134 58 169 31 q 90 128 99 86 q 82 213 82 169 l 82 517 q 86 581 82 549 q 106 640 90 613 q 155 683 121 667 q 247 699 189 699 q 325 688 296 699 q 370 665 354 678 q 392 647 386 653 l 396 688 l 414 688 l 414 7 q 372 -116 414 -72 q 244 -160 331 -160 m 247 53 q 337 76 306 53 q 380 136 368 99 q 392 217 392 174 l 392 607 q 376 633 388 617 q 334 663 364 649 q 247 676 304 676 q 164 661 193 676 q 122 622 135 646 q 107 569 110 597 q 104 513 104 540 l 104 217 q 107 160 104 189 q 122 108 110 132 q 164 68 135 83 q 247 53 193 53 m 260 786 q 240 806 240 786 q 260 825 240 825 q 279 806 279 825 q 260 786 279 786 z "},"г":{"ha":404,"x_min":94,"x_max":390,"o":"m 94 0 l 94 688 l 390 688 l 390 665 l 117 665 l 117 0 l 94 0 z "},"ß":{"ha":529,"x_min":-75,"x_max":449,"o":"m 19 -203 q -35 -201 -6 -203 q -75 -199 -64 -200 l -75 -178 l -44 -181 q -16 -182 -31 -182 q 11 -182 -1 -182 q 81 -155 65 -182 q 97 -76 97 -128 l 97 613 l 54 613 l 54 635 l 97 635 l 97 732 q 130 843 97 807 q 264 879 163 879 q 388 851 342 879 q 433 747 433 822 l 433 596 q 403 515 433 550 q 328 475 372 479 l 328 474 q 413 433 376 468 q 449 339 449 397 l 449 165 q 427 58 449 93 q 369 11 406 22 q 288 0 333 0 l 181 0 l 181 22 l 288 22 q 360 33 329 22 q 409 75 392 43 q 426 171 426 107 l 426 332 q 378 434 426 406 q 268 463 331 463 l 208 463 l 208 485 l 283 485 q 377 518 344 485 q 410 601 410 551 l 410 738 q 374 829 410 801 q 264 857 339 857 q 167 840 199 857 q 128 794 136 822 q 119 733 119 767 l 119 -83 q 97 -172 119 -140 q 19 -203 75 -203 z "},"ѓ":{"ha":404,"x_min":94,"x_max":390,"o":"m 94 0 l 94 688 l 390 688 l 390 665 l 117 665 l 117 0 l 94 0 m 196 757 l 288 876 l 315 876 l 217 757 l 196 757 z "},"`":{"ha":694,"x_min":288,"x_max":407,"o":"m 386 757 l 288 876 l 315 876 l 407 757 l 386 757 z "},"̀":{"ha":0,"x_min":288,"x_max":407,"o":"m 386 757 l 288 876 l 315 876 l 407 757 l 386 757 z "},">":{"ha":456,"x_min":69,"x_max":400,"o":"m 69 226 l 69 253 l 375 453 l 69 656 l 69 682 l 400 463 l 400 444 l 69 226 z "},"≥":{"ha":469,"x_min":69,"x_max":400,"o":"m 69 226 l 69 256 l 375 453 l 69 653 l 69 682 l 400 463 l 400 444 l 69 226 m 69 0 l 69 22 l 400 22 l 400 0 l 69 0 z "},"₲":{"ha":569,"x_min":93,"x_max":478,"o":"m 275 -112 l 275 -17 q 184 -2 225 -15 q 118 49 143 11 q 93 164 93 88 l 93 651 q 117 767 93 729 q 183 817 142 804 q 275 832 224 831 l 275 917 l 297 917 l 297 832 q 392 819 351 832 q 456 767 433 806 q 478 651 478 729 l 478 557 l 456 557 l 456 650 q 437 751 456 717 q 383 797 418 785 q 297 810 349 810 l 297 376 l 478 376 l 478 0 l 456 0 l 456 88 q 401 19 444 53 q 297 -17 357 -14 l 297 -112 l 275 -112 m 275 6 l 275 810 q 190 797 225 810 q 135 749 154 783 q 115 650 115 715 l 115 174 q 136 67 115 103 q 194 19 157 31 q 275 6 231 7 m 297 6 q 410 53 365 8 q 456 174 456 97 l 456 356 l 297 356 l 297 6 z "},"«":{"ha":575,"x_min":69,"x_max":519,"o":"m 483 160 l 319 394 l 500 650 l 519 650 l 344 394 l 503 160 l 483 160 m 233 160 l 69 394 l 250 650 l 269 650 l 94 394 l 253 160 l 233 160 z "},"»":{"ha":575,"x_min":56,"x_max":506,"o":"m 306 160 l 481 415 l 322 650 l 342 650 l 506 415 l 325 160 l 306 160 m 56 160 l 231 415 l 72 650 l 92 650 l 256 415 l 75 160 l 56 160 z "},"‹":{"ha":325,"x_min":69,"x_max":269,"o":"m 233 160 l 69 394 l 250 650 l 269 650 l 94 394 l 253 160 l 233 160 z "},"›":{"ha":325,"x_min":56,"x_max":256,"o":"m 72 160 l 231 394 l 56 650 l 75 650 l 256 394 l 92 160 l 72 160 z "},"h":{"ha":518,"x_min":94,"x_max":433,"o":"m 94 0 l 94 875 l 117 875 l 117 618 q 167 674 132 650 q 268 699 203 699 q 360 683 326 699 q 410 640 394 667 q 429 581 425 613 q 433 517 433 549 l 433 0 l 411 0 l 411 504 q 404 585 411 546 q 367 651 397 625 q 268 676 338 676 q 157 638 192 676 q 117 540 122 600 l 117 0 l 94 0 z "},"х":{"ha":415,"x_min":26,"x_max":389,"o":"m 26 0 l 168 365 l 49 688 l 72 688 l 189 376 l 225 376 l 351 688 l 375 688 l 244 367 l 389 0 l 363 0 l 226 354 l 188 354 l 51 0 l 26 0 z "},"ъ":{"ha":522,"x_min":7,"x_max":468,"o":"m 129 0 l 129 665 l 7 665 l 7 688 l 150 688 l 150 469 l 301 469 q 393 453 360 469 q 442 410 426 438 q 463 351 458 383 q 467 288 467 319 l 467 182 q 459 97 468 139 q 415 28 450 56 q 301 0 381 0 l 129 0 m 150 21 l 296 21 q 399 45 368 21 q 438 108 431 69 q 446 186 446 146 l 446 283 q 438 363 446 325 q 399 424 431 400 q 296 449 368 449 l 150 449 l 150 21 z "},"ħ":{"ha":518,"x_min":36,"x_max":433,"o":"m 94 0 l 94 875 l 117 875 l 117 618 q 167 674 132 650 q 268 699 203 699 q 360 683 326 699 q 410 640 394 667 q 429 581 425 613 q 433 517 433 549 l 433 0 l 411 0 l 411 504 q 404 585 411 546 q 367 651 397 625 q 268 676 338 676 q 157 638 192 676 q 117 540 122 600 l 117 0 l 94 0 m 36 747 l 36 768 l 274 768 l 274 747 l 36 747 z "},"ĥ":{"ha":518,"x_min":-15,"x_max":433,"o":"m 94 0 l 94 875 l 117 875 l 117 618 q 167 674 132 650 q 268 699 203 699 q 360 683 326 699 q 410 640 394 667 q 429 581 425 613 q 433 517 433 549 l 433 0 l 411 0 l 411 504 q 404 585 411 546 q 367 651 397 625 q 268 676 338 676 q 157 638 192 676 q 117 540 122 600 l 117 0 l 94 0 m -15 921 l 100 1040 l 121 1040 l 233 921 l 206 921 l 110 1021 l 10 921 l -15 921 z "},"̉":{"ha":0,"x_min":276,"x_max":418,"o":"m 326 749 l 326 758 q 344 799 326 786 q 378 823 361 811 q 396 857 396 835 l 396 863 q 388 885 396 874 q 351 897 379 897 q 297 863 306 897 l 276 869 q 299 906 282 893 q 351 919 317 919 q 418 864 418 919 l 418 857 q 401 813 418 828 q 366 789 383 799 q 349 761 349 779 l 349 749 l 326 749 z "},"―":{"ha":632,"x_min":63,"x_max":569,"o":"m 63 339 l 63 361 l 569 361 l 569 339 l 63 339 z "},"̛":{"ha":0,"x_min":292,"x_max":403,"o":"m 294 672 l 292 688 q 357 705 333 688 q 381 763 381 722 l 381 776 l 403 776 l 403 764 q 373 694 403 717 q 294 672 343 672 z "},"˝":{"ha":694,"x_min":257,"x_max":439,"o":"m 257 757 l 349 876 l 376 876 l 278 757 l 257 757 m 319 756 l 411 875 l 439 875 l 340 756 l 319 756 z "},"̋":{"ha":0,"x_min":257,"x_max":439,"o":"m 257 757 l 349 876 l 376 876 l 278 757 l 257 757 m 319 756 l 411 875 l 439 875 l 340 756 l 319 756 z "},"-":{"ha":374,"x_min":63,"x_max":311,"o":"m 63 339 l 63 361 l 311 361 l 311 339 l 63 339 z "},"‐":{"ha":374,"x_min":63,"x_max":311,"o":"m 63 339 l 63 361 l 311 361 l 311 339 l 63 339 z "},"i":{"ha":211,"x_min":86,"x_max":125,"o":"m 94 0 l 94 688 l 117 688 l 117 0 l 94 0 m 106 786 q 86 806 86 786 q 106 825 86 825 q 125 806 125 825 q 106 786 125 786 z "},"і":{"ha":211,"x_min":86,"x_max":125,"o":"m 94 0 l 94 688 l 117 688 l 117 0 l 94 0 m 106 786 q 86 806 86 786 q 106 825 86 825 q 125 806 125 825 q 106 786 125 786 z "},"я":{"ha":514,"x_min":63,"x_max":419,"o":"m 63 0 l 126 178 q 149 236 135 200 q 182 303 163 272 q 226 339 201 335 q 123 383 158 349 q 88 503 88 417 l 88 553 q 131 658 88 628 q 235 688 175 688 l 419 688 l 419 0 l 397 0 l 397 331 l 265 331 q 208 299 232 331 q 169 224 185 267 q 139 144 153 181 l 86 0 l 63 0 m 275 353 l 397 353 l 397 665 l 229 665 q 146 637 182 665 q 110 549 110 608 l 110 500 q 153 386 110 419 q 275 353 196 353 z "},"í":{"ha":211,"x_min":58,"x_max":178,"o":"m 94 0 l 94 688 l 117 688 l 117 0 l 94 0 m 58 757 l 150 876 l 178 876 l 79 757 l 58 757 z "},"ĭ":{"ha":211,"x_min":-4,"x_max":228,"o":"m 94 0 l 94 688 l 117 688 l 117 0 l 94 0 m 103 758 q 19 792 43 758 q -4 865 -4 826 l 18 865 q 44 800 19 819 q 104 781 69 781 q 173 801 140 781 q 206 865 206 822 l 228 865 q 196 792 228 826 q 103 758 164 758 z "},"ǐ":{"ha":211,"x_min":-6,"x_max":243,"o":"m 94 0 l 94 688 l 117 688 l 117 0 l 94 0 m 110 749 l -6 868 l 19 868 l 119 768 l 215 868 l 243 868 l 131 749 l 110 749 z "},"î":{"ha":211,"x_min":-19,"x_max":229,"o":"m 94 0 l 94 688 l 117 688 l 117 0 l 94 0 m -19 758 l 96 878 l 117 878 l 229 758 l 201 758 l 106 858 l 6 758 l -19 758 z "},"ȉ":{"ha":211,"x_min":-3,"x_max":169,"o":"m 94 0 l 94 688 l 117 688 l 117 0 l 94 0 m 149 757 l 50 876 l 78 876 l 169 757 l 149 757 m 96 756 l -3 875 l 25 875 l 117 756 l 96 756 z "},"ï":{"ha":211,"x_min":32,"x_max":178,"o":"m 94 0 l 94 688 l 117 688 l 117 0 l 94 0 m 158 786 q 139 806 139 786 q 158 825 139 825 q 178 806 178 825 q 158 786 178 786 m 51 786 q 32 806 32 786 q 51 825 32 825 q 71 806 71 825 q 51 786 71 786 z "},"ị":{"ha":211,"x_min":74,"x_max":125,"o":"m 94 0 l 94 688 l 117 688 l 117 0 l 94 0 m 106 786 q 86 806 86 786 q 106 825 86 825 q 125 806 125 825 q 106 786 125 786 m 93 -111 q 74 -92 74 -111 q 93 -72 74 -72 q 113 -92 113 -72 q 93 -111 113 -111 z "},"ı":{"ha":211,"x_min":94,"x_max":117,"o":"m 94 0 l 94 688 l 117 688 l 117 0 l 94 0 z "},"е":{"ha":493,"x_min":82,"x_max":414,"o":"m 249 -10 q 155 6 189 -10 q 106 49 121 22 q 86 108 90 75 q 82 172 82 140 l 82 517 q 92 601 82 560 q 137 671 101 643 q 249 699 172 699 q 361 672 326 699 q 405 604 396 646 q 414 517 414 563 l 414 365 l 104 365 l 104 176 q 112 98 104 136 q 150 36 119 60 q 249 13 181 13 q 347 36 317 13 q 384 97 376 60 q 392 176 392 135 l 392 232 l 414 232 l 414 172 q 406 88 414 129 q 363 18 397 46 q 249 -10 328 -10 m 104 388 l 392 388 l 392 504 q 385 592 392 553 q 348 653 378 631 q 249 676 318 676 q 156 655 188 676 q 115 595 125 633 q 104 504 104 557 l 104 388 z "}}}
